SplineFontDB: 3.0
FontName: Neuton-Italic
FullName: Neuton Italic
FamilyName: Neuton
Weight: Italic
Copyright: Copyright (c) 2010, 2011 Brian M Zick (http://21326.info/), \nwith Reserved Font Name 'Neuton'.\n\nThis Font Software is licensed under the SIL Open Font License, Version 1.1.\nThis license is available with a FAQ at: http://scripts.sil.org/OFL\n   WITHOUT WARRANTIES OR CONDITIONS OF ANY KIND, either express or implied.\n   See the License for the specific language governing permissions and\n   limitations under the License.
UComments: "2011-7-27: Created." 
Version: 1.46
ItalicAngle: 0
UnderlinePosition: -361
UnderlineWidth: 0
Ascent: 1638
Descent: 410
LayerCount: 3
Layer: 0 0 "Back"  1
Layer: 1 0 "Fore"  0
Layer: 2 0 "Compare"  0
XUID: [1021 467 2011608612 16041572]
FSType: 1
OS2Version: 1
OS2_WeightWidthSlopeOnly: 0
OS2_UseTypoMetrics: 0
CreationTime: 1311747327
ModificationTime: 1332430024
PfmFamily: 17
TTFWeight: 500
TTFWidth: 5
LineGap: 0
VLineGap: 0
OS2TypoAscent: 2106
OS2TypoAOffset: 0
OS2TypoDescent: -485
OS2TypoDOffset: 0
OS2TypoLinegap: 0
OS2WinAscent: 2106
OS2WinAOffset: 0
OS2WinDescent: 485
OS2WinDOffset: 0
HheadAscent: 2106
HheadAOffset: 0
HheadDescent: -485
HheadDOffset: 0
OS2SubXSize: 1095
OS2SubYSize: 1179
OS2SubXOff: 0
OS2SubYOff: 235
OS2SupXSize: 1095
OS2SupYSize: 1179
OS2SupXOff: 0
OS2SupYOff: 809
OS2StrikeYSize: 84
OS2StrikeYPos: 436
OS2Vendor: 'PfEd'
Lookup: 1 0 0 "'onum' Oldstyle Figures lookup 1"  {"'onum' Oldstyle Figures lookup 1-1" ("osf" ) } ['onum' ('DFLT' <'dflt' > 'hebr' <'dflt' > 'latn' <'dflt' > ) ]
Lookup: 3 0 0 "Neuton-Regular-'salt' Stylistic Alternates"  {"Neuton-Regular-Alternate Substitution in Latin lookup 0-1"  } ['salt' ('DFLT' <'dflt' > 'latn' <'dflt' > ) ]
MarkAttachClasses: 1
DEI: 91125
LangName: 1033 
Encoding: Custom
UnicodeInterp: none
NameList: Adobe Glyph List
DisplaySize: -36
AntiAlias: 1
FitToEm: 1
WidthSeparation: 150
WinInfo: 75 25 10
BeginPrivate: 0
EndPrivate
Grid
-2048 1317.1 m 0
 4096 1317.1 l 0

StartChar: exclam
Encoding: 1 33 0
Width: 494
VWidth: 0
Flags: HMW
LayerCount: 3
Back
SplineSet
83 92 m 0xc0
 83 159 140 210 206 210 c 0
 273 210 331 157 331 90 c 0
 331 20 276 -36 206 -36 c 0
 136 -36 83 22 83 92 c 0xc0
109 1245 m 0
 109 1282 197 1292 240 1292 c 0
 267 1292 304 1284 304 1253 c 0xa0
 304 1084.02 273 675 249 357 c 1
 162 376 l 1
 147 669 109 1072 109 1245 c 0
EndSplineSet
Fore
SplineSet
187 210 m 0
 248 210 295 156 295 98 c 0
 295 16 220 -36 148 -36 c 0
 85 -36 44 21 44 81 c 0
 44 162 116 210 187 210 c 0
254 1245 m 0
 260 1282 330 1292 373 1292 c 0
 398 1292 451 1285 451 1259 c 0
 451 1212 323 591 254 357 c 1
 170 376 l 1
 201 669 227 1072 254 1245 c 0
EndSplineSet
Colour: ffffff
EndChar

StartChar: quotedbl
Encoding: 2 34 1
Width: 523
VWidth: 0
Flags: HMW
LayerCount: 3
Back
SplineSet
50 1302 m 1
 233 1286 l 1
 197 903 l 1
 104 892 l 1
 50 1302 l 1
258 1302 m 1
 442 1286 l 1
 406 903 l 1
 311 892 l 1
 258 1302 l 1
EndSplineSet
Fore
SplineSet
291 1303 m 1
 471 1286 l 1
 375 903 l 1
 280 892 l 1
 291 1303 l 1
83 1303 m 1
 263 1286 l 1
 167 903 l 1
 71 892 l 1
 83 1303 l 1
EndSplineSet
Colour: ffffff
EndChar

StartChar: numbersign
Encoding: 3 35 2
Width: 1099
VWidth: 0
Flags: HMW
LayerCount: 3
Back
SplineSet
182 -26 m 9
 359 1149 l 17
 475 1159 l 9
 299 -19 l 17
 182 -26 l 9
49 711 m 17
 83 836 l 9
 992 836 l 17
 961 711 l 9
 49 711 l 17
-22 326 m 1
 11 451 l 9
 917 451 l 17
 886 326 l 1
 -22 326 l 1
487 -26 m 9
 663 1149 l 17
 781 1158 l 9
 604 -19 l 17
 487 -26 l 9
EndSplineSet
Fore
SplineSet
246 -26 m 9
 423 1149 l 17
 539 1159 l 9
 363 -19 l 17
 246 -26 l 9
113 711 m 17
 147 836 l 9
 1056 836 l 17
 1025 711 l 9
 113 711 l 17
42 326 m 1
 75 451 l 9
 981 451 l 17
 950 326 l 1
 42 326 l 1
551 -26 m 9
 727 1149 l 17
 845 1158 l 9
 668 -19 l 17
 551 -26 l 9
EndSplineSet
Colour: ffffff
EndChar

StartChar: dollar
Encoding: 4 36 3
Width: 938
VWidth: 0
Flags: HMW
LayerCount: 3
Back
SplineSet
66 122 m 1xd1
 79 389 l 1
 181 375 l 1
 220 187 l 1
 256 130 333 77 426 77 c 0
 531 77 663 139 663 287 c 0xe1
 663 547 90 544 90 916 c 0
 90 1143 282 1269 479 1269 c 0
 587 1269 682 1235 761 1169 c 1
 761 1161 739 887 739 887 c 1
 640 899 l 1xd2
 615 1090 l 1
 597 1126 525 1185 445 1185 c 0
 345 1185 263 1126 263 995 c 0
 263 708 847 730 847 354 c 0
 847 124 630 -24 402 -24 c 0
 258 -24 130 43 66 122 c 1xd1
367 -179 m 1xc8
 379 9 l 1
 416 54 l 1
 416 631 l 1
 421 700 l 1
 421 1207 l 1
 385 1242 l 1
 370 1394 l 1
 535 1409 l 1
 518 1242 l 1
 483 1202 l 1
 483 666 l 1xc4
 486 582 l 1
 486 54 l 1
 527 20 l 1
 540 -164 l 1
 367 -179 l 1xc8
EndSplineSet
Fore
SplineSet
832 887 m 1
 735 898 l 1
 738 1090 l 1
 731 1118 668 1184 584 1184 c 0
 470 1184 371 1113 371 968 c 0
 371 725 862 714 862 400 c 0
 862 147 603 -25 352 -25 c 0
 208 -25 80 41 39 122 c 1
 96 390 l 1
 195 375 l 1
 201 187 l 1
 229 123 294 78 391 78 c 0
 507 78 665 149 665 312 c 0
 665 528 186 556 186 870 c 0
 186 1128 414 1270 632 1270 c 0
 720 1270 832 1247 898 1169 c 1
 896 1161 832 887 832 887 c 1
285 -179 m 1
 326 9 l 1
 371 54 l 1
 462 631 l 1
 478 700 l 1
 558 1207 l 1
 528 1242 l 1
 537 1394 l 1
 704 1409 l 1
 661 1242 l 1
 619 1202 l 1
 534 666 l 1
 524 582 l 1
 441 54 l 1
 476 20 l 1
 460 -164 l 1
 285 -179 l 1
EndSplineSet
Colour: ffffff
EndChar

StartChar: percent
Encoding: 5 37 4
Width: 1241
VWidth: 0
Flags: HMW
LayerCount: 3
Back
SplineSet
29 898 m 0x15e0
 29 1067 178 1211 301 1211 c 0
 319 1211 324 1210 330 1208 c 1
 340 1142 l 17
 325 1148 314 1154 295 1154 c 0x1be0
 216 1154 194 1012 194 898 c 0
 194 781 223 649 297 649 c 0
 381 649 402 778 402 898 c 0
 402 1041 384 1137 364 1198 c 9x15e0
 921 1210 l 25
 931 1121 l 25x09e0
 491 1137 l 17
 541 1085 566 948 566 898 c 0
 566 726 414 583 297 583 c 0
 170 583 29 706 29 898 c 0x15e0
123 -10 m 1
 530 588 l 1
 921 1210 l 1
 1087 1207 l 1
 1085 1178 l 1
 684 591 l 1
 313 -32 l 1x41e0
 123 -10 l 1
647 277 m 0
 647 446 794 590 917 590 c 0
 1059 590 1181 453 1181 274 c 0
 1181 105 1037 -36 920 -36 c 0xa1e0
 793 -36 647 87 647 277 c 0
812 277 m 0
 812 160 846 32 920 32 c 0
 1004 32 1021 158 1021 279 c 0
 1021 399 993 534 917 534 c 0
 832 534 812 391 812 277 c 0
EndSplineSet
Fore
SplineSet
413 1211 m 0
 431 1211 436 1210 442 1208 c 1
 441 1142 l 17
 427 1148 417 1154 398 1154 c 0
 300 1154 248 934 248 797 c 0
 248 716 267 649 320 649 c 0
 446 649 482 945 482 1094 c 0
 482 1136 479 1171 474 1198 c 9
 1033 1210 l 25
 1029 1121 l 25
 592 1137 l 17
 623 1099 632 1015 632 953 c 0
 632 748 440 583 310 583 c 0
 196 583 87 682 87 840 c 0
 87 1043 276 1211 413 1211 c 0
42 -10 m 1
 544 588 l 1
 1033 1210 l 1
 1199 1207 l 1
 1192 1178 l 1
 698 591 l 1
 229 -32 l 1
 42 -10 l 1
931 590 m 0
 1057 590 1150 483 1150 334 c 0
 1150 131 967 -36 835 -36 c 0
 721 -36 607 63 607 221 c 0
 607 422 796 590 931 590 c 0
769 187 m 0
 769 103 791 32 846 32 c 0
 949 32 995 243 995 386 c 0
 995 467 976 534 922 534 c 0
 821 534 769 324 769 187 c 0
EndSplineSet
Colour: ffffff
EndChar

StartChar: ampersand
Encoding: 6 38 5
Width: 1454
VWidth: 0
Flags: HMW
LayerCount: 3
Back
SplineSet
33 313 m 0xf4
 33 468 125 596 310 701 c 1
 246 755 178 860 178 974 c 0xec
 178 1130 334 1271 494 1271 c 0
 675 1271 786 1192 786 1011 c 0
 786 909 707 808 556 716 c 1
 556 705 l 1
 787 449 l 1
 964 719 l 1
 813 761 l 1
 823 837 l 1
 1255 837 l 1
 1245 761 l 1
 1075 722 l 1
 859 380 l 1
 1027 199 1143 97 1202 79 c 2
 1235 70 l 1
 1220 0 l 1
 1183 -13 1143 -19 1100 -19 c 0
 989 -19 903 66 844 128 c 2
 756 218 l 1
 664 84 569 -19 380 -19 c 0
 175 -19 33 111 33 313 c 0xf4
221 393 m 0xf4
 221 242 288 105 439 105 c 0
 556 105 646 205 685 282 c 1
 372 629 l 1
 355 632 l 1
 287 585 221 503 221 393 c 0xf4
338 1024 m 0xec
 338 924 427 820 488 773 c 1
 566 826 616 872 616 988 c 0
 616 1098 579 1188 474 1188 c 0
 389 1188 338 1107 338 1024 c 0xec
EndSplineSet
Fore
SplineSet
1213 723 m 1
 947 353 l 1
 998 287 1145 105 1231 79 c 2
 1263 69 l 1
 1236 0 l 1
 1191 -15 1150 -20 1112 -20 c 0
 1001 -20 903 92 807 218 c 1
 726 126 584 -20 359 -20 c 0
 160 -20 45 106 45 262 c 0
 45 493 257 628 400 702 c 1
 355 746 295 833 295 935 c 0
 295 1112 482 1272 661 1272 c 0
 807 1272 943 1220 943 1061 c 0
 943 888 786 791 653 717 c 1
 651 705 l 1
 888 423 l 1
 1102 720 l 1
 941 761 l 1
 962 837 l 1
 1411 837 l 1
 1390 761 l 1
 1213 723 l 1
453 629 m 1
 438 631 l 1
 349 576 246 485 246 338 c 0
 246 218 306 106 438 106 c 0
 588 106 720 244 746 282 c 1
 453 629 l 1
594 773 m 1
 706 841 768 902 768 1029 c 0
 768 1117 720 1187 628 1187 c 0
 534 1187 465 1091 465 1002 c 0
 465 913 544 820 594 773 c 1
EndSplineSet
Colour: ffffff
EndChar

StartChar: quotesingle
Encoding: 7 39 6
Width: 315
VWidth: 0
Flags: HMW
LayerCount: 3
Back
SplineSet
50 1302 m 1
 233 1286 l 1
 197 903 l 1
 104 892 l 1
 50 1302 l 1
EndSplineSet
Fore
SplineSet
83 1303 m 1
 263 1286 l 1
 167 903 l 1
 71 892 l 1
 83 1303 l 1
EndSplineSet
Colour: ffffff
EndChar

StartChar: parenleft
Encoding: 8 40 7
Width: 611
VWidth: 0
Flags: HMW
LayerCount: 3
Back
SplineSet
49 445 m 0
 49 970 320 1199 386 1255 c 1
 436 1189 l 1
 350 1076 227 879 227 455 c 0
 227 40 405 -244 449 -317 c 1
 381 -375 l 1
 331 -328 49 -70 49 445 c 0
EndSplineSet
Fore
SplineSet
347 -317 m 1
 268 -375 l 1
 231 -334 50 -118 50 261 c 0
 50 831 448 1192 531 1255 c 1
 570 1189 l 1
 461 1072 229 713 229 249 c 0
 229 -43 320 -258 347 -317 c 1
EndSplineSet
Colour: ffffff
EndChar

StartChar: parenright
Encoding: 9 41 8
Width: 634
VWidth: 0
Flags: HMW
LayerCount: 3
Back
SplineSet
44 1189 m 1
 93 1255 l 1
 159 1199 431 970 431 445 c 0
 431 -70 149 -328 99 -375 c 1
 30 -317 l 1
 74 -244 253 40 253 455 c 0
 253 879 130 1076 44 1189 c 1
EndSplineSet
Fore
SplineSet
40 -317 m 1
 100 -375 l 1
 172 -316 580 12 580 629 c 0
 580 1004 401 1207 352 1255 c 1
 293 1189 l 1
 344 1105 409 943 409 702 c 0
 409 132 114 -220 40 -317 c 1
EndSplineSet
Colour: ffffff
EndChar

StartChar: asterisk
Encoding: 10 42 9
Width: 807
VWidth: 0
Flags: HMW
LayerCount: 3
Back
SplineSet
328 1292 m 1
 464 1279 l 1
 438 988 l 1
 727 1119 l 1
 756 989 l 1
 471 921 l 1
 690 692 l 1
 572 623 l 1
 419 870 l 1
 264 593 l 1
 162 685 l 1
 355 904 l 1
 43 964 l 1
 98 1091 l 1
 365 977 l 1
 328 1292 l 1
EndSplineSet
Fore
SplineSet
333 1292 m 1
 469 1279 l 1
 443 988 l 1
 732 1119 l 1
 761 989 l 1
 476 921 l 1
 695 692 l 1
 577 623 l 1
 424 870 l 1
 269 593 l 1
 167 685 l 1
 360 904 l 1
 48 964 l 1
 103 1091 l 1
 370 977 l 1
 333 1292 l 1
EndSplineSet
Colour: ffffff
EndChar

StartChar: plus
Encoding: 11 43 10
Width: 653
VWidth: 0
Flags: HMW
LayerCount: 3
Back
SplineSet
50 409 m 1
 62 510 l 1
 271 510 l 1
 271 741 l 1
 380 729 l 1
 381 510 l 1
 601 510 l 1
 589 409 l 1
 381 409 l 1
 383 174 l 1
 271 185 l 1
 271 409 l 1
 50 409 l 1
EndSplineSet
Fore
SplineSet
50 409 m 1
 62 510 l 1
 271 510 l 1
 271 741 l 1
 380 729 l 1
 381 510 l 1
 601 510 l 1
 589 409 l 1
 381 409 l 1
 383 174 l 1
 271 185 l 1
 271 409 l 1
 50 409 l 1
EndSplineSet
Colour: ffffff
EndChar

StartChar: comma
Encoding: 12 44 11
Width: 483
VWidth: 0
Flags: HMW
LayerCount: 3
Back
SplineSet
54 -244 m 1
 185 -210 236 -134 236 -70 c 0
 236 -14 190 36 120 36 c 0
 110 36 100 35 90 34 c 1
 82 55 76 74 76 97 c 0
 76 177 148 218 198 218 c 0
 268 218 372 161 372 10 c 0
 372 -83 340 -243 77 -313 c 1
 54 -244 l 1
EndSplineSet
Fore
SplineSet
51 -244 m 5
 186 -209 261 -125 261 -61 c 4
 261 4 210 50 130 30 c 5
 104 139 168 218 267 218 c 4
 336 218 419 182 419 30 c 4
 419 -66 336 -245 62 -314 c 5
 51 -244 l 5
EndSplineSet
Colour: ffffff
EndChar

StartChar: hyphen
Encoding: 13 45 12
Width: 558
VWidth: 0
Flags: HMW
LayerCount: 3
Back
SplineSet
81 398 m 1xa0
 92 498 l 1xa0
 500 517 l 1
 489 415 l 1x60
 81 398 l 1xa0
EndSplineSet
Fore
SplineSet
87 499 m 1
 497 517 l 1
 470 416 l 1
 59 398 l 1
 87 499 l 1
EndSplineSet
Colour: ffffff
EndChar

StartChar: period
Encoding: 14 46 13
Width: 364
VWidth: 0
Flags: HMW
LayerCount: 3
Back
SplineSet
73 92 m 0
 73 156 127 205 191 205 c 0
 257 205 313 154 313 90 c 0
 313 23 257 -31 191 -31 c 0
 125 -31 73 25 73 92 c 0
EndSplineSet
Fore
SplineSet
200 215 m 3
 263 215 300 161 300 107 c 0
 300 23 239 -33 163 -33 c 19
 110 -33 57 23 57 74 c 0
 57 153 122 215 200 215 c 3
EndSplineSet
Colour: ffffff
EndChar

StartChar: colon
Encoding: 26 58 14
Width: 428
VWidth: 0
Flags: HMW
LayerCount: 3
Back
SplineSet
99 119 m 0
 99 178 151 224 212 224 c 0
 273 224 325 176 325 117 c 0
 325 53 273 1 212 1 c 0
 150 1 99 55 99 119 c 0
99 747 m 0
 99 808 151 853 212 853 c 0
 273 853 325 805 325 744 c 0
 325 680 273 629 212 629 c 0
 150 629 99 683 99 747 c 0
EndSplineSet
Fore
SplineSet
281 852 m 4
 336 852 377 814 377 762 c 4
 377 687 309 629 245 629 c 4
 188 629 151 672 151 727 c 4
 151 801 216 852 281 852 c 4
182 225 m 4
 237 225 278 185 278 134 c 4
 278 59 209 2 145 2 c 4
 88 2 50 45 50 100 c 4
 50 172 117 225 182 225 c 4
EndSplineSet
Colour: ffffff
EndChar

StartChar: semicolon
Encoding: 27 59 15
Width: 488
VWidth: 0
Flags: HMW
LayerCount: 3
Back
SplineSet
77 -230 m 1xe8
 199 -198 246 -131 246 -70 c 0
 246 -18 204 31 138 31 c 0
 129 31 119 29 110 28 c 1
 102 47 96 66 96 87 c 0
 96 161 163 199 210 199 c 0
 274 199 372 145 372 6 c 0
 372 -81 342 -231 98 -295 c 1
 77 -230 l 1xe8
126 744 m 0xf0
 126 806 178 853 240 853 c 0
 304 853 356 805 356 743 c 0
 356 678 304 626 240 626 c 0
 176 626 126 679 126 744 c 0xf0
EndSplineSet
Fore
SplineSet
45 -216 m 1
 167 -184 234 -110 234 -52 c 0
 234 7 188 48 116 30 c 1
 93 129 150 199 239 199 c 0
 301 199 376 167 376 30 c 0
 376 -56 302 -217 55 -279 c 1
 45 -216 l 1
342 852 m 0
 397 852 437 814 437 762 c 0
 437 687 370 629 306 629 c 0
 249 629 211 672 211 727 c 0
 211 801 277 852 342 852 c 0
EndSplineSet
Colour: ffffff
EndChar

StartChar: slash
Encoding: 15 47 16
Width: 677
VWidth: 0
Flags: HMW
LayerCount: 3
Back
SplineSet
439 1235 m 21
 571 1244 l 13
 106 -355 l 21
 -23 -363 l 13
 439 1235 l 21
EndSplineSet
Fore
SplineSet
41 -363 m 1
 503 1235 l 1
 635 1244 l 1
 169 -355 l 1
 41 -363 l 1
EndSplineSet
Colour: ffffff
EndChar

StartChar: equal
Encoding: 29 61 17
Width: 792
VWidth: 0
Flags: HMW
LayerCount: 3
Back
SplineSet
92 319 m 1
 102 424 l 1
 717 424 l 1
 706 319 l 1
 92 319 l 1
95 559 m 1
 105 663 l 1
 721 663 l 1
 709 559 l 1
 95 559 l 1
EndSplineSet
Fore
SplineSet
60 319 m 5
 70 424 l 5
 725 424 l 1
 714 319 l 1
 60 319 l 5
63 559 m 5
 73 663 l 5
 729 663 l 1
 717 559 l 1
 63 559 l 5
EndSplineSet
Colour: ffffff
EndChar

StartChar: greater
Encoding: 30 62 18
Width: 789
VWidth: 0
Flags: HMW
LayerCount: 3
Back
SplineSet
59 -13 m 1
 519 434 l 1
 79 900 l 1
 135 973 l 1
 755 472 l 1
 756 415 l 1
 122 -83 l 1
 59 -13 l 1
EndSplineSet
Fore
SplineSet
43 -13 m 1
 503 434 l 1
 63 900 l 1
 119 973 l 1
 739 472 l 1
 740 415 l 1
 106 -83 l 1
 43 -13 l 1
EndSplineSet
Colour: ffffff
EndChar

StartChar: question
Encoding: 31 63 19
Width: 648
VWidth: 0
Flags: HMW
LayerCount: 3
Back
SplineSet
47 1152 m 0xd8
 47 1205 86 1287 243 1287 c 0
 398 1287 587 1114 587 860 c 0
 587 623 299 656 299 508 c 0
 299 468 306 432 321 383 c 1
 246 366 l 1
 219 406 169 505 169 585 c 0
 169 809 476 734 476 939 c 0
 476 1031 372 1113 313 1113 c 0
 237 1113 164 1087 121 1041 c 1
 88 1054 47 1098 47 1152 c 0xd8
159 92 m 0xe8
 159 159 216 210 282 210 c 0
 349 210 406 157 406 90 c 0
 406 20 352 -36 282 -36 c 0
 212 -36 159 22 159 92 c 0xe8
EndSplineSet
Fore
SplineSet
321 1288 m 0
 460 1288 603 1148 603 937 c 0
 603 561 249 744 249 454 c 0
 249 432 251 410 255 383 c 1
 178 367 l 1
 161 401 132 476 132 548 c 0
 132 828 500 715 500 960 c 0
 500 1043 418 1113 363 1113 c 0
 287 1113 210 1088 160 1042 c 1
 132 1054 102 1090 102 1137 c 0
 102 1205 160 1288 321 1288 c 0
150 -36 m 0
 88 -36 44 10 44 70 c 0
 44 153 116 210 188 210 c 0
 250 210 296 167 296 108 c 0
 296 25 220 -36 150 -36 c 0
EndSplineSet
Colour: ffffff
EndChar

StartChar: at
Encoding: 32 64 20
Width: 1362
VWidth: 0
Flags: HMW
LayerCount: 3
Back
SplineSet
54 325 m 0
 54 723 356 1044 787 1044 c 0
 1067 1044 1306 863 1306 589 c 0
 1306 319 1106 70 832 70 c 0
 764 70 735 117 738 187 c 1
 728 187 l 1
 688 128 617 59 541 59 c 0
 436 59 360 155 360 326 c 0
 360 611 590 789 758 789 c 0
 811 789 867 786 924 773 c 1
 943 751 l 1
 902 385 l 2
 892.534 300.5 866.279 168 914 168 c 0
 1065 168 1173 346 1173 549 c 0
 1173 810 987 955 751 955 c 0
 422 955 209 665 209 351 c 0
 209 56 399 -135 727 -135 c 0
 877 -135 1032 -59 1079 -19 c 1
 1115 -83 l 1
 1026 -136 906 -228 691 -228 c 0
 387 -228 54 -77 54 325 c 0
516 368 m 0
 516 217 551 181 601 181 c 0
 654 181 705 214 739 254 c 1
 792 692 l 1
 773 696 735 703 704 703 c 0
 588 703 516 522 516 368 c 0
EndSplineSet
Fore
SplineSet
799 692 m 1
 779 697 743 704 712 704 c 0
 596 704 512 502 512 350 c 0
 512 200 538 180 589 180 c 0
 642 180 694 214 730 254 c 1
 799 692 l 1
817 69 m 11
 759 69 716 109 726 187 c 1
 718 187 l 1
 677 128 601 59 525 59 c 0
 419 59 353 137 353 307 c 0
 353 594 600 789 768 789 c 0
 821 789 873 786 931 773 c 1
 935 771 l 1
 953 751 l 1
 898 385 l 2
 880 266 863 168 903 168 c 3
 1055 168 1176 355 1176 558 c 0
 1176 822 1002 955 766 955 c 0
 437 955 205 654 205 340 c 0
 205 44 378 -135 705 -135 c 0
 847 -135 1002 -61 1050 -28 c 1
 1062 -20 l 1
 1095 -83 l 1
 1086 -88 l 1
 1005 -142 870 -228 665 -228 c 0
 359 -228 49 -93 49 310 c 0
 49 710 375 1044 806 1044 c 0
 1087 1044 1311 872 1311 598 c 0
 1311 327 1091 69 817 69 c 11
EndSplineSet
Colour: ffffff
EndChar

StartChar: A
Encoding: 33 65 21
Width: 1379
VWidth: 1691
Flags: HMW
LayerCount: 3
Back
SplineSet
-37 0 m 1
 -28 74 l 1
 121 129 l 1
 559 1237 l 1
 710 1268 l 1
 1100 124 l 1
 1237 80 l 1
 1228 0 l 1
 713 0 l 1
 725 74 l 1
 896 129 l 1
 787 432 l 1
 368 432 l 1
 256 124 l 1
 442 80 l 1
 431 0 l 1
 -37 0 l 1
406 534 m 1
 758 534 l 1
 592 1034 l 1
 406 534 l 1
EndSplineSet
Fore
SplineSet
984 1268 m 1
 1203 124 l 1
 1332 81 l 1
 1310 0 l 1
 795 0 l 1
 818 74 l 1
 1000 129 l 1
 937 433 l 1
 518 433 l 1
 359 124 l 1
 537 81 l 1
 513 0 l 1
 44 0 l 1
 65 74 l 1
 224 129 l 1
 827 1237 l 1
 984 1268 l 1
570 533 m 1
 922 533 l 1
 836 1034 l 1
 570 533 l 1
EndSplineSet
Colour: ffffff
EndChar

StartChar: B
Encoding: 34 66 22
Width: 1219
VWidth: 1691
Flags: HMW
LayerCount: 3
Back
SplineSet
50 0 m 1x65
 61 74 l 1
 228 121 l 1
 228 1104 l 1
 57 1134 l 1
 67 1211 l 1x75
 212 1232 382 1257 559 1257 c 0
 869 1257 996 1118 996 967 c 0x2e
 996 863 947 736 790 679 c 1
 790 672 l 1
 995 661 1100 512 1100 380 c 0
 1100 192 970 0 568 0 c 2xad
 50 0 l 1x65
420 96 m 1xa5
 640 96 l 2
 814 96 904 218 904 347 c 0
 904 471 818 605 643 605 c 2
 420 605 l 1
 420 96 l 1xa5
420 688 m 1
 678 688 l 1
 764 724 808 795 808 909 c 0
 808 1033 743 1171 500 1171 c 0x2e
 476 1171 447 1168 420 1164 c 1
 420 688 l 1
EndSplineSet
Fore
SplineSet
742 604 m 2
 519 604 l 1
 430 96 l 1
 633 96 l 2
 863 96 968 240 968 380 c 0
 968 491 896 604 742 604 c 2
902 680 m 1
 900 672 l 1
 1082 662 1169 532 1169 411 c 0
 1169 219 970 0 527 0 c 2
 43 0 l 1
 66 74 l 1
 243 121 l 1
 415 1105 l 1
 250 1135 l 1
 273 1211 l 1
 422 1232 596 1257 773 1257 c 0
 1052 1257 1163 1127 1163 993 c 0
 1163 889 1100 748 902 680 c 1
618 1164 m 1
 535 689 l 1
 743 689 l 2
 878 689 965 787 965 946 c 0
 965 1053 905 1171 699 1171 c 0
 674 1171 646 1169 618 1164 c 1
EndSplineSet
Colour: ffffff
EndChar

StartChar: C
Encoding: 35 67 23
Width: 1190
VWidth: 1691
Flags: HMW
LayerCount: 3
Back
SplineSet
61 589 m 0
 61 884 246 1269 704 1269 c 0
 836 1269 970 1242 1066 1169 c 1
 1035 837 l 1
 947 850 l 1
 905 1070 l 1
 859 1129 776 1174 647 1174 c 0
 439 1174 275 980 275 658 c 0
 275 299 491 111 728 111 c 0
 862 111 992 182 1078 261 c 1
 1113 185 l 1
 1034 89 859 -24 651 -24 c 0
 344 -24 61 190 61 589 c 0
EndSplineSet
Fore
SplineSet
662 106 m 0
 778 106 894 128 1021 240 c 1
 1064 185 l 1
 912 15 721 -25 558 -25 c 0
 284 -25 53 197 53 535 c 0
 53 858 304 1270 814 1270 c 0
 946 1270 1064 1222 1148 1149 c 1
 1065 817 l 1
 981 831 l 1
 973 1050 l 1
 937 1109 867 1174 738 1174 c 0
 498 1174 276 950 276 575 c 0
 276 268 451 106 662 106 c 0
EndSplineSet
Colour: ffffff
EndChar

StartChar: D
Encoding: 36 68 24
Width: 1462
VWidth: 1691
Flags: HMW
LayerCount: 3
Back
SplineSet
47 0 m 1x4c
 61 74 l 1
 233 129 l 1
 233 1103 l 1
 61 1133 l 1
 70 1209 l 1x6c
 267 1240 438 1258 583 1258 c 0
 1145 1258 1304 961 1304 653 c 0
 1304 311 1053 0 541 0 c 2x9c
 47 0 l 1x4c
424 104 m 1x9c
 569 104 l 2
 924 104 1093 331 1093 598 c 0
 1093 905 914 1155 546 1155 c 0
 506 1155 464 1155 424 1151 c 1
 424 104 l 1x9c
EndSplineSet
Fore
SplineSet
601 1149 m 5
 436 104 l 5
 583 104 l 6
 956 104 1191 359 1191 674 c 4
 1191 946 1042 1156 722 1156 c 4
 681 1156 642 1154 601 1149 c 5
1416 758 m 4
 1416 375 1066 0 524 0 c 6
 43 0 l 5
 68 74 l 5
 250 129 l 5
 402 1103 l 5
 235 1133 l 5
 256 1209 l 5
 457 1240 631 1258 776 1258 c 4
 1257 1258 1416 1018 1416 758 c 4
EndSplineSet
Colour: ffffff
EndChar

StartChar: E
Encoding: 37 69 25
Width: 1259
VWidth: 1691
Flags: HMW
LayerCount: 3
Back
SplineSet
50 1168 m 1x6f
 61 1244 l 1
 1056 1244 l 1x6f
 1025 924 l 1
 938 937 l 1
 897 1152 l 1
 426 1152 l 1
 426 676 l 1
 716 676 l 1
 758 796 l 1
 853 810 l 1
 819 421 l 1
 734 408 l 1
 700 583 l 1
 426 583 l 1
 426 96 l 1
 921 96 l 1xb7
 1019 326 l 1
 1102 313 l 1
 1072 0 l 1
 57 0 l 1
 65 74 l 1
 232 121 l 1
 232 1126 l 1
 50 1168 l 1x6f
EndSplineSet
Fore
SplineSet
242 1244 m 5
 1217 1244 l 5
 1148 925 l 5
 1064 938 l 5
 1044 1153 l 5
 592 1153 l 5
 519 677 l 5
 810 677 l 5
 861 796 l 5
 957 809 l 5
 874 421 l 5
 787 408 l 5
 780 583 l 5
 504 583 l 5
 427 96 l 5
 934 96 l 5
 1047 325 l 5
 1130 314 l 5
 1069 0 l 5
 43 0 l 5
 63 74 l 5
 238 121 l 5
 397 1126 l 5
 220 1168 l 5
 242 1244 l 5
EndSplineSet
Colour: ffffff
EndChar

StartChar: F
Encoding: 38 70 26
Width: 1116
VWidth: 1691
Flags: HMW
LayerCount: 3
Back
SplineSet
50 1168 m 1xde
 61 1244 l 1
 1054 1244 l 1xde
 1013 922 l 1
 925 936 l 1
 891 1152 l 1
 426 1152 l 1xee
 426 670 l 1
 713 670 l 1
 755 790 l 1
 845 804 l 1
 818 412 l 1
 730 398 l 1
 700 578 l 1
 426 578 l 1
 423 122 l 1
 661 83 l 1
 648 0 l 1
 57 0 l 1
 65 74 l 1
 232 121 l 1
 232 1126 l 1
 50 1168 l 1xde
EndSplineSet
Fore
SplineSet
242 1244 m 1
 1236 1244 l 1
 1167 923 l 1
 1081 936 l 1
 1057 1153 l 1
 592 1153 l 1
 517 670 l 1
 805 670 l 1
 856 791 l 1
 947 804 l 1
 872 413 l 5
 781 398 l 5
 777 578 l 1
 502 578 l 1
 430 122 l 1
 661 84 l 1
 635 0 l 1
 43 0 l 1
 63 74 l 1
 238 121 l 1
 397 1126 l 1
 220 1168 l 1
 242 1244 l 1
EndSplineSet
Colour: ffffff
EndChar

StartChar: G
Encoding: 39 71 27
Width: 1319
VWidth: 1691
Flags: HMW
LayerCount: 3
Back
SplineSet
61 578 m 0xf8
 61 1007 385 1260 717 1260 c 0
 894 1260 1040 1222 1139 1163 c 1xf8
 1115 841 l 1
 1028 856 l 1xf4
 992 1047 l 1
 946 1093 824 1161 667 1161 c 0
 470 1161 276 1013 276 647 c 0
 276 350 454 77 771 77 c 0
 851 77 915 103 943 119 c 1
 943 434 l 1
 707 472 l 1
 719 555 l 1
 1275 555 l 1
 1263 480 l 1
 1139 439 l 1
 1139 79 l 1
 1007 0 858 -31 658 -31 c 0
 256 -31 61 237 61 578 c 0xf8
EndSplineSet
Fore
SplineSet
1236 1163 m 1
 1160 841 l 1
 1074 855 l 1
 1069 1047 l 1
 1034 1100 941 1161 759 1161 c 0
 527 1161 281 1004 281 559 c 0
 281 298 407 76 686 76 c 0
 790 76 848 99 876 122 c 1
 924 434 l 1
 694 472 l 1
 719 555 l 1
 1276 555 l 1
 1252 481 l 1
 1120 439 l 1
 1066 88 l 1
 954 15 770 -31 549 -31 c 0
 201 -31 53 213 53 489 c 0
 53 980 456 1260 825 1260 c 0
 1018 1260 1145 1229 1236 1163 c 1
EndSplineSet
Colour: ffffff
EndChar

StartChar: H
Encoding: 40 72 28
Width: 1650
VWidth: 1691
Flags: HMW
LayerCount: 3
Back
SplineSet
50 1168 m 1
 61 1244 l 1
 605 1244 l 1
 595 1168 l 1
 427 1130 l 1
 427 692 l 1
 1054 692 l 1
 1054 1126 l 1
 871 1168 l 1
 882 1244 l 1
 1428 1244 l 1
 1416 1168 l 1
 1249 1130 l 1
 1249 114 l 1
 1431 80 l 1
 1421 0 l 1
 878 0 l 1
 888 74 l 1
 1054 121 l 1
 1054 589 l 1
 427 589 l 1
 427 114 l 1
 611 80 l 1
 598 0 l 1
 57 0 l 1
 65 74 l 1
 232 121 l 1
 232 1126 l 1
 50 1168 l 1
EndSplineSet
Fore
SplineSet
585 0 m 5
 43 0 l 5
 63 74 l 5
 238 121 l 5
 397 1126 l 5
 220 1168 l 5
 242 1244 l 5
 787 1244 l 5
 765 1168 l 5
 592 1130 l 5
 522 692 l 5
 1150 692 l 5
 1219 1126 l 5
 1041 1168 l 5
 1064 1244 l 5
 1609 1244 l 5
 1586 1168 l 5
 1414 1130 l 5
 1254 114 l 5
 1431 81 l 5
 1407 0 l 5
 864 0 l 5
 887 74 l 5
 1061 121 l 5
 1135 590 l 5
 506 590 l 5
 431 114 l 5
 611 81 l 5
 585 0 l 5
EndSplineSet
Colour: ffffff
EndChar

StartChar: I
Encoding: 41 73 29
Width: 828
VWidth: 1691
Flags: HMW
LayerCount: 3
Back
SplineSet
50 1168 m 1
 61 1244 l 1
 605 1244 l 5
 595 1168 l 1
 426 1130 l 1
 426 114 l 1
 607 80 l 1
 597 0 l 1
 57 0 l 1
 65 74 l 1
 232 121 l 1
 232 1126 l 1
 50 1168 l 1
EndSplineSet
Fore
SplineSet
583 0 m 1
 43 0 l 1
 63 74 l 1
 238 121 l 1
 397 1126 l 1
 220 1168 l 1
 242 1244 l 1
 787 1244 l 5
 765 1168 l 1
 590 1130 l 1
 430 114 l 1
 607 81 l 1
 583 0 l 1
EndSplineSet
Colour: ffffff
EndChar

StartChar: J
Encoding: 42 74 30
Width: 927
VWidth: 1691
Flags: HMW
LayerCount: 3
Back
SplineSet
-4 -237 m 1
 151 -90 232 37 232 197 c 2
 233 1126 l 1
 52 1168 l 1
 62 1244 l 1
 607 1244 l 1
 597 1168 l 1
 427 1130 l 1
 426 385 l 2
 425 -24 337 -138 50 -326 c 1
 -4 -237 l 1
EndSplineSet
Fore
SplineSet
84 -325 m 1
 67 -302 50 -269 42 -238 c 1
 220 -91 321 37 346 197 c 2
 495 1126 l 1
 320 1168 l 1
 340 1244 l 1
 885 1244 l 1
 865 1168 l 1
 690 1130 l 1
 562 318 l 2
 506 -37 401 -137 84 -325 c 1
EndSplineSet
Colour: ffffff
EndChar

StartChar: K
Encoding: 43 75 31
Width: 1387
VWidth: 1691
Flags: HMW
LayerCount: 3
Back
SplineSet
47 1168 m 1x70
 61 1244 l 1
 611 1244 l 1
 601 1168 l 1
 429 1121 l 1
 429 124 l 1
 618 80 l 1
 607 0 l 1
 54 0 l 1
 64 74 l 1
 236 129 l 1
 236 1117 l 1
 47 1168 l 1x70
453 626 m 1
 481 654 574 758 605 798 c 2
 851 1121 l 1
 696 1168 l 1
 704 1244 l 1
 1197 1244 l 1
 1185 1168 l 1
 1008 1121 l 1
 635 653 l 1
 862 385 l 2
 1013 206 1085 123 1213 83 c 2
 1250 70 l 1
 1240 1 l 1
 1194 -15 1149 -21 1109 -21 c 0xb0
 942 -21 820 104 706 261 c 2
 454 605 l 1
 453 626 l 1
EndSplineSet
Fore
SplineSet
747 261 m 2
 612 509 l 1
 612 509 568 579 543 604 c 1
 547 629 l 1
 583 654 635 696 675 737 c 2
 1030 1121 l 1
 874 1168 l 1
 894 1244 l 1
 1391 1244 l 1
 1368 1168 l 1
 1185 1121 l 1
 731 644 l 1
 914 378 l 2
 1035 202 1105 123 1226 83 c 2
 1261 71 l 1
 1239 2 l 1
 1191 -15 1147 -21 1106 -21 c 0
 939 -21 835 102 747 261 c 2
440 124 m 1
 622 81 l 1
 597 0 l 1
 44 0 l 1
 65 74 l 1
 247 129 l 1
 402 1118 l 1
 220 1168 l 1
 245 1244 l 1
 795 1244 l 1
 774 1168 l 1
 595 1121 l 1
 440 124 l 1
EndSplineSet
Colour: ffffff
EndChar

StartChar: L
Encoding: 44 76 32
Width: 1149
VWidth: 1691
Flags: HMW
LayerCount: 3
Back
SplineSet
58 0 m 5x70
 67 74 l 5x70
 233 121 l 5
 233 1117 l 5
 45 1168 l 5
 58 1244 l 5
 608 1244 l 5
 598 1168 l 5
 427 1121 l 5
 427 96 l 5
 869 96 l 5xb0
 1000 344 l 5
 1085 331 l 5
 1048 0 l 5
 58 0 l 5x70
EndSplineSet
Fore
SplineSet
788 1244 m 5
 766 1168 l 5
 588 1121 l 5
 426 96 l 5
 879 96 l 5
 1017 344 l 5
 1101 330 l 5
 1042 0 l 5
 43 0 l 5
 63 74 l 5
 238 121 l 5
 395 1118 l 5
 213 1168 l 5
 238 1244 l 5
 788 1244 l 5
EndSplineSet
Colour: ffffff
EndChar

StartChar: M
Encoding: 45 77 33
Width: 1832
VWidth: 1691
Flags: HMW
LayerCount: 3
Back
SplineSet
24 0 m 1
 35 74 l 1
 202 121 l 1
 275 1126 l 1
 92 1168 l 1
 102 1244 l 1
 505 1244 l 1
 583 1050 l 1
 845 313 l 1
 1152 1083 l 1
 1223 1244 l 1
 1618 1244 l 1
 1608 1168 l 1
 1440 1130 l 1
 1492 114 l 1
 1674 80 l 1
 1664 0 l 1
 1128 0 l 1
 1139 74 l 1
 1305 121 l 1
 1249 1004 l 1
 868 50 l 1
 740 31 l 1
 397 967 l 1
 334 114 l 1
 517 80 l 1
 504 0 l 1
 24 0 l 1
EndSplineSet
Fore
SplineSet
766 31 m 1
 528 966 l 1
 370 114 l 1
 550 81 l 1
 523 0 l 1
 43 0 l 1
 66 74 l 1
 241 121 l 1
 432 1126 l 1
 254 1168 l 1
 277 1244 l 1
 670 1244 l 1
 726 1050 l 1
 901 310 l 1
 1292 1083 l 1
 1391 1244 l 1
 1791 1244 l 1
 1770 1168 l 1
 1596 1130 l 1
 1529 114 l 1
 1706 81 l 1
 1682 0 l 1
 1147 0 l 1
 1171 74 l 1
 1344 121 l 1
 1385 1004 l 1
 893 51 l 1
 766 31 l 1
EndSplineSet
Colour: ffffff
EndChar

StartChar: N
Encoding: 46 78 34
Width: 1580
VWidth: 1691
Flags: HMW
LayerCount: 3
Back
SplineSet
50 1168 m 1
 61 1244 l 1
 411 1244 l 1
 1054 274 l 1
 1054 1126 l 1
 869 1168 l 1
 881 1244 l 1
 1356 1244 l 1
 1343 1168 l 1
 1176 1130 l 1
 1176 1 l 1
 1023 -30 l 1
 360 961 l 1
 360 114 l 1
 543 80 l 1
 532 0 l 1
 57 0 l 1
 65 74 l 1
 232 121 l 1
 232 1117 l 1
 50 1168 l 1
EndSplineSet
Fore
SplineSet
1004 -30 m 5
 499 961 l 5
 365 114 l 5
 543 81 l 5
 520 0 l 5
 44 0 l 5
 64 74 l 5
 239 121 l 5
 396 1118 l 5
 221 1168 l 5
 243 1244 l 5
 591 1244 l 5
 1085 262 l 5
 1220 1126 l 5
 1040 1168 l 5
 1063 1244 l 5
 1539 1244 l 5
 1514 1168 l 5
 1342 1130 l 5
 1164 2 l 5
 1004 -30 l 5
EndSplineSet
Colour: ffffff
EndChar

StartChar: O
Encoding: 47 79 35
Width: 1344
VWidth: 1691
Flags: HMW
LayerCount: 3
Back
SplineSet
61 619 m 0
 61 1004 308 1272 706 1272 c 0
 1068 1272 1284 970 1284 619 c 0
 1284 274 1051 -27 636 -27 c 0
 291 -27 61 257 61 619 c 0
283 676 m 0
 283 382 398 79 686 79 c 0
 990 79 1062 330 1062 573 c 0
 1062 856 945 1176 658 1176 c 0
 358 1176 283 937 283 676 c 0
EndSplineSet
Fore
SplineSet
737 1176 m 0
 321 1176 283 800 283 547 c 0
 283 314 386 79 614 79 c 0
 1025 79 1073 467 1073 693 c 0
 1073 924 967 1176 737 1176 c 0
1297 725 m 0
 1297 327 1039 -26 568 -26 c 0
 211 -26 54 214 54 515 c 0
 54 958 328 1273 782 1273 c 0
 1131 1273 1297 1016 1297 725 c 0
EndSplineSet
Colour: ffffff
EndChar

StartChar: P
Encoding: 48 80 36
Width: 1227
VWidth: 1691
Flags: HMW
LayerCount: 3
Back
SplineSet
50 0 m 1
 61 74 l 1
 228 121 l 1
 228 1104 l 1
 57 1134 l 1
 67 1211 l 1
 196 1230 372 1255 543 1255 c 0
 804 1255 1045 1184 1045 892 c 0
 1045 655 827 494 584 494 c 0
 548 494 515 496 484 497 c 1
 466 580 l 1
 519 581 l 2
 734 587 838 678 838 856 c 0
 838 1027 750 1172 522 1172 c 0
 482 1172 420 1166 420 1166 c 1
 420 122 l 1
 657 83 l 1
 643 0 l 1
 50 0 l 1
EndSplineSet
Fore
SplineSet
1184 926 m 0
 1184 650 939 490 671 490 c 0
 635 490 597 494 557 499 c 1
 550 581 l 1
 603 581 l 2
 856 581 970 694 970 907 c 0
 970 1058 889 1173 704 1173 c 0
 663 1173 596 1168 596 1168 c 1
 433 122 l 1
 662 84 l 1
 636 0 l 1
 43 0 l 1
 65 74 l 1
 241 121 l 1
 395 1105 l 1
 230 1135 l 1
 251 1211 l 1
 383 1231 565 1255 735 1255 c 0
 970 1255 1184 1170 1184 926 c 0
EndSplineSet
Colour: ffffff
EndChar

StartChar: Q
Encoding: 49 81 37
Width: 1362
VWidth: 1691
Flags: HMW
LayerCount: 3
Back
SplineSet
61 608 m 0
 61 994 325 1272 721 1272 c 0
 1078 1272 1299 980 1299 629 c 0
 1299 335 1122 68 818 -6 c 1
 877 -141 963 -228 1250 -275 c 1
 1250 -299 1247 -333 1241 -351 c 1
 1179 -381 1121 -385 1065 -385 c 0
 884 -385 721 -249 703 -21 c 1
 693 -24 653 -27 638 -27 c 0
 293 -27 61 246 61 608 c 0
263 679 m 0
 263 439 369 88 749 67 c 1
 1019 134 1092 336 1092 563 c 0
 1092 857 928 1168 664 1168 c 0
 413 1168 263 989 263 679 c 0
EndSplineSet
Fore
SplineSet
754 1168 m 4
 453 1168 267 924 267 560 c 4
 267 345 360 86 666 68 c 5
 1051 162 1099 462 1099 680 c 4
 1099 928 977 1168 754 1168 c 4
605 -21 m 5
 595 -24 566 -26 551 -26 c 4
 250 -26 54 214 54 515 c 4
 54 964 349 1273 797 1273 c 4
 1141 1273 1315 1008 1315 723 c 4
 1315 376 1084 77 724 -7 c 5
 760 -142 835 -228 1116 -276 c 5
 1111 -301 1102 -332 1092 -350 c 5
 1024 -380 965 -385 909 -385 c 4
 727 -385 587 -249 605 -21 c 5
EndSplineSet
Colour: ffffff
EndChar

StartChar: R
Encoding: 50 82 38
Width: 1296
VWidth: 1691
Flags: HMW
LayerCount: 3
Back
SplineSet
50 0 m 1x66
 61 74 l 1
 228 121 l 1
 228 1100 l 1
 57 1130 l 1
 67 1207 l 1x76
 214 1230 375 1253 523 1253 c 0
 820 1253 1025 1176 1025 943 c 0
 1025 814 926 666 738 599 c 1
 738 598 l 1
 918 349 l 2
 1035 187 1087 114 1211 77 c 2
 1244 67 l 1
 1229 -1 l 1
 1186 -16 1146 -21 1109 -21 c 0xae
 950 -21 840 98 753 253 c 2
 594 537 l 1
 420 537 l 1
 420 126 l 1
 608 83 l 1
 598 0 l 1
 50 0 l 1x66
420 628 m 1
 618 628 l 1
 717 661 818 745 818 887 c 0
 818 1051 717 1169 540 1169 c 0x2e
 470 1169 420 1164 420 1164 c 1
 420 628 l 1
EndSplineSet
Fore
SplineSet
1160 978 m 0
 1160 823 1048 675 827 599 c 1
 829 598 l 1
 967 348 l 2
 1059 186 1101 118 1218 78 c 2
 1248 68 l 1
 1223 -2 l 1
 1178 -17 1137 -21 1099 -21 c 0
 940 -21 851 98 787 253 c 2
 672 537 l 1
 498 537 l 1
 436 126 l 1
 616 83 l 1
 592 0 l 1
 44 0 l 1
 66 74 l 1
 242 121 l 1
 396 1102 l 1
 229 1131 l 1
 252 1207 l 1
 402 1230 567 1253 716 1253 c 0
 984 1253 1160 1174 1160 978 c 0
677 628 m 2
 811 628 956 766 956 943 c 0
 956 1086 871 1169 719 1169 c 0
 648 1169 597 1164 597 1164 c 1
 511 628 l 1
 677 628 l 2
EndSplineSet
Colour: ffffff
EndChar

StartChar: S
Encoding: 51 83 39
Width: 944
VWidth: 1691
Flags: HMW
LayerCount: 3
Back
SplineSet
66 122 m 5xd4
 79 389 l 5
 181 375 l 5
 220 187 l 5
 256 130 333 77 426 77 c 4
 531 77 663 139 663 287 c 4xe4
 663 547 90 544 90 916 c 4
 90 1143 282 1269 479 1269 c 4
 587 1269 682 1235 761 1169 c 5
 761 1161 739 887 739 887 c 5
 640 899 l 5xd8
 615 1090 l 5
 597 1126 525 1185 445 1185 c 4
 345 1185 263 1126 263 995 c 4
 263 708 847 730 847 354 c 4
 847 124 630 -24 402 -24 c 4
 258 -24 130 43 66 122 c 5xd4
EndSplineSet
Fore
SplineSet
835 887 m 1
 738 898 l 1
 741 1090 l 1
 734 1118 671 1184 587 1184 c 0
 473 1184 374 1120 374 968 c 0
 374 736 865 708 865 380 c 0
 865 127 606 -25 355 -25 c 0
 211 -25 83 41 42 122 c 1
 99 390 l 1
 198 375 l 1
 204 187 l 1
 232 123 297 78 394 78 c 0
 510 78 668 149 668 312 c 0
 668 524 189 556 189 880 c 0
 189 1134 417 1270 635 1270 c 0
 723 1270 835 1247 901 1169 c 1
 899 1161 835 887 835 887 c 1
EndSplineSet
Colour: ffffff
EndChar

StartChar: T
Encoding: 52 84 40
Width: 1242
VWidth: 1691
Flags: HMW
LayerCount: 3
Back
SplineSet
23 1244 m 1
 1134 1244 l 1
 1100 906 l 1
 1005 921 l 1
 967 1152 l 1
 662 1152 l 1
 662 114 l 1
 847 80 l 1
 833 0 l 1
 294 0 l 1
 301 74 l 1
 470 121 l 1
 470 1152 l 1
 175 1152 l 1
 122 909 l 1
 31 922 l 1
 23 1244 l 1
EndSplineSet
Fore
SplineSet
88 1244 m 5
 1199 1244 l 5
 1113 907 l 5
 1021 922 l 5
 1018 1153 l 5
 714 1153 l 5
 550 114 l 5
 729 81 l 5
 702 0 l 5
 162 0 l 5
 184 74 l 5
 360 121 l 5
 522 1153 l 5
 227 1153 l 5
 136 910 l 5
 46 923 l 5
 88 1244 l 5
EndSplineSet
Colour: ffffff
EndChar

StartChar: U
Encoding: 53 85 41
Width: 1458
VWidth: 1691
Flags: HMW
LayerCount: 3
Back
SplineSet
22 1168 m 1
 35 1244 l 1
 577 1244 l 1
 568 1168 l 1
 399 1130 l 1
 399 510 l 2
 399 225 542 105 747 105 c 0
 949 105 1071 221 1072 482 c 2
 1075 1126 l 1
 892 1168 l 1
 902 1244 l 1
 1380 1244 l 1
 1369 1168 l 1
 1203 1130 l 1
 1198 515 l 2
 1195 155 1044 -27 697 -27 c 0
 466 -27 206 48 206 469 c 2
 206 1126 l 1
 22 1168 l 1
EndSplineSet
Fore
SplineSet
603 92 m 0
 904 92 965 326 990 481 c 2
 1092 1126 l 1
 917 1168 l 1
 937 1244 l 1
 1416 1244 l 1
 1394 1168 l 1
 1221 1130 l 1
 1117 499 l 2
 1053 114 824 -26 517 -26 c 0
 329 -26 57 48 123 469 c 2
 227 1126 l 1
 47 1168 l 1
 70 1244 l 1
 611 1244 l 1
 592 1168 l 1
 417 1130 l 1
 317 494 l 2
 272 208 398 92 603 92 c 0
EndSplineSet
Colour: ffffff
EndChar

StartChar: V
Encoding: 54 86 42
Width: 1384
VWidth: 1691
Flags: HMW
LayerCount: 3
Back
SplineSet
-21 1168 m 1
 -11 1244 l 1
 527 1244 l 1
 517 1168 l 1
 347 1130 l 1
 660 251 l 1
 980 1126 l 1
 798 1168 l 1
 805 1244 l 1
 1260 1244 l 1
 1253 1168 l 1
 1121 1130 l 1
 696 4 l 1
 544 -24 l 1
 126 1126 l 1
 -21 1168 l 1
EndSplineSet
Fore
SplineSet
508 -25 m 1
 188 1126 l 1
 49 1168 l 1
 70 1244 l 1
 597 1244 l 1
 576 1168 l 1
 402 1130 l 1
 640 240 l 1
 1043 1126 l 1
 866 1168 l 1
 886 1244 l 1
 1342 1244 l 1
 1322 1168 l 1
 1187 1130 l 1
 663 5 l 1
 508 -25 l 1
EndSplineSet
Colour: ffffff
EndChar

StartChar: W
Encoding: 55 87 43
Width: 1910
VWidth: 1691
Flags: HMW
LayerCount: 3
Back
SplineSet
-11 1168 m 1
 -2 1244 l 1
 512 1244 l 1
 497 1168 l 1
 330 1130 l 1
 572 271 l 1
 853 1194 l 1
 1029 1219 l 1
 1277 287 l 1
 1538 1126 l 1
 1357 1168 l 1
 1368 1244 l 1
 1817 1244 l 1
 1806 1168 l 1
 1683 1130 l 1
 1318 4 l 1
 1164 -24 l 1
 902 951 l 1
 617 4 l 1
 454 -24 l 1
 129 1126 l 1
 -11 1168 l 1
EndSplineSet
Fore
SplineSet
1076 -25 m 1
 928 951 l 1
 533 5 l 1
 368 -25 l 1
 181 1126 l 1
 49 1168 l 1
 68 1244 l 1
 582 1244 l 1
 557 1168 l 1
 384 1130 l 1
 511 252 l 1
 905 1194 l 1
 1086 1219 l 1
 1228 269 l 1
 1571 1126 l 1
 1396 1168 l 1
 1419 1244 l 1
 1868 1244 l 1
 1845 1168 l 1
 1718 1130 l 1
 1235 5 l 1
 1076 -25 l 1
EndSplineSet
Colour: ffffff
EndChar

StartChar: X
Encoding: 56 88 44
Width: 1460
VWidth: 1691
Flags: HMW
LayerCount: 3
Back
SplineSet
-1 0 m 1
 11 76 l 1
 138 121 l 1
 504 615 l 1
 165 1123 l 1
 28 1166 l 1
 40 1244 l 1
 553 1244 l 1
 543 1166 l 1
 386 1121 l 1
 633 750 l 1
 904 1126 l 1
 734 1166 l 1
 747 1244 l 1
 1182 1244 l 1
 1174 1168 l 1
 1047 1130 l 1
 709 657 l 1
 1050 114 l 1
 1185 80 l 1
 1172 0 l 1
 669 0 l 1
 682 74 l 1
 842 121 l 1
 580 529 l 1
 288 117 l 1
 454 83 l 1
 439 0 l 1
 -1 0 l 1
EndSplineSet
Fore
SplineSet
851 637 m 1
 1109 114 l 1
 1243 81 l 1
 1217 0 l 1
 703 0 l 1
 728 74 l 1
 903 121 l 1
 690 536 l 1
 343 114 l 1
 520 81 l 1
 497 0 l 1
 44 0 l 1
 69 74 l 1
 198 121 l 1
 639 627 l 1
 381 1118 l 1
 256 1168 l 1
 279 1244 l 1
 806 1244 l 1
 782 1168 l 1
 604 1121 l 1
 796 725 l 1
 1124 1126 l 1
 943 1168 l 1
 966 1244 l 1
 1418 1244 l 1
 1398 1168 l 1
 1266 1130 l 1
 851 637 l 1
EndSplineSet
Colour: ffffff
EndChar

StartChar: Y
Encoding: 57 89 45
Width: 1225
VWidth: 1691
Flags: HMW
LayerCount: 3
Back
SplineSet
-21 1168 m 1
 -8 1244 l 1
 500 1244 l 1
 488 1168 l 1
 330 1130 l 1
 607 640 l 1
 871 1126 l 1
 688 1168 l 1
 698 1244 l 1
 1143 1244 l 1
 1133 1168 l 1
 1008 1130 l 1
 663 529 l 1
 663 114 l 1
 826 80 l 1
 816 0 l 1
 310 0 l 1
 320 74 l 1
 470 121 l 1
 470 504 l 1
 117 1126 l 1
 -21 1168 l 1
EndSplineSet
Fore
SplineSet
632 528 m 1
 567 114 l 1
 726 81 l 1
 703 0 l 1
 196 0 l 1
 217 74 l 1
 376 121 l 1
 437 505 l 1
 179 1126 l 1
 49 1168 l 1
 73 1244 l 1
 580 1244 l 1
 557 1168 l 1
 394 1130 l 1
 594 641 l 1
 894 1126 l 1
 717 1168 l 1
 739 1244 l 1
 1183 1244 l 1
 1161 1168 l 1
 1033 1130 l 1
 632 528 l 1
EndSplineSet
Colour: ffffff
EndChar

StartChar: Z
Encoding: 58 90 46
Width: 1223
VWidth: 1691
Flags: HMW
LayerCount: 3
Back
SplineSet
47 104 m 1
 792 1149 l 1
 255 1149 l 1
 178 903 l 1
 88 921 l 1
 98 1244 l 1
 1026 1244 l 1
 1026 1168 l 1
 262 100 l 1
 832 100 l 1
 955 351 l 1
 1048 335 l 1
 991 0 l 1
 55 0 l 1
 47 104 l 1
EndSplineSet
Fore
SplineSet
263 1244 m 1
 1181 1244 l 1
 1170 1168 l 1
 268 101 l 1
 858 101 l 1
 990 350 l 1
 1081 335 l 1
 1002 0 l 1
 45 0 l 1
 54 104 l 1
 923 1149 l 1
 407 1149 l 1
 309 903 l 1
 222 922 l 1
 263 1244 l 1
EndSplineSet
Colour: ffffff
EndChar

StartChar: bracketleft
Encoding: 59 91 47
Width: 615
VWidth: 0
Flags: HMW
LayerCount: 3
Back
SplineSet
109 -376 m 1xd0
 109 1255 l 1xe0
 463 1255 l 1
 474 1166 l 1
 260 1146 l 1
 260 -260 l 1xd0
 476 -279 l 1
 466 -375 l 1xe0
 109 -376 l 1xd0
EndSplineSet
Fore
Refer: 49 93 N -1 0 0.316769 1 477 0 2
Colour: ffffff
EndChar

StartChar: backslash
Encoding: 60 92 48
Width: 433
VWidth: 0
Flags: HMW
LayerCount: 3
Back
SplineSet
37 1274 m 1
 171 1266 l 1
 632 -376 l 1
 504 -368 l 1
 37 1274 l 1
EndSplineSet
Fore
SplineSet
179 1235 m 1
 389 -363 l 1
 261 -355 l 1
 48 1244 l 1
 179 1235 l 1
EndSplineSet
Colour: ffffff
EndChar

StartChar: bracketright
Encoding: 61 93 49
Width: 616
VWidth: 0
Flags: HMW
LayerCount: 3
Back
SplineSet
0 -279 m 1xe0
 217 -260 l 1
 217 1146 l 1
 1 1166 l 1
 13 1255 l 1
 366 1255 l 1
 368 -376 l 1xd0
 10 -375 l 1
 0 -279 l 1xe0
EndSplineSet
Fore
SplineSet
41 -375 m 1
 46 -279 l 1
 191 -259 l 1
 414 1146 l 1
 277 1166 l 1
 302 1255 l 1
 573 1255 l 1
 317 -377 l 1
 41 -375 l 1
EndSplineSet
Colour: ffffff
EndChar

StartChar: asciicircum
Encoding: 62 94 50
Width: 746
VWidth: 0
Flags: HMW
LayerCount: 3
Back
SplineSet
42 826 m 1
 331 1237 l 1
 386 1250 l 1
 681 824 l 1
 624 787 l 1
 353 1073 l 1
 343 1073 l 1
 92 793 l 1
 42 826 l 1
EndSplineSet
Fore
SplineSet
467 1250 m 1
 695 824 l 1
 634 788 l 1
 406 1073 l 1
 396 1073 l 1
 100 793 l 1
 56 826 l 1
 411 1237 l 1
 467 1250 l 1
EndSplineSet
Colour: ffffff
EndChar

StartChar: underscore
Encoding: 63 95 51
Width: 970
VWidth: 0
Flags: HMW
LayerCount: 3
Back
SplineSet
-1 -132 m 1
 11 -27 l 1
 839 -27 l 1
 828 -132 l 1
 -1 -132 l 1
EndSplineSet
Fore
SplineSet
63 -132 m 1
 75 -27 l 1
 903 -27 l 1
 892 -132 l 1
 63 -132 l 1
EndSplineSet
Colour: ffffff
EndChar

StartChar: grave
Encoding: 64 96 52
Width: 406
VWidth: 0
Flags: HMW
LayerCount: 3
Back
SplineSet
122 1659 m 1
 237 1697 l 1
 369 1364 l 1
 313 1329 l 1
 122 1659 l 1
EndSplineSet
Fore
SplineSet
79 1659 m 1
 194 1697 l 1
 326 1364 l 1
 270 1329 l 1
 79 1659 l 1
EndSplineSet
Colour: ffffff
EndChar

StartChar: a
Encoding: 65 97 53
Width: 807
VWidth: 0
Flags: HMW
LayerCount: 3
Fore
SplineSet
691 96 m 14
 767 84 l 22
 749 15 l 5
 714 2 658 -17 598 -17 c 31
 505 -17 449 44 473 132 c 5
 461 132 l 5
 415 49 326 -21 225 -21 c 7
 103 -21 24 91 24 274 c 4
 24 667 313 885 534 885 c 7
 611 885 700 876 735 832 c 5
 663 378 l 6
 628 153 632 105 691 96 c 14
564 746 m 5
 536 772 491 781 445 781 c 7
 285 781 185 533 185 320 c 4
 185 171 227 106 306 106 c 7
 382 106 432 150 478 201 c 5
 564 746 l 5
EndSplineSet
Colour: ffffff
EndChar

StartChar: b
Encoding: 66 98 54
Width: 843
VWidth: 0
Flags: HMW
LayerCount: 3
Back
SplineSet
376 1063 m 2
 337 842 l 1
 309 722 l 1
 321 722 l 1
 373 813 483 890 574 890 c 3
 742 890 818 731 818 544 c 0
 818 260 606 -23 290 -23 c 3
 217 -23 114 -1 58 50 c 9
 218 1059 l 18
 233 1152 161 1145 87 1143 c 9
 96 1223 l 17
 139 1244 189 1256 249 1256 c 0
 381 1256 395 1187 376 1063 c 2
489 748 m 3
 405 748 358 702 312 646 c 9
 228 155 l 17
 253 112 315 84 377 84 c 0
 539 84 651 289 651 483 c 0
 651 613 609 748 489 748 c 3
143 1191 m 5
 7 1219 l 5
 18 1292 l 5
 297 1315 l 5
 312 1294 l 5
81.9551 1222.93 m 17
 125.391 1244.39 174.987 1256 235 1256 c 0
 366.961 1256 380.091 1187.13 361.955 1062.93 c 2
 253 378 l 2
 238 283 230.292 216.325 230.292 172.353 c 0
 230.292 94.9935 288 94.051 357 96 c 1
 349 15 l 1
 320 0 264.026 -17 208 -17 c 3
 75.7025 -17 47 48 70 194 c 2
 203.955 1058.93 l 2
 219.22 1151.78 146.853 1144.89 72.9551 1142.93 c 9
 81.9551 1222.93 l 17
EndSplineSet
Fore
SplineSet
387 1124.1 m 6
 337 842 l 1
 309 722 l 1
 321 722 l 1
 373 813 483 890 574 890 c 3
 742 890 818 731 818 544 c 0
 818 260 606 -23 290 -23 c 3
 217 -23 114 -1 58 50 c 9
 229 1120.1 l 22
 244 1213.1 172 1206.1 98 1204.1 c 13
 107 1284.1 l 21
 150 1305.1 200 1317.1 260 1317.1 c 4
 392 1317.1 406 1248.1 387 1124.1 c 6
489 748 m 3
 405 748 358 702 312 646 c 9
 228 155 l 17
 253 112 315 84 377 84 c 0
 539 84 651 289 651 483 c 0
 651 613 609 748 489 748 c 3
EndSplineSet
Colour: ffffff
EndChar

StartChar: c
Encoding: 67 99 55
Width: 708
VWidth: 0
Flags: HMW
LayerCount: 3
Back
SplineSet
472.045 -193.934 m 6
 511 27 l 5
 539 147 l 5
 527 147 l 5
 474.621 56 364.922 -21 274 -21 c 7
 106 -21 29.665 138 29.665 325.1 c 4
 29.665 609 241.55 892 558 892 c 7
 631 892 734 870 790 819 c 13
 630.045 -189.934 l 22
 615.045 -282.934 687.147 -275.887 761.045 -273.934 c 13
 752.045 -353.934 l 21
 708.609 -375.392 659.013 -387 599 -387 c 4
 467.039 -387 453.045 -317.934 472.045 -193.934 c 6
359 121 m 7
 443.195 121 490.076 167.024 536 223 c 13
 620 714 l 21
 594.777 757.391 532.987 784.636 470.639 784.636 c 4
 308.587 784.636 196.569 579.368 196.569 385.577 c 4
 196.569 255.518 238.821 121 359 121 c 7
EndSplineSet
Fore
SplineSet
611 179 m 5
 635 118 l 5
 565 39 438 -24 327 -24 c 7
 149 -24 24 85 24 308 c 4
 24 644 275 888 514 888 c 7
 632 888 700 825 700 731 c 31
 700 668 640 633 571 627 c 5
 543 711 518 791 431 791 c 4
 261 791 197 546 197 380 c 4
 197 197 259 106 398 106 c 4
 482 106 561 148 611 179 c 5
EndSplineSet
Layer: 2
SplineSet
401 96 m 7
 502.142 96 563.071 124.154 624 157 c 5
 648 106 l 5
 577.896 32.2353 451.478 -26 340 -26 c 7
 159.521 -26 47 94.5519 47 307 c 4
 47 667.811 261.667 890 507 890 c 7
 639.476 890 715 827.972 715 736 c 31
 715 673.053 654.676 638.386 586 632 c 5
 547 744.931 527.123 791.754 420.077 791.754 c 4
 290.156 791.754 219 523.445 219 330 c 4
 219 193.336 272.882 96 401 96 c 7
EndSplineSet
Colour: ffffff
EndChar

StartChar: d
Encoding: 68 100 56
Width: 844
VWidth: 0
Flags: HMW
LayerCount: 3
Back
SplineSet
790.75 1063 m 6
 682.75 380 l 18
 643.75 131 644.75 107 698.75 97 c 10
 764.75 86 l 17
 745.75 17 l 1
 712.75 4 662.75 -15 606.75 -15 c 3
 520.75 -15 489.75 26 487.75 74 c 0
 487.75 93 490.75 112 492.75 122 c 1
 479.75 122 l 1
 433.75 44 344.75 -21 243.75 -21 c 3
 112.75 -21 23.75 76 23.75 286 c 0
 23.75 669 309.75 884 565.75 884 c 3
 583.75 884 597.75 883 606.75 881 c 1
 612.75 881 l 1
 632.75 1059 l 6
 642.75 1152 575.75 1145 501.75 1143 c 13
 510.75 1223 l 21
 553.75 1244 603.75 1256 663.75 1256 c 4
 795.75 1256 810.75 1187 790.75 1063 c 6
494.75 201 m 9
 576.75 736 l 17
 549.75 757 515.75 781 450.75 781 c 3
 296.75 781 186.75 571 186.75 337 c 0
 186.75 172 230.75 106 320.75 106 c 3
 403.75 106 453.75 145 494.75 201 c 9
512 1222.93 m 21
 555.436 1244.39 605.032 1256 665.045 1256 c 4
 797.006 1256 810.136 1187.13 792 1062.93 c 6
 683.045 378 l 2
 668.045 283 660.337 216.325 660.337 172.353 c 0
 660.337 94.9935 718.045 94.051 787.045 96 c 1
 779.045 15 l 1
 750.045 0 694.071 -17 638.045 -17 c 3
 505.747 -17 477.045 48 500.045 194 c 2
 634 1058.93 l 6
 649.265 1151.78 576.897 1144.89 503 1142.93 c 13
 512 1222.93 l 21
EndSplineSet
Fore
SplineSet
799 1124.1 m 2
 682.75 380 l 18
 644 131 644.75 107 698.75 97 c 10
 764.75 86 l 17
 745.75 17 l 1
 712.75 4 662.75 -15 606.75 -15 c 3
 520.75 -15 489.75 26 487.75 74 c 0
 487.75 93 490.75 112 492.75 122 c 1
 479.75 122 l 1
 433.75 44 344.75 -21 243.75 -21 c 3
 112.75 -21 23.75 76 23.75 286 c 0
 23.75 669 309.75 884 565.75 884 c 3
 583.75 884 597.75 883 606.75 881 c 1
 612.75 881 l 1
 641 1120.1 l 2
 651 1213.1 584 1206.1 510 1204.1 c 9
 519 1284.1 l 17
 562 1305.1 612 1317.1 672 1317.1 c 0
 804 1317.1 819 1248.1 799 1124.1 c 2
494.75 201 m 9
 576.75 736 l 17
 549.75 757 515.75 781 450.75 781 c 3
 296.75 781 186.75 571 186.75 337 c 0
 186.75 172 230.75 106 320.75 106 c 3
 403.75 106 453.75 145 494.75 201 c 9
EndSplineSet
Layer: 2
SplineSet
694 96 m 14
 770 84 l 22
 752 15 l 5
 717 2 661 -17 601 -17 c 31
 507.899 -17 452 44 476 132 c 5
 464 132 l 5
 418 49 329 -21 228 -21 c 7
 106 -21 27 91 27 274 c 4
 27 667 316 885 537 885 c 7
 614.276 885 703.328 875.918 738 832 c 5
 666 378 l 6
 631 153 635 105 694 96 c 14
567 746 m 5
 539 772 494 781 448 781 c 7
 288 781 188 533 188 320 c 4
 188 171 230 106 309 106 c 7
 385 106 435 150 481 201 c 5
 567 746 l 5
EndSplineSet
Colour: ffffff
EndChar

StartChar: e
Encoding: 69 101 57
Width: 676
VWidth: 0
Flags: HMW
LayerCount: 3
Back
SplineSet
53 428 m 0
 53 728 270 899 464 899 c 0
 609 899 731 792 731 581 c 0
 731 550 723 485 715 451 c 1
 231 445 l 1
 239 288 323 102 510 102 c 0
 582.547 102 634.143 101.457 737 157 c 1
 758 104 l 1
 679 21 561 -30 429 -30 c 0
 241 -30 53 124 53 428 c 0
233 523 m 1
 547 546 l 1
 551 562 553 599 553 615 c 0
 553 734 511 801 415 801 c 0
 335 801 243 717 233 523 c 1
EndSplineSet
Fore
SplineSet
198 449 m 1
 345 450 478 481 478 663 c 0
 478 734 444 798 386 798 c 3
 310 798 211 728 198 449 c 1
24 289 m 0
 24 614 223 890 446 890 c 3
 557 890 628 814 628 692 c 0
 628 426 393 370 189 376 c 1
 177 203 215 102 336 102 c 3
 448 102 527 152 556 177 c 1
 582 132 l 1
 537 63 408 -30 272 -30 c 27
 114 -30 24 68 24 289 c 0
EndSplineSet
Colour: ffffff
EndChar

StartChar: f
Encoding: 70 102 58
Width: 579
VWidth: 0
Flags: HMW
LayerCount: 3
Back
SplineSet
338 687 m 2
 250 86 l 18
 209 -196 -9.00001 -336 -113 -386 c 5
 -163 -307 l 5
 -14 -198 70 -70 95 99 c 10
 180 683 l 18
 195 776 123 769 49 767 c 9
 58 847 l 17
 101 868 151 880 211 880 c 0
 343 880 358 811 338 687 c 2
337 1293 m 0
 397 1293 446 1244 446 1179 c 0
 446 1115 393 1068 326 1068 c 0
 267 1068 216 1116 216 1177 c 0
 216 1237 266 1293 337 1293 c 0
EndSplineSet
Fore
SplineSet
95 99 m 2
 207 768 l 1
 58 768 l 1
 72 836 l 1
 229 872 l 1
 276.992 1162.24 465.207 1317.1 616 1317.1 c 3
 729.29 1317.1 780 1276.1 780 1204.1 c 16
 780 1168.1 751.667 1123.1 685 1101.1 c 1
 634.153 1163.1 606.755 1209.1 523 1209.1 c 3
 441.403 1209.1 412.791 1115.13 381 858 c 1
 561 858 l 1
 543 768 l 1
 368 768 l 1
 258 135 l 2
 213.799 -53.3332 187.771 -165.257 156 -204 c 1
 0 -204 l 1
 35.4235 -148.207 49.5653 -96.8788 95 99 c 2
EndSplineSet
Colour: ffff
EndChar

StartChar: g
Encoding: 71 103 59
Width: 725
VWidth: 0
Flags: HMW
LayerCount: 3
Back
SplineSet
371.209 542 m 4
 371.209 462.527 409.487 380 481.209 380 c 4
 593.439 380 642.209 533.332 642.209 661 c 4
 642.209 740.931 619.271 822 549.209 822 c 4
 434.132 822 371.209 667.387 371.209 542 c 4
473.209 169 m 6
 551.209 169 l 6
 721.209 169 817.209 101.518 817.209 -42 c 4
 817.209 -235 562.3 -386 336.209 -386 c 4
 178.196 -386 14.6253 -336.612 12.209 -191 c 5
 12.209 -81 135.287 9.33473 234.209 37 c 5
 234.209 45 l 5
 193.474 61.1367 148.209 88.3675 148.209 163 c 4
 148.209 234.571 258.209 307.097 330.209 330 c 5
 325.209 338 l 5
 286.733 354.302 219.209 443.962 219.209 530 c 4
 219.209 725.403 396.816 897 582.209 897 c 4
 648.209 897 700.542 876 739.209 834 c 5
 940.209 859 l 5
 957.209 836 l 5
 912.209 715 l 5
 896.209 715 l 5
 777.209 755 l 5
 775.209 738 l 5
 789 720 790.209 667.667 790.209 631 c 4
 790.209 438 581 278 408.209 311 c 5
 370.482 299 325.209 259.962 325.209 220 c 4
 325.209 175.12 376.209 169 473.209 169 c 6
309.209 22 m 5
 257.097 8.2676 173.209 -54 173.209 -128 c 4
 173.209 -220.012 281.227 -279 399.209 -279 c 4
 535.902 -279 648.209 -213 648.209 -116 c 4
 648.209 -18.705 603 22 439.209 22 c 6
 309.209 22 l 5
EndSplineSet
Fore
SplineSet
207.472 542 m 0
 207.472 463 245.472 380 317.472 380 c 0
 429.472 380 478.472 533 478.472 661 c 0
 478.472 741 455.472 822 385.472 822 c 0
 270.472 822 207.472 667 207.472 542 c 0
309.472 169 m 0
 490.472 161 646.472 130 646.472 -69 c 0
 646.472 -241 406.472 -375 175.472 -375 c 0
 21.4717 -375 -137.528 -325 -139.528 -177 c 1
 -139.528 -74 -23.5283 11 70.4717 37 c 1
 70.4717 45 l 1
 29.4717 61 -15.5283 88 -15.5283 163 c 0
 -15.5283 235 94.4717 307 166.472 330 c 1
 161.472 338 l 1
 123.472 354 55.4717 444 55.4717 530 c 0
 55.4717 725 233.472 897 418.472 897 c 0
 484.472 897 536.472 876 575.472 834 c 1
 776.472 859 l 1
 793.472 836 l 1
 748.472 715 l 1
 732.472 715 l 1
 613.472 755 l 1
 611.472 738 l 1
 625.472 720 626.472 668 626.472 631 c 0
 626.472 438 417.472 278 244.472 311 c 1
 206.472 299 161.472 260 161.472 220 c 0
 161.472 175 212.472 173 309.472 169 c 0
145.472 22 m 1
 93.4717 8 9.47168 -54 9.47168 -128 c 0
 9.47168 -220 117.472 -279 235.472 -279 c 0
 367.472 -279 475.472 -219 475.472 -132 c 0
 475.472 21 331.472 22 145.472 22 c 1
EndSplineSet
Colour: ffff
EndChar

StartChar: h
Encoding: 72 104 60
Width: 889
VWidth: 0
Flags: HMW
LayerCount: 3
Back
SplineSet
59 0 m 9
 221 1059 l 22
 235 1152 164 1145 90 1143 c 13
 99 1223 l 21
 142 1244 192 1256 252 1256 c 4
 384 1256 398 1187 379 1063 c 6
 343 846 l 1
 315 722 l 1
 327 722 l 1
 384 796 493 893 616 893 c 3
 754 893 814 808 780 613 c 10
 745 378 l 2
 730 283 722 216 722 172 c 0
 722 95 780 94 849 96 c 1
 841 15 l 1
 812 0 756 -17 700 -17 c 3
 568 -17 537 48 562 194 c 10
 613 525 l 18
 641 661 618 745 509 745 c 3
 412 745 356 698 317 662 c 9
 222 0 l 1
 59 0 l 9
659.663 1222.93 m 17
 703.099 1244.39 752.695 1256 812.708 1256 c 0
 944.669 1256 957.799 1187.13 939.663 1062.93 c 2
 830.708 378 l 6
 815.708 283 808 216.325 808 172.353 c 4
 808 94.9935 865.708 94.051 934.708 96 c 5
 926.708 15 l 5
 897.708 0 841.734 -17 785.708 -17 c 7
 653.411 -17 624.708 48 647.708 194 c 6
 781.663 1058.93 l 2
 796.928 1151.78 724.561 1144.89 650.663 1142.93 c 9
 659.663 1222.93 l 17
EndSplineSet
Fore
SplineSet
59 0 m 9
 228 1120.1 l 22
 242 1213.1 171 1206.1 97 1204.1 c 13
 106 1284.1 l 21
 149 1305.1 199 1317.1 259 1317.1 c 4
 391 1317.1 405 1248.1 386 1124.1 c 6
 343 846 l 1
 315 722 l 1
 327 722 l 1
 384 796 493 893 616 893 c 3
 754 893 814 808 780 613 c 10
 745 378 l 2
 730 283 722 216 722 172 c 0
 722 95 780 94 849 96 c 1
 841 15 l 1
 812 0 756 -17 700 -17 c 3
 568 -17 537 48 562 194 c 10
 613 525 l 18
 641 661 618 745 509 745 c 3
 412 745 356 698 317 662 c 9
 222 0 l 1
 59 0 l 9
EndSplineSet
Colour: ffffff
EndChar

StartChar: i
Encoding: 73 105 61
Width: 493
VWidth: 0
Flags: HMW
LayerCount: 3
Back
SplineSet
466 16 m 21
 383 -1 261 -13 191 0 c 5
 171.228 21 l 5
 246 491 l 6
 260.835 583.722 268.708 646.386 268.708 688.647 c 4
 268.708 776.138 207 776 142 775 c 5
 150 854 l 5
 179 869 234.974 886 291 886 c 7
 423.298 886 448.412 802.568 429 675 c 6
 345 123 l 5
 378 105 432 94 475 87 c 13
 466 16 l 21
EndSplineSet
Fore
SplineSet
74 853 m 21
 117 874 167 886 227 886 c 4
 359 886 372 817 354 693 c 6
 308 378 l 6
 294 281 285 216 285 172 c 4
 285 95 343 94 412 96 c 5
 404 15 l 5
 375 0 319 -17 263 -17 c 7
 131 -17 104 47 125 194 c 6
 196 689 l 6
 211 782 139 775 65 773 c 13
 74 853 l 21
345 1292 m 4
 404 1292 453 1244 453 1179 c 4
 453 1115 400 1069 334 1069 c 4
 275 1069 226 1117 226 1177 c 4
 226 1236 274 1292 345 1292 c 4
EndSplineSet
Colour: ffffff
EndChar

StartChar: j
Encoding: 74 106 62
Width: 478
VWidth: 0
Flags: HMW
LayerCount: 3
Back
SplineSet
74.1289 853 m 21
 117.565 874.459 167.161 886.067 227.174 886.067 c 4
 359.135 886.067 372.265 817.193 354.129 693 c 6
 308.129 378 l 6
 294.129 281.236 285.421 216.325 285.421 172.353 c 4
 285.421 94.9932 343.129 94.0508 412.129 96 c 5
 404.129 15 l 5
 375.129 0 319.155 -17 263.129 -17 c 7
 130.831 -17 104.105 47.4258 125.129 194 c 6
 196.129 689 l 6
 211.395 781.842 139.026 774.953 65.1289 773 c 13
 74.1289 853 l 21
345.2 1291.6 m 4
 404.537 1291.6 453.336 1243.39 453.336 1178.71 c 4
 453.336 1115 399.797 1069.11 333.697 1069.11 c 4
 275.115 1069.11 225.632 1116.58 225.632 1177.01 c 4
 225.632 1236.47 274.634 1291.6 345.2 1291.6 c 4
EndSplineSet
Fore
SplineSet
358 687 m 6
 270 86 l 22
 229 -196 11 -336 -93 -386 c 5
 -143 -307 l 5
 6 -198 90 -70 115 99 c 14
 200 683 l 22
 215 776 143 769 69 767 c 13
 78 847 l 21
 121 868 171 880 231 880 c 4
 363 880 378 811 358 687 c 6
337 1293 m 4
 397 1293 446 1244 446 1179 c 4
 446 1115 393 1068 326 1068 c 4
 267 1068 216 1116 216 1177 c 4
 216 1237 266 1293 337 1293 c 4
EndSplineSet
Colour: ffffff
EndChar

StartChar: k
Encoding: 75 107 63
Width: 801
VWidth: 0
Flags: HMW
LayerCount: 3
Back
SplineSet
326 451 m 5
 455 529 594 670 594 738 c 4
 594 783 547 790 495 777 c 13
 504 857 l 21
 539 878 579 890 627 890 c 4
 712 890 744 861 744 770 c 4
 744 649 522 497 473 466 c 5
 510 383 l 6
 600 180 670 109 773 89 c 6
 799 84 l 5
 786 6 l 5
 740 -8 700 -15 664 -15 c 4
 544 -15 481 40 382 287 c 6
 323 434 l 5
 326 451 l 5
378 1063 m 14
 221 0 l 5
 58 0 l 13
 220 1059 l 22
 234 1152 163 1145 89 1143 c 13
 98 1223 l 21
 141 1244 191 1256 251 1256 c 4
 383 1256 397 1187 378 1063 c 14
450 442 m 5
 539 499 731 694 731 748 c 4
 731 781.757 674 787 612 777 c 13
 621 857 l 21
 655.922 878.458 695.796 890.066 744.045 890.066 c 4
 827.746 890.066 859.398 866.235 859.398 790 c 4
 859.398 652 608.822 478 553 442 c 5
EndSplineSet
Fore
SplineSet
326 451 m 1
 455 529 594 670 594 738 c 0
 594 783 547 790 495 777 c 9
 504 857 l 17
 539 878 579 890 627 890 c 0
 712 890 744 861 744 770 c 0
 744 649 522 497 473 466 c 1
 510 383 l 2
 600 180 670 109 773 89 c 2
 799 84 l 1
 786 6 l 1
 740 -8 700 -15 664 -15 c 0
 544 -15 481 40 382 287 c 2
 323 434 l 1
 326 451 l 1
386 1124.1 m 14
 221 0 l 1
 58 0 l 9
 228 1120.1 l 22
 242 1213.1 171 1206.1 97 1204.1 c 13
 106 1284.1 l 21
 149 1305.1 199 1317.1 259 1317.1 c 4
 391 1317.1 405 1248.1 386 1124.1 c 14
EndSplineSet
Colour: ffffff
EndChar

StartChar: l
Encoding: 76 108 64
Width: 410
VWidth: 0
Flags: HMW
LayerCount: 3
Back
SplineSet
77.1523 1223 m 21
 120.152 1244 170.152 1256 230.152 1256 c 4
 362.152 1256 375.152 1187 357.152 1063 c 6
 248.152 378 l 6
 233.152 283 225.152 216 225.152 172 c 4
 225.152 95 283.152 94 352.152 96 c 5
 344.152 15 l 5
 315.152 0 259.152 -17 203.152 -17 c 7
 71.1523 -17 42.1523 48 65.1523 194 c 6
 199.152 1059 l 6
 214.152 1152 142.152 1145 68.1523 1143 c 13
 77.1523 1223 l 21
214.955 1222.93 m 21
 258.391 1244.39 307.987 1256 368 1256 c 4
 499.961 1256 513.091 1187.13 494.955 1062.93 c 6
 386 378 l 6
 371 283 363.292 216.325 363.292 172.353 c 4
 363.292 94.9935 421 94.051 490 96 c 5
 482 15 l 5
 453 0 397.026 -17 341 -17 c 7
 208.702 -17 180 48 203 194 c 6
 336.955 1058.93 l 6
 352.22 1151.78 279.853 1144.89 205.955 1142.93 c 13
 214.955 1222.93 l 21
EndSplineSet
Fore
SplineSet
86 1284.1 m 17
 129 1305.1 179 1317.1 239 1317.1 c 0
 371 1317.1 384 1248.1 366 1124.1 c 2
 248.152 378 l 2
 233 283 225.152 216 225.152 172 c 0
 225.152 95 283.152 94 352.152 96 c 1
 344.152 15 l 1
 315.152 0 259.152 -17 203.152 -17 c 3
 71.1523 -17 43 48 65.1523 194 c 2
 208 1120.1 l 2
 223 1213.1 151 1206.1 77 1204.1 c 9
 86 1284.1 l 17
EndSplineSet
Colour: ffffff
EndChar

StartChar: m
Encoding: 77 109 65
Width: 1402
VWidth: 0
Flags: HMW
LayerCount: 3
Back
SplineSet
867 645 m 5
 912.925 688.374 979.396 745 1093 745 c 7
 1197.01 745 1213 662 1192 525 c 14
 1140.71 197 l 22
 1115.71 51 1146.41 -14 1278.71 -14 c 7
 1334.73 -14 1390.71 3 1419.71 18 c 5
 1427.71 99 l 5
 1358.71 97.0511 1301 97.9935 1301 175.353 c 4
 1301 218.683 1308.71 284.386 1323.71 378 c 6
 1359 613 l 22
 1392.17 808 1333.83 893 1200 893 c 7
 1062.38 893 940.69 786.357 877 705 c 5
 867 645 l 5
EndSplineSet
Fore
SplineSet
801 625 m 1
 811 685 l 1
 875 775 996 893 1134 893 c 3
 1260 893 1306 809 1284 613 c 10
 1258 378 l 2
 1247 285 1235 218 1235 175 c 0
 1235 98 1293 97 1362 99 c 1
 1354 18 l 1
 1325 3 1269 -14 1213 -14 c 3
 1081 -14 1056 51 1075 197 c 10
 1117 525 l 18
 1135 662 1122 745 1027 745 c 3
 913 745 847 677 801 625 c 1
582 0 m 9
 648 525 l 18
 665 662 653 745 549 745 c 3
 455 745 400 698 362 662 c 9
 267 0 l 1
 104 0 l 9
 196 697 l 18
 210 790 139 783 65 781 c 9
 74 861 l 17
 117 882 167 894 227 894 c 3
 343 894 388 840 360 722 c 1
 372 722 l 1
 428 796 535 893 656 893 c 3
 790 893 837 809 815 613 c 10
 745 0 l 1
 582 0 l 9
EndSplineSet
Colour: ffffff
EndChar

StartChar: n
Encoding: 78 110 66
Width: 924
VWidth: 0
Flags: HMW
LayerCount: 3
Back
SplineSet
426 722 m 5
 438 722 l 5
 494 796 601 893 722 893 c 7
 855.834 893 914.173 808 881 613 c 14
 845.708 378 l 6
 830.708 283 823 216.325 823 172.353 c 4
 823 94.9935 880.708 94.0511 949.708 96 c 5
 941.708 15 l 5
 912.708 0 856.734 -17 800.708 -17 c 7
 668.411 -17 637.708 48 662.708 194 c 14
 714 525 l 22
 740.316 661 719.013 745 615 745 c 7
 521 745 466 698 428 662 c 13
 333 0 l 5
 170 0 l 13
 271 675 l 22
 285.045 768.066 213.897 760.953 140 759 c 13
 149 839 l 21
 192.436 860.458 242.032 872.066 302.045 872.066 c 4
 430.888 872.066 444.551 818.382 426 722 c 5
EndSplineSet
Fore
SplineSet
360 722 m 1
 372 722 l 1
 428 796 535 893 656 893 c 3
 790 893 848 808 815 613 c 10
 780 378 l 2
 765 284 757 218 757 175 c 0
 757 98 815 97 884 99 c 1
 876 18 l 1
 847 3 791 -14 735 -14 c 3
 603 -14 572 51 597 197 c 10
 648 525 l 18
 669 662 653 745 549 745 c 3
 455 745 400 698 362 662 c 9
 267 0 l 1
 104 0 l 9
 196 697 l 18
 210 790 139 783 65 781 c 9
 74 861 l 17
 117 882 167 894 227 894 c 3
 343 894 388 840 360 722 c 1
EndSplineSet
Colour: ffffff
EndChar

StartChar: o
Encoding: 79 111 67
Width: 819
VWidth: 0
Flags: HMW
LayerCount: 3
Back
SplineSet
219 395 m 0
 219 277.932 270.2 92 411 92 c 3
 531.757 92 616.414 232.435 616.414 478.966 c 0
 616.414 672.605 534.582 773.339 432.589 773.339 c 0
 295.129 773.339 219 618.128 219 395 c 0
496 893 m 3
 685.559 893 785 729.218 785 520 c 0
 785 248.929 596.159 -26 331 -26 c 3
 126.3 -26 48 161.5 48 349 c 0
 48 615.686 231.087 893 496 893 c 3
EndSplineSet
Fore
SplineSet
595.639 472 m 0
 595.639 628 542.639 775 398.639 775 c 3
 275.639 775 189.639 640 189.639 388 c 0
 189.639 194 272.639 94 376.639 94 c 0
 517.639 94 595.639 238 595.639 472 c 0
313.639 -26 m 3
 123.639 -26 24.6387 138 24.6387 347 c 0
 24.6387 628 213.639 893 478.639 893 c 3
 674.639 893 761.639 704 761.639 515 c 0
 761.639 247 578.639 -26 313.639 -26 c 3
EndSplineSet
Colour: ffffff
EndChar

StartChar: p
Encoding: 80 112 68
Width: 905
VWidth: 0
Flags: HMW
LayerCount: 3
Back
SplineSet
476 722 m 5
 489 720 l 5
 531.66 799 636 890 746 890 c 7
 879.671 890 986 763.631 986 542 c 4
 986 245.763 739.935 -16.9004 499.541 -16.9004 c 7
 464.466 -16.9004 430.839 -14.384 413 -8 c 13
 436 114 l 21
 465.425 100.111 485.82 89 564 89 c 7
 654.866 89 817 194 817 486 c 4
 817 651 743.788 746 666 746 c 7
 585 746 546 716.941 480 651 c 5
 341 -263 l 5
 496 -294 l 5
 478 -365 l 5
 42 -365 l 5
 62 -291 l 5
 182 -258 l 5
 321 675 l 6
 335 768 263.897 760.953 190 759 c 13
 199 839 l 21
 242.436 860.458 292.032 872.066 352.045 872.066 c 4
 480.888 872.066 494.551 818.382 476 722 c 5
EndSplineSet
Fore
SplineSet
30 -366 m 1
 183 675 l 2
 197 768 126 761 52 759 c 9
 61 839 l 17
 104 860 154 872 214 872 c 0
 343 872 357 818 338 722 c 1
 351 720 l 1
 394 799 498 890 608 890 c 3
 742 890 848 764 848 542 c 0
 848 246 602 -17 362 -17 c 3
 327 -17 293 -14 275 -8 c 9
 298 114 l 17
 327 100 348 89 426 89 c 3
 517 89 679 194 679 486 c 0
 679 651 606 746 528 746 c 3
 447 746 408 717 342 651 c 1
 189 -366 l 1
 30 -366 l 1
EndSplineSet
Colour: ffffff
EndChar

StartChar: q
Encoding: 81 113 69
Width: 776
VWidth: 0
Flags: HMW
LayerCount: 3
Back
SplineSet
715 687 m 2
 627 86 l 18
 586 -196 368 -336 264 -386 c 1
 214 -307 l 1
 363 -198 447 -70 472 99 c 10
 557 683 l 18
 572 776 500 769 426 767 c 9
 435 847 l 17
 478 868 528 880 588 880 c 0
 720 880 735 811 715 687 c 2
706 1293 m 0
 766 1293 815 1244 815 1179 c 0
 815 1115 762 1068 695 1068 c 0
 636 1068 585 1116 585 1177 c 0
 585 1237 635 1293 706 1293 c 0
EndSplineSet
Fore
SplineSet
405 -364 m 25
 565 746 l 17
 537 772 492 781 446 781 c 3
 286 781 186 533 186 320 c 0
 186 203 225 102 308 102 c 3
 358 102 410 117 439 137 c 1
 442 82 l 1
 397 27 338 -21 219 -21 c 3
 92 -21 24 102 24 264 c 0
 24 663 314 885 535 885 c 3
 612 885 701 876 736 832 c 9
 560 -364 l 25
 405 -364 l 25
EndSplineSet
Colour: ffffff
EndChar

StartChar: r
Encoding: 82 114 70
Width: 646
VWidth: 0
Flags: HMW
LayerCount: 3
Back
SplineSet
426 722 m 5
 438 722 l 1
 494 796 601 893 722 893 c 3
 855.834 893 914.173 808 881 613 c 10
 845.708 378 l 2
 830.708 284.386 823 218.683 823 175.353 c 0
 823 97.9935 880.708 97.0511 949.708 99 c 1
 941.708 18 l 1
 912.708 3 856.734 -14 800.708 -14 c 3
 668.411 -14 637.708 51 662.708 197 c 10
 714 525 l 18
 735 662 719.013 745 615 745 c 3
 521 745 466 698 428 662 c 9
 333 0 l 1
 170 0 l 9
 262 697 l 22
 276.045 790.066 204.897 782.953 131 781 c 13
 140 861 l 21
 183.436 882.458 233.032 894.066 293.045 894.066 c 7
 409.064 894.066 454 840 426 722 c 5
EndSplineSet
Fore
SplineSet
104 0 m 1
 196 697 l 2
 208 790 139 783 65 781 c 9
 74 861 l 17
 117 882 167 894 227 894 c 3
 343 894 384 841 360 722 c 10
 337 607 l 17
 348 607 l 1
 390 738 480 892 581 892 c 3
 643 892 677 849 677 797 c 0
 677 753 659 703 621 665 c 1
 593 693 569 699 535 699 c 3
 446 699 371 575 338 508 c 9
 271 0 l 1
 104 0 l 1
EndSplineSet
Colour: ffffff
EndChar

StartChar: s
Encoding: 83 115 71
Width: 685
VWidth: 0
Flags: HMW
LayerCount: 3
Back
SplineSet
31 139 m 4
 31 209.282 79 251.611 160 258 c 5
 186.952 123.577 220.032 66 302 66 c 7
 366 66 425 106 425 195 c 4
 425 373 64.4697 437.558 64.4697 672.044 c 4
 64.4697 817.508 237.546 927 385 927 c 7
 555.893 927 649 839.064 649 750 c 4
 649 697 602.475 650.73 517 644 c 5
 488 796 410.62 838 335 838 c 7
 262.354 838 216.792 783.151 216.792 723.174 c 4
 216.792 553 570 508.814 570 258 c 4
 570 123.069 429 -10 251 -10 c 7
 127.556 -10 31 36.0935 31 139 c 4
EndSplineSet
Fore
SplineSet
652 753 m 4
 652 683 604 640 523 634 c 5
 496 768 463 826 381 826 c 7
 317 826 258 786 258 697 c 4
 258 519 619 454 619 220 c 4
 619 75 445 -35 298 -35 c 7
 125 -35 31 53 31 142 c 4
 31 200 77 251 161 258 c 5
 190 98 239 54 346 54 c 7
 420 54 466 109 466 169 c 4
 466 339 113 383 113 634 c 4
 113 769 254 902 432 902 c 7
 555 902 652 856 652 753 c 4
EndSplineSet
Colour: ffffff
EndChar

StartChar: t
Encoding: 84 116 72
Width: 573
VWidth: 0
Flags: HMW
LayerCount: 3
Back
SplineSet
602 689 m 2
 616 782 544.897 774.953 471 773 c 9
 480 853 l 17
 523.436 874.459 573.032 886.067 633.045 886.067 c 0
 765.006 886.067 776.292 816.934 760 693 c 10
 688.708 173.066 l 18
 681 119 704.407 101 744 95 c 10
 810 83 l 17
 792 14 l 1
 757 1 705 -18 651 -18 c 3
 549.824 -19.953 509.717 32.8415 534.708 148.066 c 1
 522.708 148.066 l 1
 466.708 74.0664 359.708 -22.9336 238.708 -22.9336 c 3
 104.874 -22.9336 51 61 79.708 257.066 c 10
 142 689 l 2
 156 781.934 84.897 774.953 11 773 c 9
 20 853 l 17
 63.436 874.459 113.032 886.067 173.045 886.067 c 0
 305.006 886.067 320 817 300 693 c 10
 246.708 345.066 l 18
 226 208 241.695 125.066 345.708 125.066 c 3
 439.708 125.066 494.708 172.066 532.708 208.066 c 9
 602 689 l 2
EndSplineSet
Fore
SplineSet
251 347 m 18
 223 175 244 122 361 122 c 3
 403 122 440 138 466 155 c 1
 479 102 l 1
 426 33 349 -21 253 -21 c 3
 99 -21 60 88 91 289 c 10
 214 1080 l 25
 368 1080 l 25
 251 347 l 18
65 766 m 17
 75 862 l 9
 553 862 l 17
 534 766 l 9
 65 766 l 17
EndSplineSet
Colour: ffffff
EndChar

StartChar: u
Encoding: 85 117 73
Width: 884
VWidth: 0
Flags: HMW
LayerCount: 3
Back
SplineSet
480 853 m 21
 523.436 874.459 573.032 886.067 633.045 886.067 c 4
 765.006 886.067 778.136 817.193 760 693 c 6
 714 378 l 2
 700 281.236 691.292 216.325 691.292 172.353 c 0
 691.292 94.9935 749 94.051 818 96 c 1
 810 15 l 1
 781 0 725.026 -17 669 -17 c 3
 536.702 -17 509.976 47.4256 531 194 c 2
 602 689 l 6
 617.265 781.842 544.897 774.953 471 773 c 13
 480 853 l 21
291.071 1291.6 m 0
 350.408 1291.6 399.207 1243.39 399.207 1178.71 c 0
 399.207 1115 345.668 1069.11 279.568 1069.11 c 0
 220.986 1069.11 171.503 1116.58 171.503 1177.01 c 0
 171.503 1236.47 220.505 1291.6 291.071 1291.6 c 0
EndSplineSet
Fore
SplineSet
656 689 m 6
 670 782 599 775 525 773 c 13
 534 853 l 21
 577 874 627 886 687 886 c 4
 819 886 830 817 814 693 c 14
 743 173 l 22
 735 119 758 101 798 95 c 14
 864 83 l 21
 846 14 l 5
 811 1 759 -18 705 -18 c 4
 604 -20 564 33 589 148 c 5
 577 148 l 5
 521 74 414 -23 293 -23 c 7
 159 -23 105 61 134 257 c 14
 196 689 l 6
 210 782 139 775 65 773 c 13
 74 853 l 21
 117 874 167 886 227 886 c 4
 359 886 374 817 354 693 c 14
 301 345 l 22
 280 208 296 125 400 125 c 7
 494 125 549 172 587 208 c 13
 656 689 l 6
EndSplineSet
Colour: ffffff
EndChar

StartChar: v
Encoding: 86 118 74
Width: 790
VWidth: 0
Flags: HMW
LayerCount: 3
Back
SplineSet
324 451 m 1
 453 529 592 670 592 738 c 4
 592 783.398 544.58 790.448 493 777 c 13
 502 857 l 21
 536.922 878.458 576.796 890.066 625.045 890.066 c 4
 710.198 890.066 742.398 861.471 742.398 770 c 4
 742.398 649.448 520.445 497.448 471 466 c 1
 508 383 l 2
 598.493 180.003 667.705 108.864 771 89 c 2
 797 84 l 1
 784 6 l 1
 738.181 -7.58474 698.084 -15.0635 662.111 -15.0635 c 0
 541.846 -15.0635 479.051 40.2107 380 287 c 2
 321 434 l 1
 324 451 l 1
375.955 1062.93 m 10
 219 0 l 1
 56 0 l 9
 217.955 1058.93 l 18
 232 1152 160.853 1144.89 86.9551 1142.93 c 9
 95.9551 1222.93 l 17
 139.391 1244.39 188.987 1256 249 1256 c 0
 380.961 1256 394.955 1186.93 375.955 1062.93 c 10
EndSplineSet
Fore
SplineSet
772 770 m 4
 772 637 552 234 407 -10 c 5
 303 -28 l 5
 177 689 l 6
 160 782 119 775 43 773 c 13
 52 853 l 21
 93 874 139 886 195 886 c 4
 312 886 324 804 343 669 c 6
 414 155 l 5
 534 365 622 527 622 738 c 4
 622 781 575 790 523 777 c 13
 532 857 l 21
 567 878 607 890 655 890 c 4
 740 890 772 845 772 770 c 4
EndSplineSet
Colour: ffffff
EndChar

StartChar: w
Encoding: 87 119 75
Width: 1183
VWidth: 0
Flags: HMW
LayerCount: 3
Back
SplineSet
275.602 -60 m 0
 275.602 73 495.751 475.747 641 720 c 1
 745 738 l 1
 871 21 l 2
 888.389 -72 929.411 -64.953 1005 -63 c 9
 996 -143 l 17
 955.402 -164.459 909.047 -176.067 852.955 -176.067 c 0
 736.159 -176.067 724 -94 705 41 c 2
 634 555 l 1
 513.686 345.405 426 182.683 426 -28 c 0
 426 -71 473.42 -80.448 525 -67 c 9
 516 -147 l 17
 481.078 -168.458 441.204 -180.066 392.955 -180.066 c 0
 307.802 -180.066 275.602 -135 275.602 -60 c 0
EndSplineSet
Fore
SplineSet
598 777 m 5
 564 575 498 399 414 175 c 5
 343 669 l 6
 324 804 312 886 195 886 c 4
 139 886 93 874 52 853 c 5
 43 773 l 5
 119 775 160 782 177 689 c 5
 303 -28 l 5
 407 -10 l 5
 468 141 544 341 605 523 c 5
 724 -28 l 5
 828 -10 l 5
 962 234 1165 637 1165 770 c 4
 1165 845 1133 890 1048 890 c 4
 996 890 953 878 915 857 c 5
 906 777 l 5
 963 790 1015 781 1015 738 c 4
 1015 527 939 365 835 155 c 5
 708 799 l 21
 598 777 l 5
EndSplineSet
Colour: ffffff
EndChar

StartChar: x
Encoding: 88 120 76
Width: 883
VWidth: 0
Flags: HMW
LayerCount: 3
Back
SplineSet
304.398 514 m 5
 328.398 474 l 5
 225.391 379.15 114.398 274.277 114.398 125 c 4
 114.398 91.2425 161.818 86.0002 213.398 96 c 13
 204.398 16 l 21
 169.476 -5.45831 129.602 -17.0664 81.3535 -17.0664 c 4
 -3.79987 -17.0664 -36 9.14708 -36 93 c 4
 -36 259.948 242.383 470.449 304.398 514 c 5
EndSplineSet
Fore
SplineSet
360 514 m 5
 384 474 l 5
 281 379 170 274 170 125 c 4
 170 91 217 86 269 96 c 13
 260 16 l 21
 225 -5 185 -17 137 -17 c 4
 52 -17 20 9 20 93 c 4
 20 260 298 470 360 514 c 5
488 359 m 5
 464 399 l 5
 567 491 678 593 678 738 c 4
 678 783 631 790 579 777 c 13
 588 857 l 21
 623 878 663 890 711 890 c 4
 796 890 828 861 828 770 c 4
 828 607 550 402 488 359 c 5
546 383 m 6
 639 180 706 109 809 89 c 6
 835 84 l 5
 822 6 l 5
 776 -8 737 -15 701 -15 c 4
 581 -15 530 45 418 287 c 6
 233 689 l 6
 192 778 166 775 79 773 c 13
 88 853 l 21
 123 874 163 886 211 886 c 4
 296 886 328 862 396 713 c 6
 546 383 l 6
EndSplineSet
Colour: ffffff
EndChar

StartChar: y
Encoding: 89 121 77
Width: 778
VWidth: 0
Flags: HMW
LayerCount: 3
Back
SplineSet
772 770 m 4
 772 637 552 234 407 -10 c 5
 303 -28 l 5
 177 689 l 6
 160 782 119 775 43 773 c 13
 52 853 l 21
 93 874 139 886 195 886 c 4
 312 886 324 804 343 669 c 6
 414 155 l 5
 534 365 622 527 622 738 c 4
 622 781 575 790 523 777 c 13
 532 857 l 21
 567 878 607 890 655 890 c 4
 740 890 772 845 772 770 c 4
EndSplineSet
Fore
SplineSet
435 -2 m 0
 571 230 760 645 760 778 c 0
 760 853 728 898 643 898 c 0
 591.098 898 547.846 886 510 865 c 1
 501 785 l 1
 559.828 798 613 789 613 746 c 0
 613 495 480 228 432 143 c 1
 341 677 l 2
 318 812 310 894 193 894 c 0
 137 894 91 882 50 861 c 1
 41 781 l 1
 117 783 154 790 175 697 c 2
 335 0 l 17
 276 -139 201 -206 88 -206 c 0
 31 -206 -15 -189 -73 -150 c 1
 -103.763 -180.763 -120.369 -219.882 -120.369 -257.076 c 0
 -120.369 -339.567 -44.1838 -382 45 -382 c 0
 215.793 -382 326.345 -193.958 435 -2 c 0
EndSplineSet
Colour: ffffff
EndChar

StartChar: z
Encoding: 90 122 78
Width: 778
VWidth: 0
Flags: HMW
LayerCount: 3
Back
SplineSet
158 634 m 5
 204 874 l 5
 782 874 l 5
 772 806 l 5
 222 88 l 1
 524 88 l 1
 640 251 l 1
 703 243 l 1
 624 -2 l 1
 46 -2 l 1
 54 79 l 1
 595 789 l 5
 310 789 l 5
 222 621 l 5
 158 634 l 5
EndSplineSet
Fore
SplineSet
101 -15 m 1
 10 26 l 1
 584 749 l 1
 245 749 l 1
 177 581 l 1
 109 594 l 1
 145 874 l 1
 752 874 l 1
 752 806 l 1
 239 151 l 1
 243 147 l 1
 282 156 369.87 180.384 429 156 c 2
 526 116 l 2
 608.599 84.3871 633.571 80.7742 696 172 c 1
 758 144 l 1
 654 -82 541 -64 413 -18 c 2
 280 30 l 2
 196 60 166 35 134 14 c 2
 101 -15 l 1
EndSplineSet
Colour: ffffff
EndChar

StartChar: braceleft
Encoding: 91 123 79
Width: 702
VWidth: 0
Flags: HMW
LayerCount: 3
Back
SplineSet
4 389 m 1
 4 488 l 1
 53 497 l 1
 345 547 17 1255 426 1255 c 2
 527 1255 l 1
 518 1155 l 1
 436 1149 l 2
 368 1143 364 1044 364 921 c 2
 364 862 l 2
 364 687 356 491 194 445 c 1
 194 438 l 1
 492 352 265 -259 449 -271 c 2
 523 -277 l 1
 531 -378 l 1
 429 -378 l 2
 14 -378 343 335 56 381 c 2
 4 389 l 1
EndSplineSet
Fore
Refer: 81 125 N -1 0 0.316769 1 566 0 2
Colour: ffffff
EndChar

StartChar: bar
Encoding: 92 124 80
Width: 452
VWidth: 0
Flags: HMW
LayerCount: 3
Back
SplineSet
109 -366 m 1
 109 1260 l 1
 224 1248 l 1
 224 -380 l 1
 109 -366 l 1
EndSplineSet
Fore
SplineSet
155 -363 m 1
 41 -350 l 1
 295 1255 l 1
 409 1244 l 1
 155 -363 l 1
EndSplineSet
Colour: ffffff
EndChar

StartChar: braceright
Encoding: 93 125 81
Width: 709
VWidth: 0
Flags: HMW
LayerCount: 3
Back
SplineSet
22 -378 m 1
 31 -277 l 1
 105 -271 l 2
 289 -259 62 352 360 438 c 1
 360 445 l 1
 62 515 292 1134 117 1149 c 2
 35 1155 l 1
 28 1255 l 1
 129 1255 l 2
 538 1255 208 547 500 497 c 1
 549 488 l 1
 549 389 l 1
 497 381 l 2
 210 335 541 -378 126 -378 c 2
 22 -378 l 1
EndSplineSet
Fore
SplineSet
98 -272 m 2
 286 -244 153 352 465 438 c 1
 466 444 l 1
 179 530 501 1121 334 1149 c 2
 296 1156 l 1
 303 1255 l 1
 362 1255 l 2
 772 1255 332 548 616 497 c 2
 663 489 l 1
 646 390 l 1
 595 381 l 2
 301 335 516 -378 101 -378 c 2
 40 -378 l 1
 63 -277 l 1
 98 -272 l 2
EndSplineSet
Colour: ffffff
EndChar

StartChar: asciitilde
Encoding: 94 126 82
Width: 896
VWidth: 0
Flags: HMW
LayerCount: 3
Back
SplineSet
149 413 m 1
 149 413 231 626 370 611 c 2
 808 566 l 2
 846 561 903 628 903 628 c 1
 968 626 l 1
 968 626 877 407 738 424 c 1
 299 469 l 2
 256 474 200 400 200 400 c 1
 149 413 l 1
EndSplineSet
Fore
SplineSet
55 412 m 2
 55 412 114 624 246 611 c 2
 696 566 l 2
 733 563 778 628 778 628 c 1
 842 626 l 2
 842 626 780 409 644 424 c 2
 194 469 l 2
 154 473 110 399 110 399 c 1
 55 412 l 2
EndSplineSet
Colour: ffffff
EndChar

StartChar: exclamdown
Encoding: 96 161 83
Width: 496
VWidth: 0
Flags: HMW
LayerCount: 3
Back
SplineSet
97 -378 m 0xa0
 97 -210 124 212 151 534 c 1
 151 540 l 1
 240 520 l 1
 240 517 l 1x90
 264 195 294 -266 294 -375 c 2
 294 -378 l 1
 286 -406 198 -418 162 -418 c 0
 135 -418 97 -409 97 -378 c 0xa0
70 784 m 0xc0
 70 854 126 910 196 910 c 0
 266 910 320 853 320 783 c 0
 320 716 262 666 196 666 c 0
 129 666 70 717 70 784 c 0xc0
EndSplineSet
Fore
Refer: 0 33 N -1 0 0 -1 493 876 2
Colour: ffffff
EndChar

StartChar: sterling
Encoding: 98 163 84
Width: 1167
VWidth: 0
Flags: HMW
LayerCount: 3
Back
SplineSet
43 0 m 1x4c
 50 74 l 1
 218 121 l 1
 249 221 254 313 257 461 c 2
 260 549 l 1
 80 538 l 1
 92 639 l 1
 263 649 l 1
 266 786 l 1
 276 1108 446 1250 673 1250 c 0x5c
 753 1250 827 1244 906 1211 c 1
 875 895 l 1
 789 907 l 1x2c
 748 1121 l 1
 727 1132 699 1143 663 1143 c 0
 496 1143 464 1037 458 703 c 1
 458 655 l 1
 676 669 l 1
 666 568 l 1
 455 555 l 1
 454 515 l 1
 451 356 440 196 393 99 c 1x9c
 853 96 l 1
 984 349 l 1
 1070 331 l 1
 1032 0 l 1
 43 0 l 1x4c
EndSplineSet
Fore
SplineSet
43 0 m 5
 62 74 l 5
 237 121 l 5
 284 221 304 313 330 461 c 6
 347 549 l 5
 165 538 l 5
 193 639 l 5
 366 649 l 5
 390 786 l 5
 451 1108 644 1250 871 1250 c 4
 951 1250 1024 1244 1098 1211 c 5
 1017 895 l 5
 933 907 l 5
 926 1121 l 5
 907 1132 880 1143 844 1143 c 4
 677 1143 628 1037 569 703 c 5
 562 655 l 5
 782 669 l 5
 756 568 l 5
 543 555 l 5
 536 515 l 5
 508 356 471 196 409 99 c 5
 868 96 l 5
 1039 349 l 5
 1122 331 l 5
 1032 0 l 5
 43 0 l 5
EndSplineSet
Colour: ffffff
EndChar

StartChar: yen
Encoding: 100 165 85
Width: 1159
VWidth: 0
Flags: HMW
LayerCount: 3
Back
SplineSet
42 1168 m 5
 55 1244 l 5
 515 1244 l 5
 504 1168 l 5
 371 1130 l 5
 589 636 l 5
 806 1126 l 5
 649 1168 l 5
 658 1244 l 5
 1054 1244 l 5
 1045 1168 l 5
 921 1130 l 5
 667 578 l 5
 968 578 l 5
 957 480 l 5
 640 480 l 5
 640 338 l 5
 964 338 l 5
 953 240 l 5
 640 240 l 5
 640 113 l 5
 804 78 l 5
 794 0 l 5
 294 0 l 5
 304 71 l 5
 453 119 l 5
 453 240 l 5
 143 240 l 5
 155 338 l 5
 453 338 l 5
 453 480 l 5
 147 480 l 5
 159 578 l 5
 426 578 l 5
 178 1126 l 5
 42 1168 l 5
EndSplineSet
Fore
SplineSet
390 472 m 1
 83 472 l 1
 111 578 l 1
 375 578 l 1
 222 1126 l 1
 91 1168 l 1
 116 1244 l 1
 583 1244 l 1
 560 1168 l 1
 422 1130 l 1
 554 641 l 1
 849 1126 l 1
 699 1168 l 1
 720 1244 l 1
 1117 1244 l 1
 1095 1168 l 1
 965 1130 l 1
 623 578 l 1
 927 578 l 1
 899 472 l 1
 583 472 l 1
 564 345 l 1
 887 345 l 1
 859 239 l 1
 547 239 l 1
 527 114 l 1
 686 81 l 1
 663 0 l 1
 156 0 l 1
 177 74 l 1
 336 121 l 1
 354 239 l 1
 43 239 l 1
 71 345 l 1
 370 345 l 1
 390 472 l 1
EndSplineSet
Colour: ffffff
EndChar

StartChar: brokenbar
Encoding: 101 166 86
Width: 447
VWidth: 0
Flags: HMW
LayerCount: 3
Back
SplineSet
109 -366 m 1
 109 423 l 1
 228 411 l 1
 228 -380 l 1
 109 -366 l 1
109 540 m 1
 109 1260 l 1
 227 1248 l 1
 225 529 l 1
 109 540 l 1
EndSplineSet
Fore
SplineSet
41 -350 m 1
 165 431 l 1
 274 419 l 1
 150 -363 l 1
 41 -350 l 1
183 540 m 1
 295 1255 l 1
 404 1244 l 1
 287 528 l 1
 183 540 l 1
EndSplineSet
Colour: ffffff
EndChar

StartChar: dieresis
Encoding: 103 168 87
Width: 603
VWidth: 0
Flags: HMW
LayerCount: 3
Back
SplineSet
92 1465 m 0
 92 1512 137 1542 177 1542 c 0
 221 1542 263 1511 263 1465 c 0
 263 1416 221 1383 177 1383 c 0
 134 1383 92 1416 92 1465 c 0
360 1465 m 0
 360 1512 405 1542 445 1542 c 0
 489 1542 532 1511 532 1465 c 0
 532 1416 489 1383 445 1383 c 0
 402 1383 360 1416 360 1465 c 0
EndSplineSet
Fore
SplineSet
447 1542 m 0
 492 1542 528 1511 521 1465 c 0
 513 1415 467 1384 422 1384 c 0
 379 1384 342 1415 350 1465 c 0
 358 1513 406 1542 447 1542 c 0
180 1542 m 0
 225 1542 259 1511 252 1465 c 0
 244 1415 200 1384 155 1384 c 0
 112 1384 74 1415 82 1465 c 0
 90 1513 139 1542 180 1542 c 0
267 1255 m 0
EndSplineSet
Colour: ffffff
EndChar

StartChar: copyright
Encoding: 104 169 88
Width: 1380
VWidth: 0
Flags: HMW
LayerCount: 3
Back
SplineSet
53 645 m 0
 53 1026 346 1320 684 1320 c 0
 1079 1320 1327 1033 1327 649 c 0
 1327 292 1041 -15 675 -15 c 0
 309 -15 53 270 53 645 c 0
176 657 m 0
 176 329 387 92 683 92 c 0
 971 92 1205 325 1205 639 c 0
 1205 964 1019 1217 684 1217 c 0
 396 1217 176 961 176 657 c 0
344.5 643.75 m 0
 344.5 896.2 521.3 1056 705.75 1056 c 0
 847.7 1056 910.6 993.1 910.6 925.95 c 0
 910.6 875.8 873.2 841.8 802.65 836.7 c 1
 778.85 893.65 739.75 976.1 665.8 976.1 c 0
 564.65 976.1 498.35 875.8 498.35 721.95 c 0
 498.35 580 574 367.5 750.8 367.5 c 0
 834.95 367.5 882.55 393.85 922.5 419.35 c 1
 943.75 370.05 l 1
 898.7 315.65 789.9 265.5 680.25 265.5 c 0
 476.25 265.5 344.5 439.75 344.5 643.75 c 0
EndSplineSet
Fore
SplineSet
346 644 m 4
 346 896 523 1056 707 1056 c 4
 849 1056 912 993 912 926 c 4
 912 876 875 842 804 837 c 5
 780 894 741 976 667 976 c 4
 566 976 499 876 499 722 c 4
 499 580 575 368 752 368 c 4
 836 368 884 393 924 419 c 5
 945 370 l 5
 900 316 791 266 681 266 c 4
 477 266 346 440 346 644 c 4
54 645 m 4
 54 1026 347 1320 685 1320 c 4
 1080 1320 1328 1033 1328 649 c 4
 1328 292 1042 -15 676 -15 c 4
 310 -15 54 270 54 645 c 4
177 657 m 4
 177 329 388 92 684 92 c 4
 972 92 1206 325 1206 639 c 4
 1206 964 1020 1217 685 1217 c 4
 397 1217 177 961 177 657 c 4
EndSplineSet
Colour: ffffff
EndChar

StartChar: guillemotleft
Encoding: 106 171 89
Width: 704
VWidth: 0
Flags: HMW
LayerCount: 3
Back
SplineSet
23 469 m 1
 292 820 l 1
 335 761 l 1
 171 461 l 1
 338 141 l 1
 286 77 l 1
 24 449 l 1
 23 469 l 1
270 469 m 1
 538 820 l 1
 583 761 l 1
 418 461 l 1
 586 141 l 1
 534 77 l 1
 271 449 l 1
 270 469 l 1
EndSplineSet
Fore
SplineSet
298 469 m 5
 622 821 l 5
 657 761 l 5
 444 461 l 5
 561 140 l 5
 498 78 l 5
 297 449 l 5
 298 469 l 5
51 469 m 5
 374 821 l 5
 409 761 l 5
 196 461 l 5
 313 140 l 5
 250 78 l 5
 49 449 l 5
 51 469 l 5
EndSplineSet
Colour: ffffff
EndChar

StartChar: logicalnot
Encoding: 107 172 90
Width: 886
VWidth: 0
Flags: HMW
LayerCount: 3
Back
SplineSet
74 559 m 1
 86 663 l 1
 830 663 l 1
 832 351 l 1
 726 332 l 1
 726 559 l 1
 74 559 l 1
EndSplineSet
Fore
SplineSet
83 664 m 1
 828 664 l 1
 780 350 l 1
 671 332 l 1
 707 558 l 1
 55 558 l 1
 83 664 l 1
EndSplineSet
Colour: ffffff
EndChar

StartChar: softhyphen
Encoding: 108 173 91
Width: 560
VWidth: 0
Flags: HMW
LayerCount: 3
Back
SplineSet
85 406 m 1
 92 521 l 1
 500 581 l 1
 492 465 l 1
 85 406 l 1
EndSplineSet
Fore
SplineSet
83 522 m 1
 501 581 l 1
 475 466 l 1
 57 406 l 1
 83 522 l 1
EndSplineSet
Colour: ffffff
EndChar

StartChar: micro
Encoding: 116 181 92
Width: 945
VWidth: 0
Flags: HMW
LayerCount: 3
Fore
SplineSet
213 37 m 1
 206 37 l 1
 206 19 207 -28 201 -86 c 2
 171 -388 l 1
 42 -362 l 1
 56 -313 189 255 227 497 c 2
 266 746 l 1
 135 770 l 1
 145 844 l 1
 428 869 l 1
 447 846 l 1
 368 375 l 2
 338 197 342 117 433 117 c 0
 525 117 580 167 613 200 c 1
 695 746 l 1
 561 770 l 1
 571 844 l 1
 857 869 l 1
 877 846 l 1
 801 370 l 2
 763 132 785 104 831 96 c 2
 897 84 l 1
 879 15 l 1
 844 2 792 -17 738 -17 c 0
 650 -17 599 26 611 130 c 1
 601 130 l 1
 573 77 470 -20 338 -20 c 0
 287 -20 241 -6 213 38 c 1
 213 37 l 1
EndSplineSet
Colour: ffffff
EndChar

StartChar: periodcentered
Encoding: 118 183 93
Width: 362
VWidth: 0
Flags: HMW
LayerCount: 3
Back
SplineSet
83 504 m 0
 83 568 139 618 203 618 c 0
 269 618 325 568 325 504 c 0
 325 437 269 381 203 381 c 0
 137 381 83 437 83 504 c 0
EndSplineSet
Fore
SplineSet
59 504 m 0
 59 568 115 618 179 618 c 0
 245 618 301 568 301 504 c 0
 301 437 245 381 179 381 c 0
 113 381 59 437 59 504 c 0
EndSplineSet
Colour: ffffff
EndChar

StartChar: macron
Encoding: 110 175 94
Width: 617
VWidth: 0
Flags: HMW
LayerCount: 3
Back
SplineSet
372 1480 m 1
 813 1480 l 1
 783 1379 l 1
 342 1379 l 1
 372 1480 l 1
545 1239 m 0
EndSplineSet
Fore
SplineSet
81 1379 m 1
 94 1479 l 1
 536 1479 l 1
 523 1379 l 1
 81 1379 l 1
EndSplineSet
Colour: ffffff
EndChar

StartChar: degree
Encoding: 111 176 95
Width: 485
VWidth: 0
Flags: HMW
LayerCount: 3
Back
SplineSet
390 1237 m 0
 331 1237 294 1181 286 1125 c 0
 276 1064 298 996 362 996 c 0
 416 996 452 1037 464 1110 c 0
 474 1173 453 1237 390 1237 c 0
408 1285 m 0
 504 1285 553 1217 538 1123 c 0
 523 1032 444 948 342 948 c 0
 250 948 196 1011 213 1113 c 0
 228 1205 314 1285 408 1285 c 0
EndSplineSet
Fore
SplineSet
66 1107 m 0
 66 1210 151 1304 259 1304 c 0
 375 1304 430 1237 430 1128 c 0
 430 1013 341 928 235 928 c 0
 133 928 66 990 66 1107 c 0
157 1129 m 0
 157 1068 189 995 253 995 c 0
 307 995 338 1032 338 1105 c 0
 338 1167 305 1237 243 1237 c 0
 184 1237 157 1185 157 1129 c 0
EndSplineSet
Colour: ffffff
EndChar

StartChar: plusminus
Encoding: 112 177 96
Width: 729
VWidth: 0
Flags: HMW
LayerCount: 3
Back
SplineSet
58 13 m 1
 74 117 l 1
 686 123 l 1
 670 19 l 1
 58 13 l 1
83 475 m 1
 95 575 l 1
 304 575 l 1
 304 807 l 1
 412 795 l 1
 414 575 l 1
 633 575 l 1
 621 475 l 1
 414 475 l 1
 415 240 l 1
 304 251 l 1
 304 475 l 1
 83 475 l 1
EndSplineSet
Fore
SplineSet
68 117 m 5
 679 124 l 5
 663 20 l 5
 51 13 l 5
 68 117 l 5
EndSplineSet
Refer: 10 43 N 1 0 -4.47035e-07 1 8 81 2
Colour: ffffff
EndChar

StartChar: acute
Encoding: 115 180 97
Width: 393
VWidth: 0
Flags: HMW
LayerCount: 3
Back
SplineSet
727 1666 m 1
 494 1349 l 1
 448 1381 l 1
 623 1706 l 1
 727 1666 l 1
505 1239 m 0
EndSplineSet
Fore
SplineSet
80 1380 m 1
 203 1705 l 1
 314 1666 l 5
 131 1348 l 1
 80 1380 l 1
EndSplineSet
Colour: ffffff
EndChar

StartChar: cedilla
Encoding: 119 184 98
Width: 339
VWidth: 0
Flags: HMW
LayerCount: 3
Back
SplineSet
201 -76 m 1
 234 -109 276 -158 266 -226 c 0
 253 -305 162 -355 41 -390 c 1
 30 -330 l 1
 91 -310 124 -278 129 -248 c 0
 134 -213 105 -172 74 -137 c 1
 193 3 l 1
 268 3 l 1
 201 -76 l 1
226 0 m 0
EndSplineSet
Fore
SplineSet
54 -331 m 1
 111 -312 140 -278 140 -248 c 0
 140 -214 102 -172 66 -138 c 1
 164 3 l 1
 238 3 l 1
 185 -76 l 1
 222 -109 274 -160 274 -227 c 0
 274 -306 189 -355 73 -389 c 1
 54 -331 l 1
EndSplineSet
Colour: ffffff
EndChar

StartChar: guillemotright
Encoding: 122 187 99
Width: 703
VWidth: 0
Flags: HMW
LayerCount: 3
Back
SplineSet
61 141 m 1
 228 461 l 1
 64 761 l 1
 108 820 l 1
 376 469 l 1
 374 449 l 1
 113 77 l 1
 61 141 l 1
308 141 m 1
 476 461 l 1
 311 761 l 1
 355 820 l 1
 623 469 l 1
 621 449 l 1
 360 77 l 1
 308 141 l 1
EndSplineSet
Fore
Refer: 89 171 N -1 0 0 -1 702 899 2
Colour: ffffff
EndChar

StartChar: questiondown
Encoding: 126 191 100
Width: 650
VWidth: 0
Flags: HMW
LayerCount: 3
Back
SplineSet
53 40 m 0xe8
 53 277 341 243 341 391 c 0
 341 431 334 468 319 517 c 1
 393 534 l 1
 420 494 470 394 470 314 c 0
 470 90 164 165 164 -40 c 0
 164 -132 269 -213 328 -213 c 0
 404 -213 476 -188 519 -142 c 1
 552 -155 593 -199 593 -253 c 0
 593 -306 553 -388 396 -388 c 0
 241 -388 53 -214 53 40 c 0xe8
233 810 m 0xf0
 233 880 289 936 359 936 c 0
 429 936 482 877 482 807 c 0
 482 740 425 690 359 690 c 0
 292 690 233 743 233 810 c 0xf0
EndSplineSet
Fore
Refer: 19 63 N -1 0 0 -1 647 901 2
Colour: ffffff
EndChar

StartChar: germandbls
Encoding: 158 223 101
Width: 1027
VWidth: 0
Flags: HMW
LayerCount: 3
Back
SplineSet
755 194 m 2
 904 1132 l 17
 876 1156 774 1178 713 1178 c 0
 605 1178 506 1130 476 956 c 6
 459 858 l 5
 750 858 l 5
 726 768 l 5
 450 768 l 13
 385 135 l 22
 374 25 350.574 -37.7142 335 -60 c 5
 179 -60 l 5
 195.034 -30.7224 212 -5 222 99 c 6
 288 768 l 5
 135 768 l 5
 149 836 l 5
 306 872 l 5
 353 1118 597 1306 754 1306 c 0
 956 1306 1066 1212 1078 1172 c 9
 938 378 l 2
 921 283 915 216 915 172 c 0
 915 95 973 94 1042 96 c 1
 1034 15 l 1
 1005 0 949 -17 893 -17 c 3
 761 -17 732 48 755 194 c 2
EndSplineSet
Fore
SplineSet
424 839 m 10
 350 135 l 18
 338 25 315.574 -37.7142 300 -60 c 1
 144 -60 l 1
 160.034 -30.7224 177 -5 187 99 c 2
 253 768 l 1
 100 768 l 1
 114 836 l 1
 271 872 l 1
 315.904 1105.69 512.358 1320 738 1320 c 0
 902.339 1320 971.851 1211.54 971.851 1071.32 c 0
 971.851 851.101 699 766.385 699 628 c 0
 699 500.421 971.323 411.318 967 224 c 24
 963 71 803 -35 673 -35 c 3
 522 -35 439 23 439 82 c 0
 439 145 482 200 561 208 c 1
 598 95 650 54 713 54 c 3
 774 54 822 88 822 162 c 0
 822 295.679 559 354.417 559 560 c 0
 559 752.089 814.226 807.94 814.226 1014.78 c 0
 814.226 1126.66 763.753 1217.37 667.749 1217.37 c 0
 519.092 1217.37 452.415 1098.24 424 839 c 10
EndSplineSet
Colour: ffffff
EndChar

StartChar: Agrave
Encoding: 127 192 102
Width: 1379
VWidth: 0
Flags: HMW
LayerCount: 3
Back
SplineSet
-37 0 m 1
 -28 74 l 1
 121 129 l 1
 559 1237 l 1
 710 1268 l 1
 1100 124 l 1
 1237 80 l 1
 1228 0 l 1
 713 0 l 1
 725 74 l 1
 896 129 l 1
 787 432 l 1
 368 432 l 1
 256 124 l 1
 442 80 l 1
 431 0 l 1
 -37 0 l 1
406 534 m 1
 758 534 l 1
 592 1034 l 1
 406 534 l 1
436 1664 m 1
 552 1702 l 1
 684 1368 l 1
 627 1334 l 1
 436 1664 l 1
EndSplineSet
Fore
Refer: 52 96 N 1 0 0 1 649 66 2
Refer: 21 65 N 1 0 0 1 0 0 3
Colour: ffffff
EndChar

StartChar: Aacute
Encoding: 128 193 103
Width: 1379
VWidth: 0
Flags: HMW
LayerCount: 3
Back
SplineSet
-37 0 m 1
 -28 74 l 1
 121 129 l 1
 559 1237 l 1
 710 1268 l 1
 1100 124 l 1
 1237 80 l 1
 1228 0 l 1
 713 0 l 1
 725 74 l 1
 896 129 l 1
 787 432 l 1
 368 432 l 1
 256 124 l 1
 442 80 l 1
 431 0 l 1
 -37 0 l 1
406 534 m 1
 758 534 l 1
 592 1034 l 1
 406 534 l 1
593 1385 m 1
 716 1710 l 1
 827 1670 l 1
 643 1354 l 1
 593 1385 l 1
EndSplineSet
Fore
Refer: 97 180 N 1 0 0 1 739 47 2
Refer: 21 65 N 1 0 0 1 0 0 3
Colour: ffffff
EndChar

StartChar: Acircumflex
Encoding: 129 194 104
Width: 1379
VWidth: 0
Flags: HMW
LayerCount: 3
Back
SplineSet
-37 0 m 1
 -28 74 l 1
 121 129 l 1
 559 1237 l 1
 710 1268 l 1
 1100 124 l 1
 1237 80 l 1
 1228 0 l 1
 713 0 l 1
 725 74 l 1
 896 129 l 1
 787 432 l 1
 368 432 l 1
 256 124 l 1
 442 80 l 1
 431 0 l 1
 -37 0 l 1
406 534 m 1
 758 534 l 1
 592 1034 l 1
 406 534 l 1
443 1392 m 1
 611 1572 l 1
 666 1585 l 1
 844 1400 l 1
 794 1364 l 1
 632 1472 l 1
 621 1472 l 1
 480 1361 l 1
 443 1392 l 1
EndSplineSet
Fore
Refer: 211 710 N 1 0 0 1 677 38 2
Refer: 21 65 N 1 0 0 1 0 0 3
Colour: ffffff
EndChar

StartChar: Atilde
Encoding: 130 195 105
Width: 1379
VWidth: 0
Flags: HMW
LayerCount: 3
Back
SplineSet
-37 0 m 1xc0
 -28 74 l 1
 121 129 l 1
 559 1237 l 1
 710 1268 l 1
 1100 124 l 1
 1237 80 l 1
 1228 0 l 1
 713 0 l 1
 725 74 l 1
 896 129 l 1
 787 432 l 1
 368 432 l 1
 256 124 l 1
 442 80 l 1
 431 0 l 1
 -37 0 l 1xc0
406 534 m 1
 758 534 l 1
 592 1034 l 1
 406 534 l 1
406 1383 m 1
 406 1383 440 1526 529 1526 c 0
 533 1526 539 1527 543 1526 c 2xd0
 764 1496 l 1
 768 1496 l 2
 793 1496 825 1536 825 1536 c 1
 872 1535 l 1
 872 1535 835 1391 743 1391 c 0xe0
 739 1391 734 1391 730 1392 c 2
 507 1423 l 1
 504 1423 l 2xd0
 476 1423 445 1376 445 1376 c 1
 406 1383 l 1
EndSplineSet
Fore
Refer: 192 732 N 1 0 0 1 650 25 2
Refer: 21 65 N 1 0 0 1 0 0 3
Colour: ffffff
EndChar

StartChar: Adieresis
Encoding: 131 196 106
Width: 1379
VWidth: 0
Flags: HMW
LayerCount: 3
Back
SplineSet
-37 0 m 1
 -28 74 l 1
 121 129 l 1
 559 1237 l 1
 710 1268 l 1
 1100 124 l 1
 1237 80 l 1
 1228 0 l 1
 713 0 l 1
 725 74 l 1
 896 129 l 1
 787 432 l 1
 368 432 l 1
 256 124 l 1
 442 80 l 1
 431 0 l 1
 -37 0 l 1
406 534 m 1
 758 534 l 1
 592 1034 l 1
 406 534 l 1
423 1453 m 0
 423 1500 466 1530 506 1530 c 0
 550 1530 592 1499 592 1453 c 0
 592 1404 550 1373 506 1373 c 0
 463 1373 423 1404 423 1453 c 0
690 1453 m 0
 690 1500 733 1530 773 1530 c 0
 817 1530 861 1499 861 1453 c 0
 861 1404 817 1373 773 1373 c 0
 730 1373 690 1404 690 1453 c 0
EndSplineSet
Fore
Refer: 87 168 N 1 0 0 1 401 11 2
Refer: 21 65 N 1 0 0 1 0 0 3
Colour: ffffff
EndChar

StartChar: Aring
Encoding: 132 197 107
Width: 1379
VWidth: 0
Flags: HMW
LayerCount: 3
Back
SplineSet
-37 0 m 1
 -28 74 l 1
 121 129 l 1
 559 1237 l 1
 710 1268 l 1
 1100 124 l 1
 1237 80 l 1
 1228 0 l 1
 713 0 l 1
 725 74 l 1
 896 129 l 1
 787 432 l 1
 368 432 l 1
 256 124 l 1
 442 80 l 1
 431 0 l 1
 -37 0 l 1
406 534 m 1
 758 534 l 1
 592 1034 l 1
 406 534 l 1
480 1532 m 0
 480 1624 556 1704 649 1704 c 0
 745 1704 804 1635 804 1542 c 0
 804 1452 738 1367 636 1367 c 0
 544 1367 480 1430 480 1532 c 0
552 1543 m 0
 552 1482 583 1415 647 1415 c 0
 701 1415 734 1456 734 1529 c 0
 734 1591 698 1656 636 1656 c 0
 577 1656 552 1599 552 1543 c 0
EndSplineSet
Fore
Refer: 191 730 N 1 0 0 1 719 -99 2
Refer: 21 65 N 1 0 0 1 0 0 3
Colour: ffffff
EndChar

StartChar: Ccedilla
Encoding: 134 199 108
Width: 1190
VWidth: 0
Flags: HMW
LayerCount: 3
Back
SplineSet
61 589 m 0
 61 884 247 1269 705 1269 c 0
 837 1269 970 1242 1066 1169 c 1
 1035 837 l 1
 947 850 l 1
 906 1070 l 1
 860 1129 776 1174 647 1174 c 0
 439 1174 275 980 275 658 c 0
 275 299 492 111 729 111 c 0
 863 111 992 182 1078 261 c 1
 1114 185 l 1
 1047 104 910 9 743 -18 c 1
 703 -76 l 1
 740 -109 792 -160 792 -227 c 0
 792 -306 708 -355 592 -389 c 1
 572 -331 l 1
 629 -312 658 -278 658 -248 c 0
 658 -214 621 -172 585 -138 c 1
 663 -24 l 1
 652 -24 l 2
 345 -24 61 190 61 589 c 0
EndSplineSet
Fore
Refer: 98 184 N 1 0 0 1 371 -15 2
Refer: 23 67 N 1 0 0 1 0 0 3
Colour: ffffff
EndChar

StartChar: Egrave
Encoding: 135 200 109
Width: 1259
VWidth: 0
Flags: HMW
LayerCount: 3
Back
SplineSet
50 1168 m 1x6f
 61 1244 l 1
 1056 1244 l 1x6f
 1025 924 l 1
 938 937 l 1
 897 1152 l 1
 426 1152 l 1
 426 676 l 1
 716 676 l 1
 758 796 l 1
 853 810 l 1
 819 421 l 1
 734 408 l 1
 700 583 l 1
 426 583 l 1
 426 96 l 1
 921 96 l 1xb7
 1019 326 l 1
 1102 313 l 1
 1072 0 l 1
 57 0 l 1
 65 74 l 1
 232 121 l 1
 232 1126 l 1
 50 1168 l 1x6f
443 1664 m 1
 559 1702 l 1
 691 1368 l 1
 633 1334 l 1
 443 1664 l 1
EndSplineSet
Fore
Refer: 52 96 N 1 0 0 1 439 66 2
Refer: 25 69 N 1 0 0 1 0 0 3
Colour: ffffff
EndChar

StartChar: Eacute
Encoding: 136 201 110
Width: 1259
VWidth: 0
Flags: HMW
LayerCount: 3
Back
SplineSet
50 1168 m 1x6f
 61 1244 l 1
 1056 1244 l 1x6f
 1025 924 l 1
 938 937 l 1
 897 1152 l 1
 426 1152 l 1
 426 676 l 1
 716 676 l 1
 758 796 l 1
 853 810 l 1
 819 421 l 1
 734 408 l 1
 700 583 l 1
 426 583 l 1
 426 96 l 1
 921 96 l 1xb7
 1019 326 l 1
 1102 313 l 1
 1072 0 l 1
 57 0 l 1
 65 74 l 1
 232 121 l 1
 232 1126 l 1
 50 1168 l 1x6f
517 1385 m 1
 640 1710 l 1
 751 1670 l 1
 568 1354 l 1
 517 1385 l 1
EndSplineSet
Fore
Refer: 97 180 N 1 0 0 1 529 47 2
Refer: 25 69 N 1 0 0 1 0 0 3
Colour: ffffff
EndChar

StartChar: Ecircumflex
Encoding: 137 202 111
Width: 1259
VWidth: 0
Flags: HMW
LayerCount: 3
Back
SplineSet
406 1387 m 1
 574 1566 l 1
 629 1581 l 1
 807 1395 l 1
 758 1358 l 1
 595 1468 l 1
 584 1468 l 1
 445 1357 l 1
 406 1387 l 1
75 1168 m 1x6f
 86 1244 l 1
 1081 1244 l 1x6f
 1050 924 l 1
 963 937 l 1
 922 1152 l 1
 451 1152 l 1
 451 676 l 1
 741 676 l 1
 783 796 l 1
 878 810 l 1
 844 421 l 1
 759 408 l 1
 725 583 l 1
 451 583 l 1
 451 96 l 1
 946 96 l 1xb7
 1044 326 l 1
 1127 313 l 1
 1097 0 l 1
 82 0 l 1
 90 74 l 1
 257 121 l 1
 257 1126 l 1
 75 1168 l 1x6f
EndSplineSet
Fore
Refer: 211 710 N 1 0 0 1 466 38 2
Refer: 25 69 N 1 0 0 1 0 0 3
Colour: ffffff
EndChar

StartChar: Edieresis
Encoding: 138 203 112
Width: 1259
VWidth: 0
Flags: HMW
LayerCount: 3
Back
SplineSet
50 1168 m 1x6e60
 61 1244 l 1
 1056 1244 l 1x6e60
 1025 924 l 1
 938 937 l 1
 897 1152 l 1
 426 1152 l 1
 426 676 l 1
 716 676 l 1
 758 796 l 1
 853 810 l 1
 819 421 l 1
 734 408 l 1
 700 583 l 1
 426 583 l 1
 426 96 l 1
 921 96 l 1xb660
 1019 326 l 1
 1102 313 l 1
 1072 0 l 1
 57 0 l 1
 65 74 l 1
 232 121 l 1
 232 1126 l 1
 50 1168 l 1x6e60
380 1453 m 0x2520
 380 1500 423 1530 463 1530 c 0
 507 1530 549 1499 549 1453 c 0
 549 1404 507 1373 463 1373 c 0
 420 1373 380 1404 380 1453 c 0x2520
647 1453 m 0x24a0
 647 1500 690 1530 730 1530 c 0
 774 1530 818 1499 818 1453 c 0
 818 1404 774 1373 730 1373 c 0
 687 1373 647 1404 647 1453 c 0x24a0
EndSplineSet
Fore
Refer: 87 168 N 1 0 0 1 190 11 2
Refer: 25 69 N 1 0 0 1 0 0 3
Colour: ffffff
EndChar

StartChar: Igrave
Encoding: 139 204 113
Width: 828
VWidth: 0
Flags: HMW
LayerCount: 3
Back
SplineSet
50 1168 m 1
 61 1244 l 1
 605 1244 l 1
 595 1168 l 1
 426 1130 l 1
 426 114 l 1
 607 80 l 1
 597 0 l 1
 57 0 l 1
 65 74 l 1
 232 121 l 1
 232 1126 l 1
 50 1168 l 1
133 1664 m 1
 249 1702 l 1
 381 1368 l 1
 323 1334 l 1
 133 1664 l 1
EndSplineSet
Fore
Refer: 52 96 N 1 0 0 1 214 66 2
Refer: 29 73 N 1 0 0 1 0 0 3
Colour: ffffff
EndChar

StartChar: Iacute
Encoding: 140 205 114
Width: 828
VWidth: 0
Flags: HMW
LayerCount: 3
Back
SplineSet
50 1168 m 1
 61 1244 l 1
 605 1244 l 1
 595 1168 l 1
 426 1130 l 1
 426 114 l 1
 607 80 l 1
 597 0 l 1
 57 0 l 1
 65 74 l 1
 232 121 l 1
 232 1126 l 1
 50 1168 l 1
289 1385 m 1
 412 1710 l 1
 523 1670 l 1
 341 1354 l 1
 289 1385 l 1
EndSplineSet
Fore
Refer: 97 180 N 1 0 0 1 304 47 2
Refer: 29 73 N 1 0 0 1 0 0 3
Colour: ffffff
EndChar

StartChar: Icircumflex
Encoding: 141 206 115
Width: 828
VWidth: 0
Flags: HMW
LayerCount: 3
Back
SplineSet
50 1168 m 1
 61 1244 l 1
 605 1244 l 1
 595 1168 l 1
 426 1130 l 1
 426 114 l 1
 607 80 l 1
 597 0 l 1
 57 0 l 1
 65 74 l 1
 232 121 l 1
 232 1126 l 1
 50 1168 l 1
132 1392 m 1
 299 1572 l 1
 354 1585 l 1
 532 1400 l 1
 483 1364 l 1
 319 1472 l 1
 309 1472 l 1
 169 1361 l 1
 132 1392 l 1
EndSplineSet
Fore
Refer: 211 710 N 1 0 0 1 241 38 2
Refer: 29 73 N 1 0 0 1 0 0 3
Colour: ffffff
EndChar

StartChar: Idieresis
Encoding: 142 207 116
Width: 828
VWidth: 0
Flags: HMW
LayerCount: 3
Back
SplineSet
50 1168 m 1xe8
 61 1244 l 1
 605 1244 l 1
 595 1168 l 1
 426 1130 l 1
 426 114 l 1
 607 80 l 1
 597 0 l 1
 57 0 l 1
 65 74 l 1
 232 121 l 1
 232 1126 l 1
 50 1168 l 1xe8
110 1453 m 0xf0
 110 1500 154 1530 194 1530 c 0
 238 1530 279 1499 279 1453 c 0
 279 1404 238 1373 194 1373 c 0
 151 1373 110 1404 110 1453 c 0xf0
377 1453 m 0xe4
 377 1500 421 1530 461 1530 c 0
 505 1530 549 1499 549 1453 c 0
 549 1404 505 1373 461 1373 c 0
 418 1373 377 1404 377 1453 c 0xe4
EndSplineSet
Fore
Refer: 87 168 N 1 0 0 1 -35 11 2
Refer: 29 73 N 1 0 0 1 0 0 3
Colour: ffffff
EndChar

StartChar: Ntilde
Encoding: 144 209 117
Width: 1580
VWidth: 0
Flags: HMW
LayerCount: 3
Back
SplineSet
50 1168 m 1xe6
 61 1244 l 1
 412 1244 l 1
 1054 271 l 1
 1054 1126 l 1
 869 1168 l 1
 881 1244 l 1
 1356 1244 l 1
 1343 1168 l 1
 1176 1130 l 1
 1176 1 l 1
 1023 -30 l 1
 360 961 l 1
 360 114 l 1
 543 80 l 1
 532 0 l 1
 57 0 l 1
 65 74 l 1
 232 121 l 1
 232 1117 l 1
 50 1168 l 1xe6
445 1383 m 1
 445 1383 477 1526 566 1526 c 0
 570 1526 576 1527 580 1526 c 2xee
 802 1496 l 1
 807 1496 l 2
 832 1496 862 1536 862 1536 c 1
 910 1535 l 1
 910 1535 873 1391 781 1391 c 0xf6
 777 1391 772 1391 768 1392 c 2
 546 1423 l 1
 543 1423 l 2xee
 515 1423 483 1376 483 1376 c 1
 445 1383 l 1
EndSplineSet
Fore
Refer: 192 732 N 1 0 0 1 590 25 2
Refer: 34 78 N 1 0 0 1 0 0 3
Colour: ffffff
EndChar

StartChar: Ograve
Encoding: 145 210 118
Width: 1344
VWidth: 0
Flags: HMW
LayerCount: 3
Back
SplineSet
61 619 m 0
 61 1004 308 1272 706 1272 c 0
 1068 1272 1284 970 1284 619 c 0
 1284 274 1051 -27 636 -27 c 0
 291 -27 61 257 61 619 c 0
283 676 m 0
 283 382 398 79 686 79 c 0
 990 79 1062 330 1062 573 c 0
 1062 856 945 1176 658 1176 c 0
 358 1176 283 937 283 676 c 0
527 1664 m 1
 642 1702 l 1
 774 1368 l 1
 717 1334 l 1
 527 1664 l 1
EndSplineSet
Fore
Refer: 52 96 N 1 0 0 1 573 66 2
Refer: 35 79 N 1 0 0 1 0 0 3
Colour: ffffff
EndChar

StartChar: Oacute
Encoding: 146 211 119
Width: 1344
VWidth: 0
Flags: HMW
LayerCount: 3
Back
SplineSet
73 619 m 0
 73 1004 320 1272 718 1272 c 0
 1080 1272 1296 970 1296 619 c 0
 1296 274 1064 -27 649 -27 c 0
 304 -27 73 257 73 619 c 0
295 676 m 0
 295 382 410 79 698 79 c 0
 1002 79 1073 330 1073 573 c 0
 1073 856 957 1176 670 1176 c 0
 370 1176 295 937 295 676 c 0
574 1380 m 1
 696 1705 l 1
 808 1666 l 1
 624 1348 l 1
 574 1380 l 1
EndSplineSet
Fore
Refer: 97 180 N 1 0 0 1 663 47 2
Refer: 35 79 N 1 0 0 1 0 0 3
Colour: ffffff
EndChar

StartChar: Ocircumflex
Encoding: 147 212 120
Width: 1344
VWidth: 0
Flags: HMW
LayerCount: 3
Back
SplineSet
61 619 m 0
 61 1004 308 1272 706 1272 c 0
 1068 1272 1284 970 1284 619 c 0
 1284 274 1051 -27 636 -27 c 0
 291 -27 61 257 61 619 c 0
283 676 m 0
 283 382 398 79 686 79 c 0
 990 79 1062 330 1062 573 c 0
 1062 856 945 1176 658 1176 c 0
 358 1176 283 937 283 676 c 0
484 1392 m 1
 652 1572 l 1
 707 1585 l 1
 885 1400 l 1
 836 1364 l 1
 672 1472 l 1
 662 1472 l 1
 522 1361 l 1
 484 1392 l 1
EndSplineSet
Fore
Refer: 211 710 N 1 0 0 1 601 38 2
Refer: 35 79 N 1 0 0 1 0 0 3
Colour: ffffff
EndChar

StartChar: Otilde
Encoding: 148 213 121
Width: 1344
VWidth: 0
Flags: HMW
LayerCount: 3
Back
SplineSet
61 619 m 0xcc
 61 1004 308 1272 706 1272 c 0
 1068 1272 1284 970 1284 619 c 0
 1284 274 1051 -27 636 -27 c 0
 291 -27 61 257 61 619 c 0xcc
283 676 m 0
 283 382 398 79 686 79 c 0
 990 79 1062 330 1062 573 c 0
 1062 856 945 1176 658 1176 c 0
 358 1176 283 937 283 676 c 0
448 1383 m 1
 448 1383 479 1526 568 1526 c 0
 572 1526 577 1527 581 1526 c 2xdc
 805 1496 l 1
 810 1496 l 2
 835 1496 866 1536 866 1536 c 1
 913 1535 l 1
 913 1535 875 1391 783 1391 c 0xec
 779 1391 775 1391 771 1392 c 2
 547 1423 l 1
 546 1423 l 2xdc
 518 1423 485 1376 485 1376 c 1
 448 1383 l 1
EndSplineSet
Fore
Refer: 192 732 N 1 0 0 1 574 25 2
Refer: 35 79 N 1 0 0 1 0 0 3
Colour: ffffff
EndChar

StartChar: Odieresis
Encoding: 149 214 122
Width: 1344
VWidth: 0
Flags: HMW
LayerCount: 3
Back
SplineSet
61 619 m 0
 61 1004 308 1272 706 1272 c 0
 1068 1272 1284 970 1284 619 c 0
 1284 274 1051 -27 636 -27 c 0
 291 -27 61 257 61 619 c 0
283 676 m 0
 283 382 398 79 686 79 c 0
 990 79 1062 330 1062 573 c 0
 1062 856 945 1176 658 1176 c 0
 358 1176 283 937 283 676 c 0
463 1453 m 0
 463 1500 507 1530 547 1530 c 0
 591 1530 632 1499 632 1453 c 0
 632 1404 591 1373 547 1373 c 0
 504 1373 463 1404 463 1453 c 0
730 1453 m 0
 730 1500 774 1530 814 1530 c 0
 858 1530 902 1499 902 1453 c 0
 902 1404 858 1373 814 1373 c 0
 771 1373 730 1404 730 1453 c 0
EndSplineSet
Fore
Refer: 87 168 N 1 0 0 1 325 11 2
Refer: 35 79 N 1 0 0 1 0 0 3
Colour: ffffff
EndChar

StartChar: Ugrave
Encoding: 152 217 123
Width: 1458
VWidth: 0
Flags: HMW
LayerCount: 3
Back
SplineSet
475 1659 m 1
 590 1697 l 1
 722 1364 l 1
 666 1329 l 1
 475 1659 l 1
37 1168 m 1
 50 1244 l 1
 592 1244 l 1
 583 1168 l 1
 414 1130 l 1
 414 510 l 2
 414 225 557 105 762 105 c 0
 964 105 1086 221 1087 482 c 2
 1090 1126 l 1
 907 1168 l 1
 917 1244 l 1
 1395 1244 l 1
 1384 1168 l 1
 1218 1130 l 1
 1213 515 l 2
 1210 155 1059 -27 712 -27 c 0
 481 -27 221 48 221 469 c 2
 221 1126 l 1
 37 1168 l 1
EndSplineSet
Fore
Refer: 52 96 N 1 0 0 1 599 66 2
Refer: 41 85 N 1 0 0 1 0 0 3
Colour: ffffff
EndChar

StartChar: Uacute
Encoding: 153 218 124
Width: 1458
VWidth: 0
Flags: HMW
LayerCount: 3
Back
SplineSet
633 1380 m 1
 756 1705 l 1
 867 1666 l 5
 684 1348 l 1
 633 1380 l 1
633 1380 m 1
 756 1705 l 1
 867 1666 l 5
 684 1348 l 1
 633 1380 l 1
37 1168 m 1
 50 1244 l 1
 592 1244 l 1
 583 1168 l 1
 414 1130 l 1
 414 510 l 2
 414 225 557 105 762 105 c 0
 964 105 1086 221 1087 482 c 2
 1090 1126 l 1
 907 1168 l 1
 917 1244 l 1
 1395 1244 l 1
 1384 1168 l 1
 1218 1130 l 1
 1213 515 l 2
 1210 155 1059 -27 712 -27 c 0
 481 -27 221 48 221 469 c 2
 221 1126 l 1
 37 1168 l 1
EndSplineSet
Fore
Refer: 97 180 N 1 0 0 1 689 47 2
Refer: 41 85 N 1 0 0 1 0 0 3
Colour: ffffff
EndChar

StartChar: Ucircumflex
Encoding: 154 219 125
Width: 1458
VWidth: 0
Flags: HMW
LayerCount: 3
Back
SplineSet
22 1168 m 1
 35 1244 l 1
 577 1244 l 1
 568 1168 l 1
 399 1130 l 1
 399 510 l 2
 399 225 542 105 747 105 c 0
 949 105 1071 221 1072 482 c 2
 1075 1126 l 1
 892 1168 l 1
 902 1244 l 1
 1380 1244 l 1
 1369 1168 l 1
 1203 1130 l 1
 1198 515 l 2
 1195 155 1044 -27 697 -27 c 0
 466 -27 206 48 206 469 c 2
 206 1126 l 1
 22 1168 l 1
537 1392 m 1
 704 1572 l 1
 759 1585 l 1
 937 1400 l 1
 887 1364 l 1
 724 1472 l 1
 713 1472 l 1
 574 1361 l 1
 537 1392 l 1
EndSplineSet
Fore
Refer: 211 710 N 1 0 0 1 627 38 2
Refer: 41 85 N 1 0 0 1 0 0 3
Colour: ffffff
EndChar

StartChar: Udieresis
Encoding: 155 220 126
Width: 1458
VWidth: 0
Flags: HMW
LayerCount: 3
Back
SplineSet
22 1168 m 1
 35 1244 l 1
 577 1244 l 1
 568 1168 l 1
 399 1130 l 1
 399 510 l 2
 399 225 542 105 747 105 c 0
 949 105 1071 221 1072 482 c 2
 1075 1126 l 1
 892 1168 l 1
 902 1244 l 1
 1380 1244 l 1
 1369 1168 l 1
 1203 1130 l 1
 1198 515 l 2
 1195 155 1044 -27 697 -27 c 0
 466 -27 206 48 206 469 c 2
 206 1126 l 1
 22 1168 l 1
515 1453 m 0
 515 1500 558 1530 598 1530 c 0
 642 1530 684 1499 684 1453 c 0
 684 1404 642 1373 598 1373 c 0
 555 1373 515 1404 515 1453 c 0
782 1453 m 0
 782 1500 826 1530 866 1530 c 0
 910 1530 953 1499 953 1453 c 0
 953 1404 910 1373 866 1373 c 0
 823 1373 782 1404 782 1453 c 0
EndSplineSet
Fore
Refer: 87 168 N 1 0 0 1 350 11 2
Refer: 41 85 N 1 0 0 1 0 0 3
Colour: ffffff
EndChar

StartChar: Yacute
Encoding: 156 221 127
Width: 1225
VWidth: 0
Flags: HMW
LayerCount: 3
Back
SplineSet
455 1380 m 1
 578 1705 l 1
 689 1666 l 5
 506 1348 l 1
 455 1380 l 1
-73 1168 m 1
 -60 1244 l 1
 448 1244 l 1
 436 1168 l 1
 278 1130 l 1
 555 640 l 1
 819 1126 l 1
 636 1168 l 1
 646 1244 l 1
 1091 1244 l 1
 1081 1168 l 1
 956 1130 l 1
 611 529 l 1
 611 114 l 1
 774 80 l 1
 764 0 l 1
 258 0 l 1
 268 74 l 1
 418 121 l 1
 418 504 l 1
 65 1126 l 1
 -73 1168 l 1
EndSplineSet
Fore
Refer: 97 180 N 1 0 0 1 595 47 2
Refer: 45 89 N 1 0 0 1 0 0 3
Colour: ffffff
EndChar

StartChar: agrave
Encoding: 159 224 128
Width: 807
VWidth: 0
Flags: HMW
LayerCount: 3
Back
SplineSet
158 1291 m 1
 273 1329 l 1
 405 996 l 1
 349 961 l 1
 158 1291 l 1
28 168 m 4xba
 28 315 163 462 489 485 c 5
 489 540 l 6
 489 675 450 807 312 807 c 4
 216 807 215 756 201 592 c 5
 148 592 62 596 62 695 c 4
 62 804 266 900 404 900 c 4
 582 900 651 804 651 593 c 6
 651 230 l 6
 651 138 670 111 763 96 c 6
 813 87 l 5
 800 1 l 5x76
 753 -5 723 -18 664 -18 c 4
 548 -18 509 57 509 116 c 6
 509 131 l 5
 498 131 l 5
 471 78 388 -24 224 -24 c 4
 119 -24 28 46 28 168 c 4xba
203 215 m 4xba
 203 165 241 99 315 99 c 4
 385 99 456 151 489 188 c 5
 489 428 l 5
 271 385 203 311 203 215 c 4xba
EndSplineSet
Fore
Refer: 52 96 N 1 0 0 1 278 -314 2
Refer: 53 97 N 1 0 0 1 0 0 3
Colour: ffffff
EndChar

StartChar: aacute
Encoding: 160 225 129
Width: 807
VWidth: 0
Flags: HMW
LayerCount: 3
Back
SplineSet
47 168 m 0xba
 47 315 182 462 508 485 c 1
 508 540 l 2
 508 675 469 804 331 804 c 0
 235 804 235 716 220 592 c 1
 167 592 81 596 81 695 c 0
 81 804 285 900 423 900 c 0
 601 900 670 804 670 593 c 2
 670 230 l 2
 670 138 689 111 782 96 c 2
 832 87 l 1
 819 1 l 1x76
 772 -5 742 -18 683 -18 c 0
 567 -18 528 57 528 116 c 2
 528 131 l 1
 517 131 l 1
 490 78 407 -24 243 -24 c 0
 138 -24 47 46 47 168 c 0xba
222 215 m 0xba
 222 165 260 99 334 99 c 0
 404 99 475 151 508 188 c 1
 508 428 l 1
 290 385 222 311 222 215 c 0xba
328 1017 m 1
 451 1342 l 1
 562 1302 l 1
 380 985 l 1
 328 1017 l 1
EndSplineSet
Fore
Refer: 97 180 N 1 0 0 1 368 -333 2
Refer: 53 97 N 1 0 0 1 0 0 3
Colour: ffffff
EndChar

StartChar: acircumflex
Encoding: 161 226 130
Width: 807
VWidth: 0
Flags: HMW
LayerCount: 3
Back
SplineSet
47 168 m 0xba
 47 315 182 462 508 485 c 1
 508 540 l 2
 508 675 469 804 331 804 c 0
 235 804 235 716 220 592 c 1
 167 592 81 596 81 695 c 0
 81 804 285 900 423 900 c 0
 601 900 670 804 670 593 c 2
 670 230 l 2
 670 138 689 111 782 96 c 2
 832 87 l 1
 819 1 l 1x76
 772 -5 742 -18 683 -18 c 0
 567 -18 528 57 528 116 c 2
 528 131 l 1
 517 131 l 1
 490 78 407 -24 243 -24 c 0
 138 -24 47 46 47 168 c 0xba
211 1024 m 1
 380 1203 l 1
 434 1217 l 1
 611 1032 l 1
 562 995 l 1
 399 1104 l 1
 389 1104 l 1
 249 993 l 1
 211 1024 l 1
222 215 m 0xba
 222 165 260 99 334 99 c 0
 404 99 475 151 508 188 c 1
 508 428 l 1
 290 385 222 311 222 215 c 0xba
EndSplineSet
Fore
Refer: 211 710 N 1 0 0 1 306 -342 2
Refer: 53 97 N 1 0 0 1 0 0 3
Colour: ffffff
EndChar

StartChar: atilde
Encoding: 162 227 131
Width: 807
VWidth: 0
Flags: HMW
LayerCount: 3
Back
SplineSet
47 168 m 0xb280
 47 315 182 462 508 485 c 1
 508 540 l 2
 508 675 469 804 331 804 c 0
 235 804 235 716 220 592 c 1
 167 592 81 596 81 695 c 0
 81 804 285 900 423 900 c 0
 601 900 670 804 670 593 c 2
 670 230 l 2
 670 138 689 111 782 96 c 2
 832 87 l 1
 819 1 l 1x7180
 772 -5 742 -18 683 -18 c 0
 567 -18 528 57 528 116 c 2
 528 131 l 1
 517 131 l 1
 490 78 407 -24 243 -24 c 0
 138 -24 47 46 47 168 c 0xb280
175 1015 m 1
 175 1015 207 1158 296 1158 c 0x3480
 300 1158 305 1158 309 1157 c 2
 532 1127 l 1
 537 1127 l 2
 562 1127 592 1169 592 1169 c 1
 640 1167 l 1
 640 1167 602 1023 510 1023 c 0x3880
 506 1023 501 1023 497 1024 c 2
 275 1054 l 1
 271 1054 l 2x3480
 243 1054 212 1007 212 1007 c 1
 175 1015 l 1
222 215 m 0xb280
 222 165 260 99 334 99 c 0
 404 99 475 151 508 188 c 1
 508 428 l 1
 290 385 222 311 222 215 c 0xb280
EndSplineSet
Fore
Refer: 192 732 N 1 0 0 1 279 -355 2
Refer: 53 97 N 1 0 0 1 0 0 3
Colour: ffffff
EndChar

StartChar: adieresis
Encoding: 163 228 132
Width: 807
VWidth: 0
Flags: HMW
LayerCount: 3
Back
SplineSet
47 168 m 0xbc40
 47 315 182 462 508 485 c 1
 508 540 l 2
 508 675 469 804 331 804 c 0
 235 804 235 716 220 592 c 1
 167 592 81 596 81 695 c 0
 81 804 285 900 423 900 c 0
 601 900 670 804 670 593 c 2
 670 230 l 2
 670 138 689 111 782 96 c 2
 832 87 l 1
 819 1 l 1x7a40
 772 -5 742 -18 683 -18 c 0
 567 -18 528 57 528 116 c 2
 528 131 l 1
 517 131 l 1
 490 78 407 -24 243 -24 c 0
 138 -24 47 46 47 168 c 0xbc40
189 1084 m 0x39
 189 1131 233 1163 273 1163 c 0
 317 1163 359 1130 359 1084 c 0
 359 1035 317 1004 273 1004 c 0
 230 1004 189 1035 189 1084 c 0x39
222 215 m 0xbc40
 222 165 260 99 334 99 c 0
 404 99 475 151 508 188 c 1
 508 428 l 1
 290 385 222 311 222 215 c 0xbc40
457 1084 m 0x3880
 457 1131 500 1163 540 1163 c 0
 584 1163 628 1130 628 1084 c 0
 628 1035 584 1004 540 1004 c 0
 497 1004 457 1035 457 1084 c 0x3880
EndSplineSet
Fore
Refer: 87 168 N 1 0 0 1 29 -369 2
Refer: 53 97 N 1 0 0 1 0 0 3
Colour: ffffff
EndChar

StartChar: aring
Encoding: 164 229 133
Width: 807
VWidth: 0
Flags: HMW
LayerCount: 3
Back
SplineSet
47 168 m 0xbea0
 47 315 182 462 508 485 c 1
 508 540 l 2
 508 675 469 804 331 804 c 0
 235 804 235 716 220 592 c 1
 167 592 81 596 81 695 c 0
 81 804 285 900 423 900 c 0
 601 900 670 804 670 593 c 2
 670 230 l 2
 670 138 689 111 782 96 c 2
 832 87 l 1
 819 1 l 1x7da0
 772 -5 742 -18 683 -18 c 0
 567 -18 528 57 528 116 c 2
 528 131 l 1
 517 131 l 1
 490 78 407 -24 243 -24 c 0
 138 -24 47 46 47 168 c 0xbea0
222 215 m 0xbea0
 222 165 260 99 334 99 c 0
 404 99 475 151 508 188 c 1
 508 428 l 1
 290 385 222 311 222 215 c 0xbea0
228 1167 m 0
 228 1259 303 1338 396 1338 c 0
 492 1338 551 1270 551 1177 c 0x3cc0
 551 1087 485 1002 383 1002 c 0
 291 1002 228 1065 228 1167 c 0
298 1178 m 0
 298 1117 330 1050 394 1050 c 0
 448 1050 480 1091 480 1164 c 0
 480 1226 446 1291 384 1291 c 0
 325 1291 298 1234 298 1178 c 0
EndSplineSet
Fore
Refer: 191 730 N 1 0 0 1 367 -346 2
Refer: 53 97 N 1 0 0 1 0 0 3
Colour: ffffff
EndChar

StartChar: ccedilla
Encoding: 166 231 134
Width: 708
VWidth: 0
Flags: HMW
LayerCount: 3
Back
SplineSet
54 415 m 0
 54 712 260 900 477 900 c 0
 644 900 719 826 719 747 c 0
 719 688 675 648 592 642 c 1
 564 709 517 806 430 806 c 0
 311 806 233 688 233 507 c 0
 233 340 322 90 530 90 c 0
 629 90 685 121 732 151 c 1
 758 93 l 1
 712 36 608 -17 495 -28 c 1
 461 -76 l 1
 498 -109 550 -160 550 -227 c 0
 550 -306 467 -355 351 -389 c 1
 331 -331 l 1
 388 -312 417 -278 417 -248 c 0
 417 -214 380 -172 344 -138 c 1
 419 -28 l 1
 195 -13 54 185 54 415 c 0
EndSplineSet
Fore
Refer: 98 184 N 1 0 0 1 43 -20 2
Refer: 55 99 N 1 0 0 1 0 0 3
Colour: ffffff
EndChar

StartChar: egrave
Encoding: 167 232 135
Width: 676
VWidth: 0
Flags: HMW
LayerCount: 3
Back
SplineSet
205 1291 m 1
 320 1329 l 1
 452 996 l 1
 396 961 l 1
 205 1291 l 1
45 428 m 0
 45 728 262 899 456 899 c 0
 601 899 723 792 723 581 c 0
 723 550 715 485 707 451 c 1
 223 445 l 1
 231 288 315 102 502 102 c 0
 574.547 102 626.143 101.457 729 157 c 1
 750 104 l 1
 671 21 553 -30 421 -30 c 0
 233 -30 45 124 45 428 c 0
225 523 m 1
 539 546 l 1
 543 562 545 599 545 615 c 0
 545 734 503 801 407 801 c 0
 327 801 235 717 225 523 c 1
EndSplineSet
Fore
Refer: 52 96 N 1 0 0 1 164 -314 2
Refer: 57 101 N 1 0 0 1 0 0 3
Colour: ffffff
EndChar

StartChar: eacute
Encoding: 168 233 136
Width: 676
VWidth: 0
Flags: HMW
LayerCount: 3
Back
SplineSet
363 1012 m 1
 486 1337 l 1
 597 1298 l 5
 414 980 l 1
 363 1012 l 1
45 428 m 0
 45 728 262 899 456 899 c 0
 601 899 723 792 723 581 c 0
 723 550 715 485 707 451 c 1
 223 445 l 1
 231 288 315 102 502 102 c 0
 574.547 102 626.143 101.457 729 157 c 1
 750 104 l 1
 671 21 553 -30 421 -30 c 0
 233 -30 45 124 45 428 c 0
225 523 m 1
 539 546 l 1
 543 562 545 599 545 615 c 0
 545 734 503 801 407 801 c 0
 327 801 235 717 225 523 c 1
EndSplineSet
Fore
Refer: 97 180 N 1 0 0 1 254 -333 2
Refer: 57 101 N 1 0 0 1 0 0 3
Colour: ffffff
EndChar

StartChar: ecircumflex
Encoding: 169 234 137
Width: 676
VWidth: 0
Flags: HMW
LayerCount: 3
Back
SplineSet
53 428 m 0
 53 728 270 899 464 899 c 0
 609 899 731 792 731 581 c 0
 731 550 723 485 715 451 c 1
 231 445 l 1
 239 288 323 102 510 102 c 2
 516 102 l 2
 583 102 637 103 737 157 c 1
 758 104 l 1
 679 21 561 -30 429 -30 c 0
 241 -30 53 124 53 428 c 0
233 523 m 1
 547 546 l 1
 551 562 553 599 553 615 c 0
 553 734 511 801 415 801 c 0
 335 801 243 717 233 523 c 1
233 1024 m 1
 402 1203 l 1
 457 1217 l 1
 633 1032 l 1
 585 995 l 1
 421 1104 l 1
 411 1104 l 1
 271 993 l 1
 233 1024 l 1
EndSplineSet
Fore
Refer: 211 710 N 1 0 0 1 192 -342 2
Refer: 57 101 N 1 0 0 1 0 0 3
Colour: ffffff
EndChar

StartChar: edieresis
Encoding: 170 235 138
Width: 676
VWidth: 0
Flags: HMW
LayerCount: 3
Back
SplineSet
53 428 m 0xf2
 53 728 270 899 464 899 c 0
 609 899 731 792 731 581 c 0
 731 550 723 485 715 451 c 1
 231 445 l 1
 239 288 323 102 510 102 c 2
 516 102 l 2
 583 102 637 103 737 157 c 1
 758 104 l 1
 679 21 561 -30 429 -30 c 0
 241 -30 53 124 53 428 c 0xf2
211 1084 m 0xe8
 211 1131 255 1163 295 1163 c 0
 339 1163 381 1130 381 1084 c 0
 381 1035 339 1004 295 1004 c 0
 252 1004 211 1035 211 1084 c 0xe8
233 523 m 1
 547 546 l 1
 551 562 553 599 553 615 c 0xe2
 553 734 511 801 415 801 c 0
 335 801 243 717 233 523 c 1
479 1084 m 0xe4
 479 1131 522 1163 562 1163 c 0
 606 1163 650 1130 650 1084 c 0
 650 1035 606 1004 562 1004 c 0
 519 1004 479 1035 479 1084 c 0xe4
EndSplineSet
Fore
Refer: 87 168 N 1 0 0 1 -85 -369 2
Refer: 57 101 N 1 0 0 1 0 0 3
Colour: ffffff
EndChar

StartChar: igrave
Encoding: 171 236 139
Width: 518
VWidth: 0
Flags: HMW
LayerCount: 3
Back
SplineSet
18 1291 m 1
 133 1329 l 1
 265 996 l 1
 209 961 l 1
 18 1291 l 1
25 0 m 1
 37 79 l 1
 188 116 l 1
 188 731 l 1
 37 786 l 1
 50 862 l 1
 331 885 l 1
 356 860 l 1
 356 116 l 1
 516 80 l 1
 505 0 l 1
 25 0 l 1
EndSplineSet
Fore
SplineSet
185 106 m 9
 285 746 l 17
 155 768 l 1
 165 844 l 1
 439 869 l 1
 459 846 l 1
 343 102 l 17
 469 71 l 1
 452 -2 l 1
 44 -2 l 1
 62 73 l 1
 185 106 l 9
EndSplineSet
Refer: 52 96 N 1 0 0 1 149 -314 2
Colour: ffffff
EndChar

StartChar: iacute
Encoding: 172 237 140
Width: 594
VWidth: 0
Flags: HMW
LayerCount: 3
Back
SplineSet
37 0 m 1
 49 79 l 1
 200 116 l 1
 200 731 l 1
 49 786 l 1
 62 862 l 1
 343 885 l 1
 368 860 l 1
 368 116 l 1
 528 80 l 1
 517 0 l 1
 37 0 l 1
193 1041 m 1
 314 1367 l 1
 427 1327 l 1
 243 1010 l 1
 193 1041 l 1
EndSplineSet
Fore
SplineSet
185 106 m 9
 285 746 l 17
 155 768 l 1
 165 844 l 1
 439 869 l 1
 459 846 l 1
 343 102 l 17
 469 71 l 1
 452 -2 l 1
 44 -2 l 1
 62 73 l 1
 185 106 l 9
EndSplineSet
Refer: 97 180 N 1 0 0 1 239 -333 2
Colour: ffffff
EndChar

StartChar: icircumflex
Encoding: 173 238 141
Width: 698
VWidth: 0
Flags: HMW
LayerCount: 3
Back
SplineSet
37 0 m 1
 49 79 l 1
 200 116 l 1
 200 731 l 1
 49 786 l 1
 62 862 l 1
 343 885 l 1
 368 860 l 1
 368 116 l 1
 528 80 l 1
 517 0 l 1
 37 0 l 1
76 1048 m 1
 243 1228 l 1
 298 1241 l 1
 476 1057 l 1
 427 1019 l 1
 263 1130 l 1
 253 1130 l 1
 113 1019 l 1
 76 1048 l 1
EndSplineSet
Fore
SplineSet
185 106 m 9
 285 746 l 17
 155 768 l 1
 165 844 l 1
 439 869 l 1
 459 846 l 1
 343 102 l 17
 469 71 l 1
 452 -2 l 1
 44 -2 l 1
 62 73 l 1
 185 106 l 9
EndSplineSet
Refer: 211 710 N 1 0 0 1 177 -342 2
Colour: ffffff
EndChar

StartChar: idieresis
Encoding: 174 239 142
Width: 584
VWidth: 0
Flags: HMW
LayerCount: 3
Back
SplineSet
37 0 m 1xd0
 49 79 l 1
 200 116 l 1
 200 731 l 1
 49 786 l 1
 62 862 l 1
 343 885 l 1
 368 860 l 1
 368 116 l 1
 528 80 l 1
 517 0 l 1
 37 0 l 1xd0
54 1109 m 0xe0
 54 1156 98 1186 138 1186 c 0
 182 1186 223 1155 223 1109 c 0
 223 1060 182 1028 138 1028 c 0
 95 1028 54 1060 54 1109 c 0xe0
321 1109 m 0xc8
 321 1156 366 1186 406 1186 c 0
 450 1186 494 1155 494 1109 c 0
 494 1060 450 1028 406 1028 c 0
 363 1028 321 1060 321 1109 c 0xc8
EndSplineSet
Fore
SplineSet
249 106 m 9
 349 746 l 17
 219 768 l 1
 229 844 l 1
 503 869 l 1
 523 846 l 1
 407 102 l 17
 533 71 l 1
 516 -2 l 1
 108 -2 l 1
 126 73 l 1
 249 106 l 9
EndSplineSet
Refer: 87 168 N 1 0 0 1 -35 -369 2
Colour: ffffff
EndChar

StartChar: ntilde
Encoding: 176 241 143
Width: 924
VWidth: 0
Flags: HMW
LayerCount: 3
Back
SplineSet
37 0 m 1xcc
 47 73 l 1
 198 114 l 1
 198 721 l 1
 44 773 l 1
 54 849 l 1
 352 888 l 1
 369 869 l 1
 352 741 l 1
 362 741 l 1
 429 821 537 899 663 899 c 0
 820 899 904 794 904 616 c 2
 904 114 l 1
 1048 79 l 1
 1038 0 l 1
 589 0 l 1
 599 73 l 1
 737 114 l 1
 737 577 l 2
 737 706 662 761 563 761 c 0
 490 761 416 731 366 675 c 1
 366 114 l 1
 515 79 l 1
 501 0 l 1
 37 0 l 1xcc
302 1015 m 1
 302 1015 335 1158 424 1158 c 0xdc
 428 1158 434 1158 438 1157 c 2
 660 1127 l 1
 664 1127 l 2
 689 1127 721 1169 721 1169 c 1
 768 1167 l 1
 768 1167 730 1023 638 1023 c 0xec
 634 1023 630 1023 626 1024 c 2
 402 1054 l 1
 400 1054 l 2xdc
 372 1054 341 1007 341 1007 c 1
 302 1015 l 1
EndSplineSet
Fore
Refer: 192 732 N 1 0 0 1 203 -355 2
Refer: 66 110 N 1 0 0 1 0 0 3
Colour: ffffff
EndChar

StartChar: ograve
Encoding: 177 242 144
Width: 819
VWidth: 0
Flags: HMW
LayerCount: 3
Back
SplineSet
52 426 m 0
 52 730 264 903 487 903 c 0
 733 903 882 716 882 441 c 0
 882 162 696 -27 463 -27 c 0
 199 -27 52 169 52 426 c 0
230 497 m 0
 230 291 300 70 497 70 c 0
 638 70 704 218 704 359 c 0
 704 557 635 798 445 798 c 0
 294 798 230 654 230 497 c 0
314 1296 m 1
 430 1334 l 1
 562 1000 l 1
 504 965 l 1
 314 1296 l 1
EndSplineSet
Fore
Refer: 52 96 N 1 0 0 1 204.639 -314 2
Refer: 67 111 N 1 0 0 1 0 0 3
Colour: ffffff
EndChar

StartChar: oacute
Encoding: 178 243 145
Width: 819
VWidth: 0
Flags: HMW
LayerCount: 3
Back
SplineSet
52 426 m 0
 52 730 264 903 487 903 c 0
 733 903 882 716 882 441 c 0
 882 162 696 -27 463 -27 c 0
 199 -27 52 169 52 426 c 0
230 497 m 0
 230 291 300 70 497 70 c 0
 638 70 704 218 704 359 c 0
 704 557 635 798 445 798 c 0
 294 798 230 654 230 497 c 0
389 1017 m 1
 512 1342 l 1
 623 1302 l 1
 440 985 l 1
 389 1017 l 1
EndSplineSet
Fore
Refer: 97 180 N 1 0 0 1 294.639 -333 2
Refer: 67 111 N 1 0 0 1 0 0 3
Colour: ffffff
EndChar

StartChar: ocircumflex
Encoding: 179 244 146
Width: 819
VWidth: 0
Flags: HMW
LayerCount: 3
Back
SplineSet
52 426 m 0
 52 730 264 903 487 903 c 0
 733 903 882 716 882 441 c 0
 882 162 696 -27 463 -27 c 0
 199 -27 52 169 52 426 c 0
230 497 m 0
 230 291 300 70 497 70 c 0
 638 70 704 218 704 359 c 0
 704 557 635 798 445 798 c 0
 294 798 230 654 230 497 c 0
271 1024 m 1
 440 1203 l 1
 495 1217 l 1
 673 1032 l 1
 623 995 l 1
 460 1104 l 1
 449 1104 l 1
 310 993 l 1
 271 1024 l 1
EndSplineSet
Fore
Refer: 211 710 N 1 0 0 1 232.639 -342 2
Refer: 67 111 N 1 0 0 1 0 0 3
Colour: ffffff
EndChar

StartChar: otilde
Encoding: 180 245 147
Width: 819
VWidth: 0
Flags: HMW
LayerCount: 3
Back
SplineSet
52 426 m 0xcc
 52 730 264 903 487 903 c 0
 733 903 882 716 882 441 c 0
 882 162 696 -27 463 -27 c 0
 199 -27 52 169 52 426 c 0xcc
230 497 m 0
 230 291 300 70 497 70 c 0
 638 70 704 218 704 359 c 0
 704 557 635 798 445 798 c 0
 294 798 230 654 230 497 c 0
236 1015 m 1
 236 1015 268 1158 357 1158 c 0xdc
 361 1158 367 1158 371 1157 c 2
 594 1127 l 1
 598 1127 l 2
 623 1127 653 1169 653 1169 c 1
 701 1167 l 1
 701 1167 664 1023 572 1023 c 0xec
 568 1023 563 1023 559 1024 c 2
 337 1054 l 1
 334 1054 l 2xdc
 306 1054 274 1007 274 1007 c 1
 236 1015 l 1
EndSplineSet
Fore
Refer: 192 732 N 1 0 0 1 205.639 -355 2
Refer: 67 111 N 1 0 0 1 0 0 3
Colour: ffffff
EndChar

StartChar: odieresis
Encoding: 181 246 148
Width: 819
VWidth: 0
Flags: HMW
LayerCount: 3
Back
SplineSet
52 426 m 0
 52 730 264 903 487 903 c 0
 733 903 882 716 882 441 c 0
 882 162 696 -27 463 -27 c 0
 199 -27 52 169 52 426 c 0
230 497 m 0
 230 291 300 70 497 70 c 0
 638 70 704 218 704 359 c 0
 704 557 635 798 445 798 c 0
 294 798 230 654 230 497 c 0
251 1084 m 0
 251 1131 294 1163 334 1163 c 0
 378 1163 420 1130 420 1084 c 0
 420 1035 378 1004 334 1004 c 0
 291 1004 251 1035 251 1084 c 0
518 1084 m 0
 518 1131 562 1163 602 1163 c 0
 646 1163 690 1130 690 1084 c 0
 690 1035 646 1004 602 1004 c 0
 559 1004 518 1035 518 1084 c 0
EndSplineSet
Fore
Refer: 87 168 N 1 0 0 1 -43.3612 -369 2
Refer: 67 111 N 1 0 0 1 0 0 3
Colour: ffffff
EndChar

StartChar: ugrave
Encoding: 184 249 149
Width: 884
VWidth: 0
Flags: HMW
LayerCount: 3
Back
SplineSet
19 783 m 1xb8
 33 862 l 1
 301 883 l 1
 326 859 l 1
 326 317 l 2
 326 166 390 114 480 114 c 0xb8
 570 114 623 147 666 191 c 1
 666 722 l 1
 507 764 l 1
 517 856 l 1
 811 883 l 1
 832 859 l 1
 832 215 l 2
 832 115 874 104 940 89 c 2
 986 79 l 1
 977 -4 l 1x78
 915 -19 885 -23 826 -23 c 0
 726 -23 679 39 679 122 c 2
 679 131 l 1
 666 131 l 1
 596 29 501 -23 380 -23 c 0
 251 -23 157 52 157 267 c 2
 157 728 l 1
 19 783 l 1xb8
342 1296 m 1
 458 1334 l 1
 589 1000 l 1
 532 965 l 1
 342 1296 l 1
EndSplineSet
Fore
Refer: 52 96 N 1 0 0 1 351 -314 2
Refer: 73 117 N 1 0 0 1 0 0 3
Colour: ffffff
EndChar

StartChar: uacute
Encoding: 185 250 150
Width: 884
VWidth: 0
Flags: HMW
LayerCount: 3
Back
SplineSet
19 783 m 1xb8
 33 862 l 1
 301 883 l 1
 326 859 l 1
 326 317 l 2
 326 166 390 114 480 114 c 0xb8
 570 114 623 147 666 191 c 1
 666 722 l 1
 507 764 l 1
 517 856 l 1
 811 883 l 1
 832 859 l 1
 832 215 l 2
 832 115 874 104 940 89 c 2
 986 79 l 1
 977 -4 l 1x78
 915 -19 885 -23 826 -23 c 0
 726 -23 679 39 679 122 c 2
 679 131 l 1
 666 131 l 1
 596 29 501 -23 380 -23 c 0
 251 -23 157 52 157 267 c 2
 157 728 l 1
 19 783 l 1xb8
415 1017 m 1
 538 1342 l 1
 650 1302 l 1
 467 985 l 1
 415 1017 l 1
EndSplineSet
Fore
Refer: 97 180 N 1 0 0 1 441 -333 2
Refer: 73 117 N 1 0 0 1 0 0 3
Colour: ffffff
EndChar

StartChar: ucircumflex
Encoding: 186 251 151
Width: 884
VWidth: 0
Flags: HMW
LayerCount: 3
Back
SplineSet
19 783 m 1xb8
 33 862 l 1
 301 883 l 1
 326 859 l 1
 326 317 l 2
 326 166 390 114 480 114 c 0xb8
 570 114 623 147 666 191 c 1
 666 722 l 1
 507 764 l 1
 517 856 l 1
 811 883 l 1
 832 859 l 1
 832 215 l 2
 832 115 874 104 940 89 c 2
 986 79 l 1
 977 -4 l 1x78
 915 -19 885 -23 826 -23 c 0
 726 -23 679 39 679 122 c 2
 679 131 l 1
 666 131 l 1
 596 29 501 -23 380 -23 c 0
 251 -23 157 52 157 267 c 2
 157 728 l 1
 19 783 l 1xb8
299 1024 m 1
 467 1203 l 1
 522 1217 l 1
 700 1032 l 1
 650 995 l 1
 487 1104 l 1
 477 1104 l 1
 338 993 l 1
 299 1024 l 1
EndSplineSet
Fore
Refer: 211 710 N 1 0 0 1 379 -342 2
Refer: 73 117 N 1 0 0 1 0 0 3
Colour: ffffff
EndChar

StartChar: udieresis
Encoding: 187 252 152
Width: 884
VWidth: 0
Flags: HMW
LayerCount: 3
Back
SplineSet
19 783 m 1xb9
 33 862 l 1
 301 883 l 1
 326 859 l 1
 326 317 l 2
 326 166 390 114 480 114 c 0xb9
 570 114 623 147 666 191 c 1
 666 722 l 1
 507 764 l 1
 517 856 l 1
 811 883 l 1
 832 859 l 1
 832 215 l 2
 832 115 874 104 940 89 c 2
 986 79 l 1
 977 -4 l 1x79
 915 -19 885 -23 826 -23 c 0
 726 -23 679 39 679 122 c 2
 679 131 l 1
 666 131 l 1
 596 29 501 -23 380 -23 c 0
 251 -23 157 52 157 267 c 2
 157 728 l 1
 19 783 l 1xb9
279 1084 m 0x34
 279 1131 322 1163 362 1163 c 0
 406 1163 448 1130 448 1084 c 0
 448 1035 406 1004 362 1004 c 0
 319 1004 279 1035 279 1084 c 0x34
546 1084 m 0x32
 546 1131 589 1163 629 1163 c 0
 673 1163 717 1130 717 1084 c 0
 717 1035 673 1004 629 1004 c 0
 586 1004 546 1035 546 1084 c 0x32
EndSplineSet
Fore
Refer: 87 168 N 1 0 0 1 102 -369 2
Refer: 73 117 N 1 0 0 1 0 0 3
Colour: ffffff
EndChar

StartChar: yacute
Encoding: 188 253 153
Width: 778
VWidth: 0
Flags: HMW
LayerCount: 3
Back
SplineSet
408 1012 m 1
 531 1337 l 1
 642 1298 l 5
 459 980 l 1
 408 1012 l 1
2 -261 m 0
 2 -221 12 -181 58 -141 c 1
 112 -178 156 -194 209 -194 c 0
 258 -194 326 -183 380 -49 c 2
 400 0 l 1
 115 758 l 1
 -9 796 l 1
 2 873 l 1
 422 873 l 1
 413 799 l 1
 286 761 l 1
 490 222 l 1
 706 756 l 1
 575 798 l 1
 589 873 l 1
 931 873 l 1
 924 799 l 1
 823 758 l 1
 492 -53 l 2
 388 -309 307 -380 156 -380 c 0
 64 -380 2 -318 2 -261 c 0
EndSplineSet
Fore
Refer: 97 180 N 1 0 0 1 254 -333 2
Refer: 77 121 N 1 0 0 1 0 0 3
Colour: ffffff
EndChar

StartChar: ydieresis
Encoding: 190 255 154
Width: 778
VWidth: 0
Flags: HMW
LayerCount: 3
Back
SplineSet
255 1097 m 0
 255 1144 300 1174 340 1174 c 0
 384 1174 426 1143 426 1097 c 0
 426 1048 384 1015 340 1015 c 0
 297 1015 255 1048 255 1097 c 0
523 1097 m 0
 523 1144 568 1174 608 1174 c 0
 652 1174 695 1143 695 1097 c 0
 695 1048 652 1015 608 1015 c 0
 565 1015 523 1048 523 1097 c 0
2 -261 m 0
 2 -221 12 -181 58 -141 c 1
 112 -178 156 -194 209 -194 c 0
 258 -194 326 -183 380 -49 c 2
 400 0 l 1
 115 758 l 1
 -9 796 l 1
 2 873 l 1
 422 873 l 1
 413 799 l 1
 286 761 l 1
 490 222 l 1
 706 756 l 1
 575 798 l 1
 589 873 l 1
 931 873 l 1
 924 799 l 1
 823 758 l 1
 492 -53 l 2
 388 -309 307 -380 156 -380 c 0
 64 -380 2 -318 2 -261 c 0
EndSplineSet
Fore
Refer: 87 168 N 1 0 0 1 -85 -369 2
Refer: 77 121 N 1 0 0 1 0 0 3
Colour: ffffff
EndChar

StartChar: zero
Encoding: -1 48 155
Width: 2048
VWidth: 1651
LayerCount: 3
Back
SplineSet
67 586 m 0
 67 1017 271 1203 492 1203 c 0
 732 1203 900 1020 900 586 c 0
 900 110 685 -27 487 -27 c 0
 263 -27 67 94 67 586 c 0
283 583 m 0
 283 236 321 70 492 70 c 0
 639 70 683 235 683 586 c 0
 683 928 644 1098 485 1098 c 0
 323 1098 283 926 283 583 c 0
EndSplineSet
EndChar

StartChar: one
Encoding: -1 49 156
Width: 2048
VWidth: 1651
LayerCount: 3
Back
SplineSet
40 0 m 5
 47 74 l 5
 311 121 l 5
 311 1031 l 5
 61 1031 l 5
 67 1108 l 5
 488 1185 l 5
 515 1185 l 5
 515 114 l 5
 777 83 l 5
 767 0 l 5
 40 0 l 5
EndSplineSet
EndChar

StartChar: two
Encoding: -1 50 157
Width: 2048
VWidth: 1651
LayerCount: 3
Back
SplineSet
40 102 m 1
 275 299 l 2
 454 448 603 618 603 820 c 0
 603 958 577 1105 415 1105 c 0
 331 1105 260 1052 235 987 c 1
 198 726 l 1
 121 736 l 1
 94 1020 l 1
 152 1120 340 1209 483 1209 c 0
 701 1209 826 1084 826 866 c 0
 826 583 513 343 321 205 c 2
 246 151 l 1
 700 151 l 1
 804 368 l 1
 874 358 l 1
 826 0 l 1
 46 0 l 1
 40 102 l 1
EndSplineSet
EndChar

StartChar: three
Encoding: -1 51 158
Width: 2048
VWidth: 1651
LayerCount: 3
Back
SplineSet
37 74 m 1xe8
 88 373 l 1
 173 360 l 1
 186 157 l 1
 209 115 279 72 349 72 c 0
 505 72 597 148 597 297 c 0xe8
 597 423 463 545 266 545 c 1
 256 611 l 1
 338 637 556 742 556 918 c 0
 556 1018 495 1124 371 1124 c 0
 317 1124 263 1101 227 1068 c 1
 181 812 l 1
 96 823 l 1
 78 1090 l 1
 122 1138 284 1213 429 1213 c 0
 619 1213 768 1125 768 960 c 0xf0
 768 798 604 693 483 649 c 1
 483 637 l 1
 661 613 813 522 813 357 c 0
 813 139 592 -30 328 -30 c 0
 194 -30 65 29 37 74 c 1xe8
EndSplineSet
EndChar

StartChar: seven
Encoding: -1 55 159
Width: 2048
VWidth: 1651
LayerCount: 3
Back
SplineSet
5 809 m 1
 29 1182 l 1
 817 1182 l 1
 817 1130 l 1
 380 -33 l 1
 173 -11 l 1
 662 1015 l 1
 149 1015 l 1
 74 796 l 1
 5 809 l 1
EndSplineSet
EndChar

StartChar: four
Encoding: -1 52 160
Width: 2048
VWidth: 1651
LayerCount: 3
Back
SplineSet
-21 431 m 1
 621 1194 l 1
 686 1176 l 1
 680 1057 676 864 676 683 c 2
 676 479 l 1
 931 479 l 1
 915 346 l 1
 676 346 l 1
 676 105 l 1
 865 73 l 1
 855 0 l 1
 274 0 l 1
 281 66 l 1
 496 111 l 1
 496 349 l 1
 2 349 l 1
 -21 431 l 1
164 479 m 1
 493 479 l 1
 493 912 l 1
 164 479 l 1
EndSplineSet
EndChar

StartChar: five
Encoding: -1 53 161
Width: 2048
VWidth: 1651
LayerCount: 3
Back
SplineSet
-19 74 m 1
 7 387 l 1
 92 368 l 1
 113 155 l 1
 153 93 222 67 304 67 c 0
 431 67 513 156 513 290 c 0
 513 494 357 582 57 602 c 1
 176 1169 l 1
 645 1198 l 1
 619 1016 l 1
 232 1000 l 1
 196 762 l 1
 582 740 689 564 689 354 c 0
 689 156 505 -25 260 -25 c 0
 151 -25 55 -3 -19 74 c 1
EndSplineSet
EndChar

StartChar: eight
Encoding: -1 56 162
Width: 2048
VWidth: 1651
LayerCount: 3
Back
SplineSet
54 280 m 0xe4
 54 393 127 482 287 575 c 1
 287 584 l 1
 191 648 100 732 100 879 c 0
 100 1047 257 1201 451 1201 c 0
 641 1201 770 1077 770 926 c 0xd8
 770 809 680 679 567 639 c 1
 564 629 l 1
 712 521 798 449 798 300 c 0
 798 116 662 -27 396 -27 c 0
 212 -27 54 89 54 280 c 0xe4
243 304 m 0xe4
 243 142 352 61 461 61 c 0
 556 61 628 115 628 236 c 0
 628 349 473 459 354 533 c 1
 288 474 243 442 243 304 c 0xe4
266 955 m 0xd8
 266 862 352 761 497 678 c 1
 571 721 601 771 601 890 c 0
 601 1031 531 1124 426 1124 c 0
 312 1124 266 1035 266 955 c 0xd8
EndSplineSet
EndChar

StartChar: six
Encoding: -1 54 163
Width: 2048
VWidth: 1651
LayerCount: 3
Back
SplineSet
59 421 m 0
 59 756 352 1112 666 1214 c 1
 703 1155 l 1
 442 1036 312 807 272 609 c 1
 283 609 l 1
 327 659 410 709 518 709 c 0
 712 709 849 589 849 370 c 0
 849 133 659 -21 442 -21 c 0
 171 -21 59 187 59 421 c 0
262 406 m 0
 262 235 327 61 449 61 c 0
 611 61 644 174 644 328 c 0
 644 463 587 606 445 606 c 0
 371 606 293 563 269 527 c 1
 266 494 262 440 262 406 c 0
EndSplineSet
EndChar

StartChar: nine
Encoding: -1 57 164
Width: 2048
VWidth: 1651
LayerCount: 3
Back
SplineSet
40 802 m 0
 40 1046 241 1211 432 1211 c 0
 695 1211 813 998 813 764 c 0
 813 365 574 39 198 -27 c 1
 175 47 l 1
 503 144 578 331 597 575 c 1
 584 575 l 1
 518 502 432 466 340 466 c 0
 149 466 40 585 40 802 c 0
240 845 m 0
 240 710 287 575 429 575 c 0
 499 575 569 612 600 662 c 1
 608 708 609 766 609 806 c 0
 609 970 542 1130 426 1130 c 0
 278 1130 240 1023 240 845 c 0
EndSplineSet
EndChar

StartChar: zero
Encoding: 16 48 165
Width: 971
VWidth: 1651
Flags: HMW
LayerCount: 3
Back
SplineSet
67 586 m 0
 67 1017 271 1203 492 1203 c 0
 732 1203 900 1020 900 586 c 0
 900 110 685 -27 487 -27 c 0
 263 -27 67 94 67 586 c 0
283 583 m 0
 283 236 321 70 492 70 c 0
 639 70 683 235 683 586 c 0
 683 928 644 1098 485 1098 c 0
 323 1098 283 926 283 583 c 0
EndSplineSet
Fore
SplineSet
592 1203 m 0
 790 1203 920 1068 920 779 c 0
 920 245 633 -27 393 -27 c 0
 206 -27 51 68 51 383 c 0
 51 885 319 1203 592 1203 c 0
256 335 m 0
 256 184 299 70 413 70 c 0
 599 70 715 490 715 835 c 0
 715 984 674 1098 569 1098 c 0
 366 1098 256 680 256 335 c 0
EndSplineSet
Substitution2: "'onum' Oldstyle Figures lookup 1-1" zero.osf
Colour: ffffff
EndChar

StartChar: one
Encoding: 17 49 166
Width: 837
VWidth: 1651
Flags: HMW
LayerCount: 3
Back
SplineSet
40 0 m 5
 47 74 l 5
 311 121 l 5
 311 1031 l 5
 61 1031 l 5
 67 1108 l 5
 488 1185 l 5
 515 1185 l 5
 515 114 l 5
 777 83 l 5
 767 0 l 5
 40 0 l 5
EndSplineSet
Fore
SplineSet
43 0 m 5
 62 74 l 5
 333 121 l 5
 477 1031 l 5
 227 1031 l 5
 245 1108 l 5
 679 1185 l 5
 706 1185 l 5
 536 114 l 5
 793 83 l 5
 770 0 l 5
 43 0 l 5
EndSplineSet
Substitution2: "'onum' Oldstyle Figures lookup 1-1" one.osf
Colour: ffffff
EndChar

StartChar: two
Encoding: 18 50 167
Width: 1014
VWidth: 1651
Flags: HMW
LayerCount: 3
Back
SplineSet
40 102 m 1
 275 299 l 2
 454 448 603 618 603 820 c 0
 603 958 577 1105 415 1105 c 0
 331 1105 260 1052 235 987 c 1
 198 726 l 1
 121 736 l 1
 94 1020 l 1
 152 1120 340 1209 483 1209 c 0
 701 1209 826 1084 826 866 c 0
 826 583 513 343 321 205 c 2
 246 151 l 1
 700 151 l 1
 804 368 l 1
 874 358 l 1
 826 0 l 1
 46 0 l 1
 40 102 l 1
EndSplineSet
Fore
SplineSet
54 102 m 1
 320 299 l 2
 552 470 741 637 741 927 c 0
 741 1025 708 1105 588 1105 c 0
 504 1105 424 1052 389 987 c 1
 311 726 l 1
 236 736 l 1
 254 1020 l 1
 328 1120 529 1209 672 1209 c 0
 863 1209 968 1113 968 943 c 0
 968 597 579 352 351 205 c 6
 268 151 l 1
 722 151 l 1
 860 368 l 1
 929 358 l 1
 824 0 l 1
 44 0 l 1
 54 102 l 1
EndSplineSet
Substitution2: "'onum' Oldstyle Figures lookup 1-1" two.osf
Colour: ffffff
EndChar

StartChar: three
Encoding: 19 51 168
Width: 962
VWidth: 1651
Flags: HMW
LayerCount: 3
Back
SplineSet
37 74 m 1xe8
 88 373 l 1
 173 360 l 1
 186 157 l 1
 209 115 279 72 349 72 c 0
 505 72 597 148 597 297 c 0xe8
 597 423 463 545 266 545 c 1
 256 611 l 1
 338 637 556 742 556 918 c 0
 556 1018 495 1124 371 1124 c 0
 317 1124 263 1101 227 1068 c 1
 181 812 l 1
 96 823 l 1
 78 1090 l 1
 122 1138 284 1213 429 1213 c 0
 619 1213 768 1125 768 960 c 0xf0
 768 798 604 693 483 649 c 1
 483 637 l 1
 661 613 813 522 813 357 c 0
 813 139 592 -30 328 -30 c 0
 194 -30 65 29 37 74 c 1xe8
EndSplineSet
Fore
SplineSet
43 74 m 1
 141 373 l 1
 224 360 l 1
 205 157 l 1
 221 115 285 72 355 72 c 0
 511 72 641 137 641 305 c 0
 641 420 529 545 347 545 c 1
 347 611 l 1
 439 639 699 733 699 937 c 0
 699 1024 651 1124 543 1124 c 0
 489 1124 431 1101 390 1068 c 1
 304 812 l 1
 221 823 l 1
 245 1090 l 1
 297 1138 470 1213 615 1213 c 0
 789 1213 918 1119 918 980 c 0
 918 788 714 695 580 649 c 1
 578 637 l 1
 738 615 867 516 867 376 c 0
 867 127 583 -30 318 -30 c 0
 184 -30 64 29 43 74 c 1
EndSplineSet
Substitution2: "'onum' Oldstyle Figures lookup 1-1" three.osf
Colour: ffffff
EndChar

StartChar: four
Encoding: 20 52 169
Width: 1051
VWidth: 1651
Flags: HMW
LayerCount: 3
Back
SplineSet
-21 431 m 1
 621 1194 l 1
 686 1176 l 1
 680 1057 676 864 676 683 c 2
 676 479 l 1
 931 479 l 1
 915 346 l 1
 676 346 l 1
 676 105 l 1
 865 73 l 1
 855 0 l 1
 274 0 l 1
 281 66 l 1
 496 111 l 1
 496 349 l 1
 2 349 l 1
 -21 431 l 1
164 479 m 1
 493 479 l 1
 493 912 l 1
 164 479 l 1
EndSplineSet
Fore
SplineSet
45 431 m 1
 808 1194 l 1
 870 1176 l 1
 845 1057 811 864 782 683 c 2
 750 479 l 1
 1005 479 l 1
 968 346 l 1
 729 346 l 1
 690 105 l 1
 874 73 l 1
 853 0 l 1
 272 0 l 1
 289 66 l 1
 511 111 l 1
 549 349 l 1
 55 349 l 1
 45 431 l 1
238 479 m 1
 567 479 l 1
 635 912 l 1
 238 479 l 1
EndSplineSet
Substitution2: "'onum' Oldstyle Figures lookup 1-1" four.osf
Colour: ffffff
EndChar

StartChar: five
Encoding: 21 53 170
Width: 928
VWidth: 1651
Flags: HMW
LayerCount: 3
Back
SplineSet
-19 74 m 1
 7 387 l 1
 92 368 l 1
 113 155 l 1
 153 93 222 67 304 67 c 0
 431 67 513 156 513 290 c 0
 513 494 357 582 57 602 c 1
 176 1169 l 1
 645 1198 l 1
 619 1016 l 1
 232 1000 l 1
 196 762 l 1
 582 740 689 564 689 354 c 0
 689 156 505 -25 260 -25 c 0
 151 -25 55 -3 -19 74 c 1
EndSplineSet
Fore
SplineSet
43 74 m 1
 119 387 l 1
 201 368 l 1
 188 155 l 1
 218 93 283 67 365 67 c 0
 506 67 614 158 614 324 c 0
 614 490 472 584 203 602 c 1
 411 1169 l 1
 885 1198 l 1
 830 1016 l 1
 441 1000 l 1
 367 762 l 1
 699 743 812 588 812 416 c 0
 812 159 579 -25 306 -25 c 0
 197 -25 105 -3 43 74 c 1
EndSplineSet
Substitution2: "'onum' Oldstyle Figures lookup 1-1" five.osf
Colour: ffffff
EndChar

StartChar: six
Encoding: 22 54 171
Width: 894
VWidth: 1651
Flags: HMW
LayerCount: 3
Back
SplineSet
59 421 m 0
 59 756 352 1112 666 1214 c 1
 703 1155 l 1
 442 1036 312 807 272 609 c 1
 283 609 l 1
 327 659 410 709 518 709 c 0
 712 709 849 589 849 370 c 0
 849 133 659 -21 442 -21 c 0
 171 -21 59 187 59 421 c 0
262 406 m 0
 262 235 327 61 449 61 c 0
 611 61 644 174 644 328 c 0
 644 463 587 606 445 606 c 0
 371 606 293 563 269 527 c 1
 266 494 262 440 262 406 c 0
EndSplineSet
Fore
SplineSet
787 1214 m 1
 815 1155 l 1
 535 1036 368 807 297 609 c 1
 308 609 l 1
 360 659 451 709 559 709 c 0
 730 709 843 586 843 413 c 0
 843 128 602 -21 368 -21 c 0
 138 -21 48 138 48 345 c 0
 48 732 438 1106 787 1214 c 1
247 313 m 0
 247 168 291 61 388 61 c 0
 563 61 631 193 631 380 c 0
 631 490 587 606 470 606 c 0
 396 606 311 563 281 527 c 1
 260 477 247 405 247 313 c 0
EndSplineSet
Substitution2: "'onum' Oldstyle Figures lookup 1-1" six.osf
Colour: ffffff
EndChar

StartChar: seven
Encoding: 23 55 172
Width: 961
VWidth: 1651
Flags: HMW
LayerCount: 3
Back
SplineSet
5 809 m 1
 29 1182 l 1
 817 1182 l 1
 817 1130 l 1
 380 -33 l 1
 173 -11 l 1
 662 1015 l 1
 149 1015 l 1
 74 796 l 1
 5 809 l 1
EndSplineSet
Fore
SplineSet
47 809 m 1
 130 1182 l 1
 918 1182 l 1
 910 1130 l 1
 309 -33 l 5
 105 -11 l 5
 737 1015 l 1
 224 1015 l 1
 114 796 l 1
 47 809 l 1
EndSplineSet
Substitution2: "'onum' Oldstyle Figures lookup 1-1" seven.osf
Colour: ffffff
EndChar

StartChar: eight
Encoding: 24 56 173
Width: 914
VWidth: 1651
Flags: HMW
LayerCount: 3
Back
SplineSet
54 280 m 0xe4
 54 393 127 482 287 575 c 1
 287 584 l 1
 191 648 100 732 100 879 c 0
 100 1047 257 1201 451 1201 c 0
 641 1201 770 1077 770 926 c 0xd8
 770 809 680 679 567 639 c 1
 564 629 l 1
 712 521 798 449 798 300 c 0
 798 116 662 -27 396 -27 c 0
 212 -27 54 89 54 280 c 0xe4
243 304 m 0xe4
 243 142 352 61 461 61 c 0
 556 61 628 115 628 236 c 0
 628 349 473 459 354 533 c 1
 288 474 243 442 243 304 c 0xe4
266 955 m 0xd8
 266 862 352 761 497 678 c 1
 571 721 601 771 601 890 c 0
 601 1031 531 1124 426 1124 c 0
 312 1124 266 1035 266 955 c 0xd8
EndSplineSet
Fore
SplineSet
328 575 m 1
 329 584 l 1
 254 640 185 722 185 838 c 0
 185 1043 385 1201 591 1201 c 0
 764 1201 870 1099 870 967 c 0
 870 822 745 682 618 639 c 1
 613 629 l 1
 728 534 810 437 810 322 c 0
 810 98 619 -27 342 -27 c 0
 176 -27 44 68 44 229 c 0
 44 390 139 474 328 575 c 1
238 273 m 0
 238 150 328 61 420 61 c 0
 512 61 617 123 617 256 c 0
 617 362 489 463 388 533 c 1
 316 476 238 424 238 273 c 0
365 930 m 0
 365 844 434 754 554 678 c 1
 642 725 697 793 697 939 c 0
 697 1046 643 1124 554 1124 c 0
 436 1124 365 1026 365 930 c 0
EndSplineSet
Substitution2: "'onum' Oldstyle Figures lookup 1-1" eight.osf
Colour: ffffff
EndChar

StartChar: nine
Encoding: 25 57 174
Width: 873
VWidth: 1651
Flags: HMW
LayerCount: 3
Back
SplineSet
40 802 m 0
 40 1046 241 1211 432 1211 c 0
 695 1211 813 998 813 764 c 0
 813 365 574 39 198 -27 c 1
 175 47 l 1
 503 144 578 331 597 575 c 1
 584 575 l 1
 518 502 432 466 340 466 c 0
 149 466 40 585 40 802 c 0
240 845 m 0
 240 710 287 575 429 575 c 0
 499 575 569 612 600 662 c 1
 608 708 609 766 609 806 c 0
 609 970 542 1130 426 1130 c 0
 278 1130 240 1023 240 845 c 0
EndSplineSet
Fore
SplineSet
518 1211 m 0
 742 1211 824 1047 824 856 c 0
 824 432 481 40 88 -27 c 1
 77 47 l 1
 343 123 522 345 582 575 c 1
 569 575 l 1
 491 502 400 466 308 466 c 0
 144 466 54 574 54 737 c 0
 54 1033 305 1211 518 1211 c 0
261 766 m 0
 261 662 300 575 414 575 c 0
 484 575 560 612 599 662 c 1
 624 738 638 812 638 898 c 0
 638 1025 593 1130 499 1130 c 0
 339 1130 261 973 261 766 c 0
EndSplineSet
Substitution2: "'onum' Oldstyle Figures lookup 1-1" nine.osf
Colour: ffffff
EndChar

StartChar: less
Encoding: 28 60 176
Width: 787
VWidth: 0
Flags: HMW
LayerCount: 3
Back
SplineSet
28.7881 428 m 1
 582.854 -83 l 1
 645.941 -13 l 1
 263.906 454 l 1
 626.862 902 l 1
 570.107 973 l 1
 29.2227 456 l 1
 28.7881 428 l 1
EndSplineSet
Fore
Refer: 18 62 S -1 0 0 1 787 0 2
Colour: ffffff
EndChar

StartChar: cent
Encoding: 97 162 177
Width: 712
VWidth: 0
Flags: HMW
LayerCount: 3
Back
SplineSet
41 415 m 0
 41 712 249 940 466 940 c 0
 633 940 707 866 707 787 c 0
 707 728 664 689 581 683 c 1
 553 750 506 846 419 846 c 0
 300 846 222 688 222 507 c 0
 222 340 311 90 519 90 c 0
 618 90 674 121 721 151 c 1
 746 93 l 1
 693 29 565 -30 436 -30 c 0
 196 -30 41 175 41 415 c 0
347 1154 m 1
 493 1171 l 1
 469 903 l 1
 378 903 l 1
 347 1154 l 1
357 -266 m 1
 383 0 l 1
 472 0 l 1
 505 -250 l 1
 357 -266 l 1
EndSplineSet
Fore
SplineSet
611 179 m 1
 635 118 l 1
 565 39 438 -24 327 -24 c 3
 149 -24 24 98.1325 24 348 c 0
 24 672.414 275 908 514 908 c 3
 632 908 700 845 700 751 c 27
 700 688 640 653 571 647 c 1
 543 731 518 811 431 811 c 0
 261 811 197 577.922 197 420 c 0
 197 210.285 259 106 398 106 c 0
 482 106 561 148 611 179 c 1
424 1114 m 1
 572 1131 l 1
 506 863 l 1
 415 863 l 1
 424 1114 l 1
231 -266 m 1
 299 0 l 1
 388 0 l 1
 382 -250 l 1
 231 -266 l 1
EndSplineSet
Colour: ffffff
EndChar

StartChar: currency
Encoding: 99 164 178
Width: 789
VWidth: 0
Flags: HMW
LayerCount: 3
Back
SplineSet
494 670 m 0
 402 670 329 600 312 494 c 0
 295 387 347 314 439 314 c 0
 535 314 611 383 628 487 c 0
 646 598 591 670 494 670 c 0
226 332 m 1
 206 373 198 436 206 489 c 0
 213 535 238 592 266 628 c 1
 190 713 l 1
 287 796 l 1
 352 708 l 1
 400 744 465 768 515 768 c 0
 569 768 629 748 664 718 c 1
 753 798 l 1
 816 710 l 1
 720 636 l 1
 735 598 741 538 733 490 c 0
 725 439 700 380 667 342 c 1
 748 256 l 1
 647 173 l 1
 581 264 l 1
 530 236 467 216 419 216 c 0
 379 216 330 233 292 258 c 1
 200 168 l 1
 129 254 l 1
 226 332 l 1
EndSplineSet
Fore
SplineSet
48 746 m 5
 132 827 l 5
 241 709 l 5
 284 745 346 768 395 768 c 4
 449 768 512 748 552 718 c 5
 663 830 l 5
 737 742 l 5
 622 636 l 5
 643 599 658 538 658 491 c 4
 658 441 642 379 615 342 c 5
 740 223 l 5
 655 143 l 5
 542 264 l 5
 496 236 434 217 387 217 c 4
 347 217 293 233 253 257 c 5
 145 136 l 5
 61 221 l 5
 176 332 l 5
 149 372 131 435 131 488 c 4
 131 534 147 592 170 628 c 5
 48 746 l 5
236 494 m 4
 236 386 300 313 392 313 c 4
 488 313 552 383 552 487 c 4
 552 598 488 670 391 670 c 4
 299 670 236 599 236 494 c 4
EndSplineSet
Colour: ffffff
EndChar

StartChar: section
Encoding: 102 167 179
Width: 1006
VWidth: 0
Flags: HMW
LayerCount: 3
Back
SplineSet
55 -236 m 1xd4
 68 31 l 1
 172 16 l 1xe4
 209 -172 l 1
 245 -229 322 -282 415 -282 c 0
 520 -282 653 -219 653 -71 c 0
 653 195 17 191 83 606 c 1
 439 406 l 2
 611 310 836 230 836 -4 c 0
 836 -234 621 -383 393 -383 c 0
 249 -383 119 -315 55 -236 c 1xd4
83 916 m 0xd8
 83 1143 273 1269 470 1269 c 0
 578 1269 674 1235 753 1169 c 1
 753 1161 731 887 731 887 c 1
 632 899 l 1
 606 1090 l 1
 588 1126 518 1185 438 1185 c 0
 338 1185 254 1126 254 995 c 0
 254 698 902 728 835 300 c 1
 429 527 l 2
 270 616 83 704 83 916 c 0xd8
EndSplineSet
Fore
SplineSet
41 -236 m 1
 96 31 l 1
 198 16 l 1
 205 -172 l 1
 232 -229 301 -282 394 -282 c 0
 499 -282 642 -219 665 -71 c 0
 707 195 70 191 202 606 c 1
 527 406 l 2
 684 310 896 230 859 -4 c 0
 823 -234 584 -383 356 -383 c 0
 212 -383 92 -315 41 -236 c 1
251 916 m 0
 287 1143 497 1269 694 1269 c 0
 802 1269 893 1235 962 1169 c 1
 961 1161 895 887 895 887 c 1
 798 899 l 1
 802 1090 l 1
 790 1126 729 1185 649 1185 c 0
 549 1185 456 1126 435 995 c 0
 388 698 1041 728 906 300 c 1
 536 527 l 2
 391 616 217 704 251 916 c 0
EndSplineSet
Colour: ffffff
EndChar

StartChar: ordfeminine
Encoding: 105 170 180
Width: 761
VWidth: 0
Flags: HMW
LayerCount: 3
Back
SplineSet
124.65 668.4 m 0xba
 124.65 786 212 932 496.5 932 c 1
 496.5 966 l 2
 496 1074 488 1169.6 386.05 1169.6 c 0
 316 1169.6 304 1114 291.7 977.6 c 1
 212 970 153.55 1014 153.55 1100 c 0
 153.55 1187.2 326.95 1254 444.25 1254 c 0
 595.55 1254 654 1177 654.2 1008.4 c 2
 654.2 748 l 2
 654.2 674.4 674 648 749.4 634.8 c 2
 791.9 627.6 l 1
 780.85 565.8 l 1x76
 740 529 715.4 519.6 665.25 519.6 c 0
 566.65 519.6 513.5 579.6 513.5 626.8 c 2
 513.5 638.8 l 1
 504.15 638.8 l 1
 481.2 596.4 430.65 514.8 291.25 514.8 c 0
 202 514.8 124.65 570.8 124.65 668.4 c 0xba
293.4 716 m 0xba
 293.4 676 315.7 627.2 378.6 627.2 c 0
 438.1 627.2 468.45 664.8 496.5 694.4 c 1
 496.5 873.4 l 1
 344 846 293.4 792.8 293.4 716 c 0xba
EndSplineSet
Fore
SplineSet
472 932 m 1
 477 966 l 2
 494 1074 502 1170 396 1170 c 0
 326 1170 305 1114 271 978 c 1
 196 970 158 1004 158 1066 c 0
 158 1168 354 1254 468 1254 c 0
 616 1254 657 1164 635 1008 c 2
 597 748 l 2
 587 674 602 648 675 635 c 2
 716 628 l 1
 695 566 l 1
 648 529 622 520 572 520 c 0
 464 520 430 583 439 639 c 1
 430 639 l 1
 401 597 339 515 204 515 c 0
 124 515 62 574 62 655 c 0
 62 797 188 932 472 932 c 1
230 701 m 0
 230 665 249 631 303 631 c 0
 364 631 403 679 436 709 c 1
 462 874 l 1
 301 846 230 794 230 701 c 0
EndSplineSet
Colour: ffffff
EndChar

StartChar: registered
Encoding: 109 174 181
Width: 1074
VWidth: 0
Flags: HMW
LayerCount: 3
Back
SplineSet
634 1116 m 0
 634 938 498 837 358 837 c 0
 228 837 173 926 173 1017 c 0
 173 1204 304 1308 438 1308 c 0
 575 1308 634 1213 634 1116 c 0
433 1277 m 0
 322 1277 215 1186 215 1027 c 0
 215 948 258 870 367 870 c 0
 481 870 595 953 595 1113 c 0
 595 1199 545 1277 433 1277 c 0
406 1085 m 2
 429 1085 449 1116 449 1146 c 0
 449 1172 434 1186 403 1186 c 0
 396 1186 388 1184 388 1184 c 1
 372 1085 l 1
 406 1085 l 2
500 1153 m 0
 500 1127 477 1097 436 1080 c 1
 466 1026 l 2
 479 1000 492 983 515 973 c 1
 522 971 l 1
 514 953 l 1
 504 950 497 950 489 950 c 0
 458 950 436 973 423 1004 c 2
 400 1060 l 1
 368 1060 l 1
 355 981 l 1
 388 971 l 1
 383 953 l 1
 268 953 l 1
 272 971 l 1
 310 979 l 1
 342 1177 l 1
 307 1184 l 1
 310 1202 l 1
 343 1205 378 1209 401 1209 c 0
 479 1209 500 1193 500 1153 c 0
EndSplineSet
Fore
SplineSet
255 777 m 1
 262 825 l 1
 342 853 l 1
 342 1248 l 1
 261 1266 l 1
 266 1319 l 1
 332 1329 444 1341 511 1341 c 0
 664 1341 756 1305 756 1194 c 0
 756 1124 698 1051 631 1028 c 1
 630 1026 l 5
 708 935 l 2
 758 877 777 862 827 839 c 2
 843 832 l 1
 833 777 l 1
 814 771 783 766 751 766 c 0
 660 766 618 823 568 918 c 2
 525 1001 l 1
 469 1001 l 1
 469 857 l 1
 543 830 l 1
 538 777 l 1
 255 777 l 1
469 1068 m 1
 548 1068 l 1
 588 1085 619 1117 619 1170 c 0
 619 1233 576 1272 503 1272 c 0
 485 1272 472 1270 469 1270 c 1
 469 1068 l 1
55 1022 m 0
 55 1344 266 1522 534 1522 c 0
 810 1522 1029 1352 1029 1026 c 0
 1029 716 806 540 524 540 c 0
 262 540 55 724 55 1022 c 0
143 1036 m 0
 143 776 314 616 532 616 c 0
 760 616 941 784 941 1016 c 0
 941 1280 760 1446 534 1446 c 0
 312 1446 143 1300 143 1036 c 0
EndSplineSet
Colour: ffffff
EndChar

StartChar: two.superior
Encoding: 113 178 182
Width: 728
VWidth: 0
Flags: HMW
LayerCount: 3
Back
SplineSet
35 638 m 5
 190 761 l 6
 294 846 373 930 373 1005 c 4
 373 1077 358 1153 264 1153 c 4
 215 1153 175 1127 160 1095 c 5
 138 966 l 5
 70 971 l 5
 55 1141 l 5
 96 1218 227 1257 328 1257 c 4
 481 1257 569 1189 569 1071 c 4
 569 918 420.948 803.011 258 696 c 6
 191 652 l 5
 461 652 l 5
 540 805 l 5
 597 784 l 5
 578 531 l 5
 27 531 l 5
 35 638 l 5
EndSplineSet
Fore
SplineSet
74 638 m 1
 248 761 l 1
 385 860 475 929 475 1057 c 0
 475 1110 456 1153 385 1153 c 0
 336 1153 291 1127 271 1095 c 1
 229 966 l 1
 162 971 l 1
 174 1141 l 1
 227 1218 364 1257 465 1257 c 0
 603 1257 679 1201 679 1104 c 0
 679 922 489 805 306 696 c 2
 232 652 l 1
 502 652 l 1
 605 805 l 1
 659 784 l 1
 600 531 l 1
 49 531 l 1
 74 638 l 1
EndSplineSet
Colour: ffffff
EndChar

StartChar: three.superior
Encoding: 114 179 183
Width: 701
VWidth: 0
Flags: HMW
LayerCount: 3
Back
SplineSet
21 563 m 5xe8
 51 762 l 5
 126 754 l 5
 134 619 l 5
 152 598 190 579 233 579 c 4
 328 579 384 635 384 719 c 4xe8
 384 790 301 849 180 849 c 5
 164 908 l 5
 212 923 348 971 348 1070 c 4
 348 1127 313 1189 241 1189 c 4
 210 1189 179 1186 158 1167 c 5
 134 1010 l 5
 58 1016 l 5
 46 1187 l 5
 77 1231 192 1279 295 1279 c 4
 430 1279 535 1223 535 1117 c 4xf0
 535 1013 453 955 356 927 c 5
 356 920 l 5
 501 905 574 839 574 736 c 4
 574 600 417 495 229 495 c 4
 134 495 41 521 21 563 c 5xe8
EndSplineSet
Fore
SplineSet
49 563 m 1
 111 762 l 1
 184 754 l 1
 171 619 l 1
 186 598 221 579 264 579 c 0
 358 579 438 639 438 733 c 0
 438 798 366 849 253 849 c 1
 247 908 l 1
 302 924 458 975 458 1092 c 0
 458 1142 431 1189 368 1189 c 0
 337 1189 306 1186 282 1167 c 1
 233 1010 l 1
 158 1016 l 1
 173 1187 l 1
 211 1231 333 1279 436 1279 c 0
 561 1279 653 1231 653 1140 c 0
 653 1019 545 955 442 927 c 1
 441 920 l 1
 569 907 632 852 632 767 c 0
 632 604 440 495 246 495 c 0
 151 495 62 521 49 563 c 1
EndSplineSet
Colour: ffffff
EndChar

StartChar: paragraph
Encoding: 117 182 184
Width: 1356
VWidth: 0
Flags: HMW
LayerCount: 3
Back
SplineSet
44 828 m 0xec
 44 1065 244 1245 487 1245 c 2xec
 833 1245 l 1xdc
 833 0 l 1
 427 0 l 1
 434 74 l 1
 675 121 l 1
 675 1152 l 1
 635 1153 578 1154 568 1154 c 0
 353 1154 249 1041 249 863 c 0
 249 692 344 546 562 546 c 9
 544 448 l 1
 283 448 44 536 44 828 c 0xec
912 0 m 1xde
 912 1245 l 1xde
 1232 1245 l 1
 1223 1168 l 1
 1053 1130 l 1
 1053 114 l 1xdd
 1234 80 l 1
 1224 0 l 1
 912 0 l 1xde
EndSplineSet
Fore
SplineSet
569 1245 m 2
 915 1245 l 1
 718 0 l 1
 312 0 l 1
 331 74 l 1
 579 121 l 1
 742 1152 l 1
 702 1153 646 1154 636 1154 c 0
 403 1154 265 1040 265 817 c 0
 265 676 344 546 533 546 c 9
 500 448 l 1
 262 448 54 551 54 785 c 0
 54 1072 309 1245 569 1245 c 2
797 0 m 1
 994 1245 l 1
 1314 1245 l 1
 1293 1168 l 1
 1117 1130 l 1
 956 114 l 1
 1132 80 l 1
 1109 0 l 1
 797 0 l 1
EndSplineSet
Colour: ffffff
EndChar

StartChar: one.superior
Encoding: 120 185 185
Width: 599
VWidth: 0
Flags: HMW
LayerCount: 3
Back
SplineSet
23 531 m 5
 27 605 l 5
 180 630 l 5
 180 1122 l 5
 35 1122 l 5
 39 1199 l 5
 341 1245 l 5
 360 1245 l 5
 360 627 l 5
 512 614 l 5
 506 531 l 5
 23 531 l 5
EndSplineSet
Fore
SplineSet
49 531 m 5
 65 605 l 5
 222 630 l 5
 300 1122 l 5
 155 1122 l 5
 171 1199 l 5
 480 1245 l 5
 499 1245 l 5
 401 627 l 5
 551 614 l 5
 532 531 l 5
 49 531 l 5
EndSplineSet
Colour: ffffff
EndChar

StartChar: ordmasculine
Encoding: 121 186 186
Width: 826
VWidth: 0
Flags: HMW
LayerCount: 3
Back
SplineSet
89 345 m 1
 428 345 l 1
 413 287 l 1
 74 287 l 1
 89 345 l 1
206 601 m 0
 191 504 219 441 272 441 c 0
 323 441 359 489 372 575 c 0
 387 666 362 732 304 732 c 0
 254 732 219 689 206 601 c 0
448 588 m 0
 430 477 348 401 256 401 c 0
 150 401 113 479 130 583 c 0
 150 707 237 773 325 773 c 0
 424 773 466 699 448 588 c 0
EndSplineSet
Fore
SplineSet
494 1258 m 0
 676 1258 778 1144 778 969 c 0
 778 697 575 514 356 514 c 0
 159 514 58 635 58 803 c 0
 58 1090 289 1258 494 1258 c 0
234 811 m 0
 234 692 261 594 387 594 c 0
 544 594 600 784 600 948 c 0
 600 1068 565 1175 445 1175 c 0
 282 1175 234 984 234 811 c 0
EndSplineSet
Colour: ffffff
EndChar

StartChar: onequarter
Encoding: 123 188 187
Width: 1397
VWidth: 0
Flags: HMW
LayerCount: 3
Back
SplineSet
693 270 m 1
 1103 737 l 1
 1160 726 l 1
 1155 655 1151 539 1151 430 c 2
 1151 272 l 1
 1299 272 l 1
 1290 175 l 1
 1151 175 l 1
 1151 83 l 1
 1272 65 l 1
 1266 0 l 1
 852 0 l 1
 856 58 l 1
 993 85 l 1
 993 178 l 1
 706 178 l 1
 693 270 l 1
800 272 m 1
 990 272 l 1
 990 508 l 1
 800 272 l 1
-52 531 m 1
 -48 605 l 1
 105 630 l 1
 105 1122 l 1
 -40 1122 l 1
 -36 1199 l 1
 266 1245 l 1
 285 1245 l 1
 285 627 l 1
 437 614 l 1
 431 531 l 1
 -52 531 l 1
159 -10 m 1
 566 588 l 1
 957 1210 l 1
 1133 1207 l 1
 1131 1178 l 1
 730 591 l 1
 359 -32 l 1
 159 -10 l 1
EndSplineSet
Fore
SplineSet
748 270 m 1
 1232 737 l 1
 1287 726 l 1
 1271 655 1248 539 1231 430 c 2
 1206 272 l 1
 1354 272 l 1
 1330 175 l 1
 1191 175 l 1
 1176 83 l 1
 1294 65 l 1
 1278 0 l 1
 864 0 l 1
 877 58 l 1
 1018 85 l 1
 1033 178 l 1
 746 178 l 1
 748 270 l 1
855 272 m 1
 1045 272 l 1
 1082 508 l 1
 855 272 l 1
44 531 m 1
 60 605 l 1
 217 630 l 1
 295 1122 l 1
 150 1122 l 1
 166 1199 l 1
 475 1245 l 5
 494 1245 l 1
 396 627 l 1
 546 614 l 1
 527 531 l 1
 44 531 l 1
169 -10 m 1
 671 588 l 1
 1161 1210 l 1
 1336 1207 l 1
 1329 1178 l 1
 836 591 l 1
 366 -32 l 1
 169 -10 l 1
EndSplineSet
Colour: ffffff
EndChar

StartChar: onehalf
Encoding: 124 189 188
Width: 1476
VWidth: 0
Flags: HMW
LayerCount: 3
Back
SplineSet
792 109 m 1
 947 232 l 2
 1051 317 1130 401 1130 476 c 0
 1130 548 1115 624 1021 624 c 0
 972 624 932 598 917 566 c 1
 895 437 l 1
 827 442 l 1
 812 612 l 1
 853 689 984 728 1085 728 c 0
 1238 728 1326 660 1326 542 c 0
 1326 389 1177.95 274.011 1015 167 c 2
 948 123 l 1
 1218 123 l 1
 1297 276 l 1
 1354 255 l 1
 1335 2 l 5
 784 2 l 1
 792 109 l 1
-52 531 m 1
 -48 605 l 1
 105 630 l 1
 105 1122 l 1
 -40 1122 l 1
 -36 1199 l 1
 266 1245 l 1
 285 1245 l 1
 285 627 l 1
 437 614 l 1
 431 531 l 1
 -52 531 l 1
139 -10 m 1
 546 588 l 1
 937 1210 l 1
 1113 1207 l 1
 1111 1178 l 1
 710 591 l 1
 339 -32 l 1
 139 -10 l 1
EndSplineSet
Fore
SplineSet
821 109 m 1
 996 232 l 1
 1133 331 1222 400 1222 528 c 0
 1222 581 1203 624 1132 624 c 0
 1083 624 1039 598 1019 566 c 1
 976 437 l 1
 909 442 l 1
 921 612 l 1
 974 689 1111 728 1212 728 c 0
 1350 728 1426 672 1426 575 c 0
 1426 393 1236 276 1053 167 c 2
 979 123 l 1
 1249 123 l 1
 1353 276 l 1
 1406 255 l 1
 1347 2 l 1
 796 2 l 1
 821 109 l 1
44 531 m 1
 60 605 l 1
 217 630 l 1
 295 1122 l 1
 150 1122 l 1
 166 1199 l 1
 475 1245 l 1
 494 1245 l 1
 396 627 l 1
 546 614 l 1
 527 531 l 1
 44 531 l 1
149 -10 m 1
 651 588 l 1
 1141 1210 l 1
 1316 1207 l 1
 1309 1178 l 1
 816 591 l 1
 346 -32 l 1
 149 -10 l 1
EndSplineSet
Colour: ffffff
EndChar

StartChar: threequarters
Encoding: 125 190 189
Width: 1376
VWidth: 0
Flags: HMW
LayerCount: 3
Back
SplineSet
-31 546 m 1xe8
 -1 745 l 1
 74 737 l 1
 82 602 l 1
 100 581 138 562 181 562 c 0
 276 562 332 618 332 702 c 0xe8
 332 773 249 832 128 832 c 1
 112 891 l 1
 160 906 296 954 296 1053 c 0
 296 1110 261 1172 189 1172 c 0
 158 1172 127 1169 106 1150 c 1
 82 993 l 1
 6 999 l 1
 -6 1170 l 1
 25 1214 140 1262 243 1262 c 0
 378 1262 483 1206 483 1100 c 0xf0
 483 996 401 938 304 910 c 1
 304 903 l 1
 449 888 522 822 522 719 c 0
 522 583 365 478 177 478 c 0
 82 478 -11 504 -31 546 c 1xe8
173 -10 m 1
 580 588 l 1
 971 1210 l 1
 1147 1207 l 1
 1145 1178 l 1
 744 591 l 1
 373 -32 l 1
 173 -10 l 1
693 270 m 1
 1103 737 l 1
 1160 726 l 1
 1155 655 1151 539 1151 430 c 2
 1151 272 l 1
 1299 272 l 1
 1290 175 l 1
 1151 175 l 1
 1151 83 l 1
 1272 65 l 1
 1266 0 l 1
 852 0 l 1
 856 58 l 1
 993 85 l 1
 993 178 l 1
 706 178 l 1
 693 270 l 1
800 272 m 1
 990 272 l 1
 990 508 l 1
 800 272 l 1
EndSplineSet
Fore
SplineSet
46 546 m 1
 108 745 l 1
 181 737 l 1
 168 602 l 1
 183 581 218 562 261 562 c 0
 355 562 435 622 435 716 c 0
 435 781 363 832 250 832 c 1
 244 891 l 1
 299 907 455 958 455 1075 c 0
 455 1125 428 1172 365 1172 c 0
 334 1172 303 1169 279 1150 c 1
 230 993 l 1
 155 999 l 1
 170 1170 l 1
 208 1214 330 1262 433 1262 c 0
 558 1262 650 1214 650 1123 c 0
 650 1002 542 938 439 910 c 1
 438 903 l 1
 566 890 629 835 629 750 c 0
 629 587 437 478 243 478 c 0
 148 478 59 504 46 546 c 1
162 -10 m 1
 664 588 l 1
 1153 1210 l 1
 1329 1207 l 1
 1322 1178 l 1
 828 591 l 1
 358 -32 l 1
 162 -10 l 1
726 270 m 1
 1210 737 l 1
 1266 726 l 1
 1250 655 1227 539 1210 430 c 2
 1185 272 l 1
 1333 272 l 1
 1308 175 l 1
 1169 175 l 1
 1155 83 l 1
 1273 65 l 1
 1257 0 l 1
 843 0 l 1
 856 58 l 1
 997 85 l 1
 1012 178 l 1
 725 178 l 1
 726 270 l 1
834 272 m 1
 1024 272 l 1
 1061 508 l 1
 834 272 l 1
EndSplineSet
Colour: ffffff
EndChar

StartChar: dotaccent
Encoding: 192 729 190
Width: 404
VWidth: 0
Flags: HMW
LayerCount: 3
Back
SplineSet
294 1303 m 27
 360 1303 416 1253 416 1189 c 27
 416 1121 360 1067 294 1067 c 27
 228 1067 175 1123 175 1191 c 27
 175 1255 231 1303 294 1303 c 27
EndSplineSet
Fore
SplineSet
81 1479 m 0
 81 1543 138 1593 200 1593 c 0
 266 1593 323 1542 323 1478 c 0
 323 1411 266 1355 200 1355 c 0
 134 1355 81 1412 81 1479 c 0
EndSplineSet
Colour: ffffff
EndChar

StartChar: ring
Encoding: 193 730 191
Width: 509
VWidth: 0
Flags: HMW
LayerCount: 3
Back
SplineSet
225 390 m 0
 166 390 129 334 121 278 c 0
 111 217 133 149 197 149 c 0
 251 149 287 190 299 263 c 0
 309 326 288 390 225 390 c 0
243 438 m 0
 339 438 388 370 373 276 c 0
 358 185 279 101 177 101 c 0
 85 101 31 164 48 266 c 0
 63 358 149 438 243 438 c 0
EndSplineSet
Fore
SplineSet
81 1527 m 0
 81 1619 168 1699 261 1699 c 0
 357 1699 429 1629 429 1536 c 0
 429 1446 350 1361 248 1361 c 0
 156 1361 81 1425 81 1527 c 0
171 1538 m 0
 171 1477 196 1416 260 1416 c 0
 314 1416 340 1451 340 1524 c 0
 340 1586 312 1645 250 1645 c 0
 191 1645 171 1594 171 1538 c 0
EndSplineSet
Colour: ffffff
EndChar

StartChar: tilde
Encoding: 194 732 192
Width: 626
VWidth: 0
Flags: HMW
LayerCount: 3
Back
SplineSet
-110 141 m 1
 -110 141 -28 354 111 339 c 2
 549 294 l 2
 587 289 644 356 644 356 c 1
 709 354 l 1
 709 354 618 135 479 152 c 1
 40 197 l 2
 -3 202 -59 128 -59 128 c 1
 -110 141 l 1
EndSplineSet
Fore
SplineSet
80 1379 m 2
 80 1379 120 1533 216 1521 c 2
 442 1492 l 2
 467 1489 498 1532 498 1532 c 1
 547 1530 l 2
 547 1530 500 1374 403 1387 c 2
 178 1419 l 2
 150 1423 119 1370 119 1370 c 1
 80 1379 l 2
EndSplineSet
Colour: ffffff
EndChar

StartChar: quoteright
Encoding: 199 8217 193
Width: 430
VWidth: 0
Flags: HMW
LayerCount: 3
Back
SplineSet
17 882 m 21
 119 945 155 1034 155 1097 c 7
 155 1158 129 1207 111 1220 c 5
 157 1265 198 1280 238 1280 c 7
 307 1280 355 1220 355 1141 c 7
 355 1045 279 885 48 816 c 13
 17 882 l 21
EndSplineSet
Fore
SplineSet
61 819 m 1
 192 853 242 928 242 992 c 0
 242 1048 197 1100 127 1100 c 0
 117 1100 107 1098 97 1097 c 1
 89 1118 82 1137 82 1160 c 0
 82 1240 155 1281 205 1281 c 0
 275 1281 380 1224 380 1073 c 0
 380 980 347 820 84 750 c 1
 61 819 l 1
EndSplineSet
Colour: ffffff
EndChar

StartChar: quoteleft
Encoding: 198 8216 194
Width: 427
VWidth: 0
Flags: HMW
LayerCount: 3
Back
SplineSet
363 1219 m 17
 261 1156 225 1067 225 1004 c 3
 225 943 251 893 269 880 c 1
 223 835 182 821 142 821 c 3
 73 821 25 881 25 960 c 3
 25 1056 101 1216 332 1285 c 9
 363 1219 l 17
EndSplineSet
Fore
SplineSet
59 961 m 0
 59 1054 92 1214 355 1284 c 1
 378 1215 l 1
 247 1181 196 1105 196 1041 c 0
 196 985 242 934 312 934 c 0
 322 934 331 936 341 937 c 1
 349 916 357 898 357 875 c 4
 357 795 284 753 234 753 c 0
 164 753 59 810 59 961 c 0
EndSplineSet
Colour: ffffff
EndChar

StartChar: quotesinglbase
Encoding: 200 8218 195
Width: 437
VWidth: 0
Flags: HMW
LayerCount: 3
Back
SplineSet
25 -177 m 17
 127 -114 163 -24 163 40 c 3
 163 99 137 148 119 163 c 1
 165 206 206 221 246 221 c 3
 315 221 363 164 363 83 c 3
 363 -11 287 -174 56 -243 c 9
 25 -177 l 17
EndSplineSet
Fore
SplineSet
55 -244 m 1
 186 -210 237 -134 237 -70 c 0
 237 -14 191 36 121 36 c 0
 111 36 101 35 91 34 c 1
 83 55 77 74 77 97 c 0
 77 177 149 218 199 218 c 0
 269 218 373 161 373 10 c 0
 373 -83 341 -243 78 -313 c 1
 55 -244 l 1
EndSplineSet
Colour: ffffff
EndChar

StartChar: quotedblleft
Encoding: 201 8220 196
Width: 742
VWidth: 0
Flags: HMW
LayerCount: 3
Back
SplineSet
618 1219 m 21
 516 1156 479 1067 479 1004 c 7
 479 943 506 893 524 880 c 5
 478 835 436 821 396 821 c 7
 327 821 279 881 279 960 c 7
 279 1056 355 1216 586 1285 c 13
 618 1219 l 21
363 1219 m 21
 261 1156 225 1067 225 1004 c 7
 225 943 251 893 269 880 c 5
 223 835 182 821 142 821 c 7
 73 821 25 881 25 960 c 7
 25 1056 101 1216 332 1285 c 13
 363 1219 l 21
EndSplineSet
Fore
SplineSet
59 964 m 0
 59 1057 93 1217 356 1287 c 1
 377 1219 l 1
 246 1185 196 1109 196 1045 c 0
 196 989 243 938 313 938 c 0
 323 938 333 939 343 940 c 1
 351 919 357 901 357 878 c 0
 357 798 285 756 235 756 c 0
 165 756 59 813 59 964 c 0
374 964 m 0
 374 1057 408 1217 671 1287 c 1
 693 1219 l 1
 562 1185 512 1109 512 1045 c 0
 512 989 558 938 628 938 c 0
 638 938 647 939 657 940 c 1
 665 919 671 901 671 878 c 0
 671 798 599 756 549 756 c 0
 479 756 374 813 374 964 c 0
EndSplineSet
Colour: ffffff
EndChar

StartChar: quotedblright
Encoding: 202 8221 197
Width: 747
VWidth: 0
Flags: HMW
LayerCount: 3
Back
SplineSet
17 884 m 17
 119 947 155 1035 155 1098 c 3
 155 1159 129 1209 111 1222 c 1
 157 1267 198 1282 238 1282 c 3
 307 1282 355 1222 355 1143 c 3
 355 1047 279 886 48 817 c 9
 17 884 l 17
271 884 m 17
 373 947 410 1035 410 1098 c 3
 410 1159 383 1209 365 1222 c 1
 411 1267 452 1282 492 1282 c 3
 561 1282 609 1222 609 1143 c 3
 609 1047 533 886 302 817 c 9
 271 884 l 17
EndSplineSet
Fore
SplineSet
61 824 m 1
 192 858 242 934 242 998 c 0
 242 1054 197 1104 127 1104 c 0
 117 1104 107 1104 97 1103 c 1
 89 1124 82 1143 82 1166 c 0
 82 1246 155 1286 205 1286 c 0
 275 1286 380 1229 380 1078 c 0
 380 985 347 825 84 755 c 1
 61 824 l 1
379 824 m 1
 510 858 560 934 560 998 c 0
 560 1054 514 1104 444 1104 c 0
 434 1104 424 1104 414 1103 c 1
 406 1124 399 1143 399 1166 c 0
 399 1246 472 1286 522 1286 c 0
 592 1286 697 1229 697 1078 c 0
 697 985 664 825 401 755 c 1
 379 824 l 1
EndSplineSet
Colour: ffffff
EndChar

StartChar: thorn
Encoding: 189 254 198
Width: 1022
VWidth: 0
Flags: HMW
LayerCount: 3
Back
SplineSet
-15 -366 m 1
 -8 -287 l 1
 145 -251 l 1
 143 1117 l 1
 -9 1171 l 1
 4 1247 l 1
 287 1268 l 1
 311 1245 l 1
 311 849 l 1
 297 744 l 1
 308 744 l 1
 367 810 445 896 577 896 c 0
 748 896 884 740 884 469 c 0
 884 190 703 -13 470 -13 c 0
 437 -13 402 -10 369 1 c 1
 366 102 l 1
 622.232 50.7536 696 223.898 696 408 c 4
 696 645 633 767 507 767 c 0
 421 767 352 721 308 675 c 1
 308 -251 l 1
 463 -285 l 1
 451 -366 l 1
 -15 -366 l 1
EndSplineSet
Fore
SplineSet
482 662 m 1
 341 -263 l 1
 496 -294 l 1
 478 -365 l 1
 42 -365 l 1
 62 -291 l 1
 182 -258 l 1
 389 1126 l 1
 255 1149 l 1
 267 1225 l 1
 548 1250 l 1
 570 1227 l 1
 509 847 l 1
 480 722 l 1
 490 722 l 1
 532 801 645 890 736 890 c 0
 868 890 973 733 973 532 c 0
 973 185 736 -18 498 -18 c 0
 472 -18 423 -17 405 -7 c 1
 427 107 l 1
 447 97 494 89 514 89 c 0
 616 89 798 111 798 486 c 0
 798 651 734 746 666 746 c 0
 556 746 482 662 482 662 c 1
EndSplineSet
Colour: ffffff
EndChar

StartChar: Thorn
Encoding: 157 222 199
Width: 1194
VWidth: 0
Flags: HMW
LayerCount: 3
Back
SplineSet
201 119 m 1
 201 1126 l 1
 20 1168 l 1
 30 1244 l 1
 573 1244 l 1
 563 1168 l 1
 393 1130 l 1
 393 1021 l 1
 434 1023 476 1024 517 1024 c 0
 778 1024 1017 953 1017 661 c 0
 1017 423 816 259 573 259 c 0
 537 259 498 261 457 266 c 1
 449 291 441 310 441 350 c 1
 459 348 475 350 492 350 c 0
 707 350 811 446 811 624 c 0
 811 794 717 926 499 926 c 0
 458 926 393 920 393 920 c 1
 393 121 l 1
 629 83 l 1
 616 -2 l 1
 23 -2 l 1
 33 73 l 1
 201 119 l 1
EndSplineSet
Fore
SplineSet
224 1168 m 1
 247 1244 l 1
 790 1244 l 1
 768 1168 l 1
 591 1130 l 1
 574 1020 l 1
 614 1021 658 1024 698 1024 c 0
 936 1024 1148 934 1148 702 c 0
 1148 415 894 260 634 260 c 0
 598 260 557 262 518 266 c 1
 515 351 l 1
 769 337 934 415 934 659 c 0
 934 797 854 926 665 926 c 0
 625 926 558 919 558 919 c 1
 431 121 l 1
 662 83 l 1
 636 -1 l 1
 43 -1 l 1
 65 73 l 1
 240 119 l 1
 400 1126 l 1
 224 1168 l 1
EndSplineSet
Colour: ffffff
EndChar

StartChar: eth
Encoding: 175 240 200
Width: 926
VWidth: 0
Flags: HMW
LayerCount: 3
Back
SplineSet
53 451 m 0
 53 746 232 948 445 948 c 0
 485 948 572 933 602 857 c 1
 608 859 l 1
 587 929 541 1001 497 1071 c 1
 282 1031 l 1
 292 1106 l 1
 461 1139 l 1
 415 1205 365 1262 321 1302 c 1
 438 1302 l 1
 471 1283 528 1238 589 1171 c 1
 740 1201 l 1
 730 1124 l 1
 642 1106 l 1
 746 968 842 757 842 465 c 0
 842 157 663 -27 448 -27 c 0
 171 -27 53 208 53 451 c 0
231 498 m 5
 234 227 332 70 470 70 c 0
 625 70 669 209 669 424 c 0
 669 658 548 853 432 856 c 1
 285.022 856 231 713.682 231 498 c 5
EndSplineSet
Fore
SplineSet
231 380 m 4
 231 194 300 70 413 70 c 4
 584 70 676 263 676 510 c 4
 676 694 597 853 499 856 c 5
 324 856 231 635 231 380 c 4
856 598 m 4
 856 204 653 -27 375 -27 c 4
 141 -27 47 141 47 340 c 4
 47 690 290 948 527 948 c 4
 567 948 651 933 669 857 c 5
 676 859 l 5
 671 895 654 985 631 1078 c 5
 397 1031 l 5
 419 1106 l 5
 612 1146 l 5
 593 1210 572 1267 549 1302 c 5
 666 1302 l 5
 696 1271 723 1227 748 1174 c 5
 882 1201 l 5
 860 1124 l 5
 776 1107 l 5
 829 964 856 778 856 598 c 4
EndSplineSet
Colour: ffffff
EndChar

StartChar: Eth
Encoding: 143 208 201
Width: 1473
VWidth: 0
Flags: HMW
LayerCount: 3
Back
SplineSet
1288 659 m 0x1c
 1288 334 1024 0 530 0 c 2x9c
 18 0 l 1
 31 74 l 1
 203 129 l 1
 203 570 l 1
 23 555 l 1
 35 647 l 1
 203 661 l 1
 203 1105 l 1
 31 1135 l 1
 40 1211 l 1x6c
 237 1242 408 1260 553 1260 c 0
 1115 1260 1288 968 1288 659 c 0x1c
395 581 m 1
 395 104 l 1
 606 104 l 2
 935 104 1073 342 1073 598 c 0
 1073 905 890 1158 517 1158 c 0
 476 1158 436 1156 395 1151 c 1
 395 672 l 1
 652 694 l 1
 641 601 l 1
 395 581 l 1
EndSplineSet
Fore
SplineSet
137 555 m 1
 162 647 l 1
 334 660 l 1
 404 1104 l 1
 237 1134 l 1
 258 1211 l 1
 460 1242 634 1260 779 1260 c 0
 1269 1260 1427 997 1427 735 c 0
 1427 321 1083 0 556 0 c 2
 43 0 l 1
 69 74 l 1
 249 129 l 1
 319 569 l 1
 137 555 l 1
436 104 m 1
 648 104 l 2
 1007 104 1203 363 1203 689 c 0
 1203 943 1051 1157 725 1157 c 0
 685 1157 643 1155 602 1151 c 1
 526 672 l 1
 788 693 l 1
 761 602 l 1
 512 581 l 1
 436 104 l 1
EndSplineSet
Colour: ffffff
EndChar

StartChar: ae
Encoding: 165 230 202
Width: 1171
VWidth: 0
Flags: HMW
LayerCount: 3
Back
SplineSet
45 157 m 0xf6
 45 304 145 418 507 484 c 1
 507 540 l 2
 507 675 473 801 341 801 c 0
 245 801 238 732 223 608 c 1
 170 608 87 613 87 712 c 0xee
 87 821 285 900 423 900 c 0
 536 900 595 860 623 777 c 1
 702 856 804 899 900 899 c 0
 1045 899 1169 792 1169 581 c 0
 1169 550 1159 479 1151 445 c 1
 670 426 l 1
 678 269 760 86 947 86 c 0
 1017 86 1070 99 1174 155 c 1
 1194 104 l 1
 1115 21 998 -30 866 -30 c 0
 761 -30 583 37 552 175 c 1
 508 43 384 -24 242 -24 c 0
 137 -24 45 35 45 157 c 0xf6
220 203 m 0xf6
 220 123 261 83 334 83 c 0
 414 83 507 161 507 262 c 2
 507 409 l 1
 256 369 220 299 220 203 c 0xf6
670 507 m 1
 983 543 l 1
 987 559 992 599 992 615 c 0
 992 734 947 801 851 801 c 0
 771 801 680 701 670 507 c 1
EndSplineSet
Fore
SplineSet
607 740 m 1
 579 766 514 781 468 781 c 0
 308 781 208 533 208 320 c 0
 208 171 250 106 329 106 c 0
 405 106 476 150 508 208 c 13
 607 740 l 1
248 -21 m 0
 126 -21 47 91 47 274 c 0
 47 667 336 885 557 885 c 0
 621 885 690 872 722 855 c 1
 737 836 l 1
 733 798 l 1
 789 838 881 890 944 890 c 0
 1055 890 1126 814 1126 692 c 0
 1126 456 845 372 687 396 c 1
 682 368 682 342 682 324 c 0
 682 175 750 102 864 102 c 0
 917 102 1029 152 1054 177 c 1
 1080 132 l 1
 1035 63 906 -30 770 -30 c 0
 652 -30 586 35 553 156 c 1
 482 48 364 -21 248 -21 c 0
696 469 m 1
 832 453 976 498 976 663 c 0
 976 734 942 798 884 798 c 0
 792 798 732 692 696 469 c 1
EndSplineSet
Colour: ffffff
EndChar

StartChar: AE
Encoding: 133 198 203
Width: 1919
VWidth: 0
Flags: HMW
LayerCount: 3
Back
SplineSet
-40 1 m 1x7380
 -31 76 l 1
 105 131 l 1
 738 1126 l 1
 524 1168 l 1
 534 1244 l 1
 1596 1244 l 1x7780
 1564 927 l 1
 1478 940 l 1
 1436 1152 l 1
 998 1152 l 1
 998 679 l 1
 1257 679 l 1
 1299 802 l 1
 1394 810 l 1
 1360 424 l 1
 1275 409 l 1
 1241 586 l 1
 998 586 l 1
 998 96 l 1
 1462 96 l 1xbb80
 1563 329 l 1
 1643 313 l 1
 1613 0 l 1
 642 0 l 1
 650 74 l 1
 817 121 l 1
 817 472 l 1
 458 472 l 1
 240 126 l 1
 428 83 l 1
 415 1 l 1
 -40 1 l 1x7380
510 568 m 1
 817 568 l 1
 817 1058 l 1
 510 568 l 1
EndSplineSet
Fore
SplineSet
44 1 m 1
 65 76 l 1
 210 131 l 1
 1000 1126 l 1
 793 1168 l 1
 815 1244 l 1
 1877 1244 l 1
 1795 927 l 1
 1711 940 l 1
 1702 1152 l 1
 1264 1152 l 1
 1189 679 l 1
 1448 679 l 1
 1510 802 l 1
 1606 810 l 1
 1511 424 l 1
 1424 409 l 1
 1418 586 l 1
 1175 586 l 1
 1097 96 l 1
 1561 96 l 1
 1699 329 l 1
 1776 313 l 1
 1697 0 l 1
 726 0 l 1
 746 74 l 1
 920 121 l 1
 976 472 l 1
 617 472 l 1
 344 126 l 1
 525 83 l 1
 499 1 l 1
 44 1 l 1
684 568 m 1
 991 568 l 1
 1068 1058 l 1
 684 568 l 1
EndSplineSet
Colour: ffffff
EndChar

StartChar: divide
Encoding: 182 247 204
Width: 919
VWidth: 0
Flags: HMW
LayerCount: 3
Back
SplineSet
334 948 m 27
 400 948 454 898 454 834 c 27
 454 766 400 712 334 712 c 27
 268 712 215 768 215 836 c 27
 215 900 270 948 334 948 c 27
334 385 m 27
 400 385 454 335 454 271 c 27
 454 203 400 149 334 149 c 27
 268 149 215 204 215 272 c 27
 215 336 270 385 334 385 c 27
40 604 m 17
 654 604 l 1
 642 499 l 1
 28 499 l 9
 40 604 l 17
EndSplineSet
Fore
SplineSet
48 454 m 1
 60 560 l 1
 872 560 l 1
 861 454 l 1
 48 454 l 1
334 228 m 0
 334 292 389 341 453 341 c 0
 519 341 574 291 574 227 c 0
 574 160 519 104 453 104 c 0
 387 104 334 161 334 228 c 0
334 790 m 0
 334 854 389 903 453 903 c 4
 519 903 574 853 574 789 c 0
 574 722 519 666 453 666 c 0
 387 666 334 723 334 790 c 0
EndSplineSet
Colour: ffffff
EndChar

StartChar: multiply
Encoding: 150 215 205
Width: 570
VWidth: 0
Flags: HMW
LayerCount: 3
Back
SplineSet
284 388 m 1
 119 228 l 1
 53 310 l 1
 208 462 l 1
 53 619 l 1
 135 685 l 1
 289 532 l 1
 454 692 l 1
 520 608 l 1
 363 457 l 1
 522 297 l 1
 439 231 l 1
 284 388 l 1
EndSplineSet
Fore
SplineSet
51 310 m 1
 207 462 l 1
 51 619 l 1
 135 685 l 1
 288 532 l 1
 453 692 l 1
 518 608 l 1
 362 458 l 1
 521 297 l 1
 438 231 l 1
 282 388 l 1
 118 228 l 1
 51 310 l 1
EndSplineSet
Colour: ffffff
EndChar

StartChar: Oslash
Encoding: 151 216 206
Width: 1344
VWidth: 0
Flags: HMW
LayerCount: 3
Back
SplineSet
228 -111 m 1
 359 133 l 1
 399 157 l 1
 925 1139 l 1
 917 1178 l 1
 984 1304 l 1
 1136 1312 l 1
 1039 1134 l 1
 988 1090 l 1
 445 80 l 1
 458 52 l 1
 375 -102 l 1
 228 -111 l 1
295 676 m 0
 295 382 410 79 698 79 c 0
 1002 79 1073 330 1073 573 c 0
 1073 856 957 1176 670 1176 c 0
 370 1176 295 937 295 676 c 0
73 619 m 0
 73 1004 320 1272 718 1272 c 0
 1080 1272 1296 970 1296 619 c 0
 1296 274 1064 -27 649 -27 c 0
 304 -27 73 257 73 619 c 0
EndSplineSet
Fore
SplineSet
747 1176 m 0
 331 1176 278 773 283 527 c 0
 288 294 376 79 604 79 c 0
 1015 79 1076 487 1073 713 c 0
 1068 946 977 1176 747 1176 c 0
1297 737 m 0
 1304 339 1009 -26 538 -26 c 0
 237 -26 59 204 54 505 c 0
 46 943 358 1273 812 1273 c 0
 1124 1273 1292 1029 1297 737 c 0
121 -91 m 1
 277 153 l 1
 320 177 l 1
 947 1159 l 1
 943 1198 l 1
 1023 1324 l 1
 1190 1332 l 1
 1075 1154 l 1
 1019 1110 l 1
 372 100 l 1
 382 72 l 1
 283 -82 l 1
 121 -91 l 1
EndSplineSet
Colour: ffffff
EndChar

StartChar: oslash
Encoding: 183 248 207
Width: 963
VWidth: 0
Flags: HMW
LayerCount: 3
Back
SplineSet
24 -46 m 1
 180 141 l 1
 224 157 l 1
 650 727 l 1
 648 765 l 1
 749 897 l 1
 904 904 l 1
 753 705 l 1
 694 670 l 1
 270 109 l 1
 279 78 l 1
 187 -41 l 1
 24 -46 l 1
220 497 m 0
 220 291 290 70 487 70 c 0
 628 70 693 218 693 359 c 0
 693 557 624 798 434 798 c 0
 283 798 220 654 220 497 c 0
40 426 m 0
 40 730 254 903 477 903 c 0
 723 903 872 716 872 441 c 0
 872 162 685 -27 452 -27 c 0
 188 -27 40 169 40 426 c 0
EndSplineSet
Fore
SplineSet
667 552 m 0
 667 654 635 816 547 816 c 3
 382 816 307 569 307 320 c 0
 307 185 349 48 438 48 c 3
 585 48 667 304 667 552 c 0
405 -26 m 3
 222 -26 126 129 126 327 c 0
 126 608 319 893 590 893 c 3
 773 893 843 715 843 537 c 0
 843 261 664 -26 405 -26 c 3
42 -46 m 1
 198 141 l 1
 242 157 l 1
 668 727 l 1
 666 765 l 1
 767 897 l 1
 922 904 l 1
 771 705 l 1
 712 670 l 1
 288 109 l 1
 297 78 l 1
 205 -41 l 1
 42 -46 l 1
EndSplineSet
Colour: ffffff
EndChar

StartChar: Euro
Encoding: 207 8364 208
Width: 1210
VWidth: 0
Flags: HMW
LayerCount: 3
Back
SplineSet
-14 468 m 1xf8
 -4 567 l 1
 849 567 l 1
 828 468 l 1
 -14 468 l 1xf8
-4 651 m 1
 6 750 l 1
 898 750 l 1
 877 651 l 1
 -4 651 l 1
142 636 m 0
 142 917 347 1269 750 1269 c 0
 882 1269 983 1242 1079 1169 c 1
 1048 837 l 1
 960 850 l 1xfc
 918 1070 l 1
 872 1129 822 1174 693 1174 c 0
 467 1174 354 965 354 666 c 3
 354 343 497 83 750 83 c 0
 812 83 887 108 934 174 c 1
 977 401 l 1
 1065 414 l 1xfa
 1096 111 l 1
 970 12 864 -24 700 -24 c 0
 362 -24 142 234 142 636 c 0
EndSplineSet
Fore
SplineSet
49 468 m 1
 59 567 l 1
 912 567 l 1
 891 468 l 1
 49 468 l 1
59 651 m 1
 69 750 l 1
 961 750 l 1
 940 651 l 1
 59 651 l 1
205 636 m 0
 205 917 410 1269 813 1269 c 0
 945 1269 1046 1242 1142 1169 c 1
 1111 837 l 1
 1023 850 l 1
 981 1070 l 1
 935 1129 885 1174 756 1174 c 0
 530 1174 417 965 417 666 c 3
 417 343 560 83 813 83 c 0
 875 83 950 108 997 174 c 1
 1040 401 l 1
 1128 414 l 1
 1159 111 l 1
 1033 12 927 -24 763 -24 c 0
 425 -24 205 234 205 636 c 0
EndSplineSet
Colour: ffffff
EndChar

StartChar: Germandbls
Encoding: 195 7838 209
Width: 1394
VWidth: 0
Flags: HMW
LayerCount: 3
Back
SplineSet
26 0 m 1x75
 34 73 l 1
 198 119 l 1
 198 751 l 2
 198 1102 393 1250 689 1250 c 0
 874 1250 1169 1208 1169 1032 c 0
 1169 956 1127 923 1049 897 c 1
 1013 1001 976 1112 862 1112 c 0
 778 1112 691 1028 691 928 c 0x76
 691 637 1232 680 1232 316 c 0
 1232 90 1050 -24 826 -24 c 0
 684 -24 549 30 494 121 c 1
 507 376 l 1
 602 361 l 1
 637 184 l 1
 673 127 757 76 849 76 c 0xb9
 953 76 1050 110 1050 250 c 0
 1050 503 521 468 521 829 c 0
 521 992 621 1123 761 1155 c 1
 763 1158 l 1
 744 1160 695 1161 676 1161 c 0
 481 1161 387 1027 387 774 c 2
 389 0 l 1
 26 0 l 1x75
EndSplineSet
Fore
SplineSet
44 0 m 1
 64 73 l 1
 235 119 l 1
 335 751 l 2
 391 1102 609 1250 905 1250 c 0
 1090 1250 1378 1208 1350 1032 c 0
 1338 956 1291 923 1209 897 c 1
 1189 1001 1170 1112 1056 1112 c 0
 972 1112 872 1028 856 928 c 0
 810 637 1358 680 1300 316 c 0
 1264 90 1064 -24 840 -24 c 0
 698 -24 572 30 531 121 c 1
 585 376 l 1
 677 361 l 1
 684 184 l 1
 711 127 787 76 879 76 c 0
 983 76 1086 110 1108 250 c 0
 1148 503 613 468 670 829 c 0
 696 992 817 1123 962 1155 c 1
 964 1158 l 1
 945 1160 897 1161 878 1161 c 0
 683 1161 568 1027 528 774 c 2
 407 0 l 1
 44 0 l 1
EndSplineSet
Colour: ffffff
EndChar

StartChar: Germandbls.alt
Encoding: 210 -1 210
Width: 1387
VWidth: 0
Flags: HMW
LayerCount: 3
Back
SplineSet
25 0 m 1x7c
 33 73 l 1x7c
 198 119 l 1
 198 678 l 2
 198 1115 392 1250 688 1250 c 0
 851 1250 1076 1232 1134 1213 c 1
 1135 1142 l 1
 835 751 l 1
 922 689 1232 595 1232 332 c 0
 1232 106 1049 -24 825 -24 c 0
 683 -24 548 38 493 129 c 1
 506 392 l 1
 607 377 l 1
 646 192 l 1
 682 135 756 76 848 76 c 0xbc
 952 76 1049 126 1049 266 c 0
 1049 432 772 545 609 639 c 1
 586 687 l 1
 906 1125 l 1
 906 1130 l 1
 864 1148 694 1161 675 1161 c 0
 480 1161 386 1053 386 700 c 1
 388 0 l 1
 25 0 l 1x7c
EndSplineSet
Fore
SplineSet
43 0 m 1
 63 73 l 1
 235 119 l 1
 323 678 l 2
 392 1115 608 1250 904 1250 c 0
 1067 1250 1289 1232 1344 1213 c 1
 1334 1142 l 1
 972 751 l 1
 1044 693 1307 587 1307 361 c 0
 1307 100 1068 -24 839 -24 c 0
 697 -24 572 38 531 129 c 1
 586 392 l 1
 685 377 l 1
 694 192 l 1
 721 135 786 76 878 76 c 0
 980 76 1111 124 1111 279 c 0
 1111 432 869 549 728 639 c 1
 713 687 l 1
 1102 1125 l 1
 1103 1130 l 1
 1064 1148 896 1161 877 1161 c 0
 682 1161 571 1053 515 700 c 1
 406 0 l 1
 43 0 l 1
EndSplineSet
Colour: ffffff
EndChar

StartChar: circumflex
Encoding: 191 710 211
Width: 560
VWidth: 0
Flags: HMW
LayerCount: 3
Back
SplineSet
90 1387 m 1
 258 1566 l 1
 313 1581 l 1
 491 1395 l 1
 442 1358 l 1
 279 1468 l 1
 268 1468 l 1
 129 1357 l 1
 90 1387 l 1
EndSplineSet
Fore
SplineSet
79 1387 m 1
 247 1566 l 1
 302 1581 l 1
 480 1395 l 1
 431 1358 l 1
 268 1468 l 1
 257 1468 l 1
 118 1357 l 1
 79 1387 l 1
EndSplineSet
Colour: ffffff
EndChar

StartChar: dagger
Encoding: 203 8224 212
Width: 818
VWidth: 0
Flags: HMW
LayerCount: 3
Back
SplineSet
37 712 m 1xa0
 45 827 l 1
 342 819 l 1
 334 1255 l 1
 467 1244 l 1
 458 819 l 1
 764 827 l 1
 756 705 l 1
 458 716 l 1xa0
 473 -363 l 1
 328 -351 l 1xc0
 342 718 l 1
 37 712 l 1xa0
EndSplineSet
Fore
SplineSet
47 712 m 1
 55 827 l 1
 352 819 l 1
 344 1255 l 1
 477 1244 l 1
 468 819 l 1
 774 827 l 1
 766 705 l 1
 468 716 l 1
 483 -363 l 1
 338 -351 l 1
 352 718 l 1
 47 712 l 1
EndSplineSet
Colour: ffffff
EndChar

StartChar: daggerdbl
Encoding: 204 8225 213
Width: 825
VWidth: 0
Flags: HMW
LayerCount: 3
Back
SplineSet
52 712 m 1xd0
 59 827 l 1
 354 819 l 1
 347 1255 l 1
 480 1244 l 1
 470 819 l 1
 774 827 l 1
 768 705 l 1
 470 716 l 1
 461 429 l 1xd0
 464 174 l 1
 777 181 l 1
 771 64 l 1
 464 73 l 1
 473 -363 l 1
 340 -352 l 1
 350 73 l 1
 62 64 l 1
 70 187 l 1
 350 175 l 1xe0
 357 498 l 1
 354 718 l 1
 52 712 l 1xd0
EndSplineSet
Fore
SplineSet
50 712 m 1
 57 827 l 1
 352 819 l 1
 345 1255 l 1
 478 1244 l 1
 468 819 l 1
 772 827 l 1
 766 705 l 1
 468 716 l 1
 459 429 l 1
 462 174 l 1
 775 181 l 1
 769 64 l 1
 462 73 l 1
 471 -363 l 1
 338 -352 l 1
 348 73 l 1
 60 64 l 1
 68 187 l 1
 348 175 l 1
 355 498 l 1
 352 718 l 1
 50 712 l 1
EndSplineSet
Colour: ffffff
EndChar

StartChar: eight.osf
Encoding: 211 -1 214
Width: 857
VWidth: 0
Flags: HMW
LayerCount: 3
Back
SplineSet
55 280 m 0xe4
 55 393 127 499 271 589 c 1
 271 598 l 1
 197 642 100 753 100 887 c 0
 100 1055 242 1201 417 1201 c 0
 589 1201 700 1094 700 943 c 0xd8
 700 826 650 731 534 645 c 1
 534 636 l 1
 681 544 752 430 752 308 c 0
 752 124 590 -27 360 -27 c 0
 176 -27 55 89 55 280 c 0xe4
220 304 m 0xe4
 220 185 301 66 406 66 c 0
 519 66 594 132 594 266 c 0
 594 374 475 465 330 555 c 1
 277 515 220 409 220 304 c 0xe4
249 977 m 0xd8
 249 868 325 756 466 676 c 1
 506 720 552 778 552 906 c 0
 552 1014 495 1124 390 1124 c 0
 311 1124 249 1057 249 977 c 0xd8
EndSplineSet
Fore
SplineSet
324 589 m 1
 326 598 l 1
 267 637 197 739 197 853 c 0
 197 1051 375 1201 557 1201 c 0
 711 1201 813 1115 813 988 c 0
 813 838 733 726 596 635 c 1
 595 626 l 1
 710 546 765 450 765 346 c 0
 765 126 586 -27 347 -27 c 0
 184 -27 44 63 44 216 c 0
 44 372 166 504 324 589 c 1
215 271 m 0
 215 142 294 66 386 66 c 0
 496 66 598 121 598 269 c 0
 598 367 499 462 378 545 c 1
 294 504 215 398 215 271 c 0
361 949 m 0
 361 852 419 747 533 676 c 1
 581 721 659 800 659 944 c 0
 659 1034 617 1124 528 1124 c 0
 437 1124 361 1052 361 949 c 0
EndSplineSet
Colour: ffffff
EndChar

StartChar: emdash
Encoding: 197 8212 215
Width: 1258
VWidth: 0
Flags: HMW
LayerCount: 3
Back
SplineSet
87 409 m 1
 102 513 l 1
 1223 520 l 1
 1207 415 l 1
 87 409 l 1
EndSplineSet
Fore
SplineSet
61 409 m 1
 76 513 l 1
 1197 520 l 1
 1181 415 l 1
 61 409 l 1
EndSplineSet
Colour: ffffff
EndChar

StartChar: endash
Encoding: 196 8211 216
Width: 748
VWidth: 0
Flags: HMW
LayerCount: 3
Back
SplineSet
87 409 m 1
 102 513 l 1
 713 520 l 1
 697 415 l 1
 87 409 l 1
EndSplineSet
Fore
SplineSet
61 409 m 1
 76 513 l 1
 687 520 l 1
 671 415 l 1
 61 409 l 1
EndSplineSet
Colour: ffffff
EndChar

StartChar: five.osf
Encoding: 212 -1 217
Width: 954
VWidth: 0
Flags: HMW
LayerCount: 3
Back
SplineSet
-66 -159 m 0
 -66 -86 -25 -37 34 -26 c 1
 68 -96 146 -206 255 -206 c 0
 384 -206 479 -117 479 80 c 0
 479 278 347 395 76 426 c 1
 179 934 l 1
 623 974 l 1
 598 811 l 1
 240 788 l 1
 209 570 l 1
 516 540 663 376 663 145 c 0
 663 -60 466 -297 202 -297 c 0
 12 -297 -66 -217 -66 -159 c 0
EndSplineSet
Fore
SplineSet
164 -16 m 1
 187 -86 247 -206 356 -206 c 0
 493 -206 631 -124 631 101 c 0
 631 262 514 378 277 406 c 1
 461 914 l 1
 911 974 l 1
 860 801 l 1
 499 768 l 1
 433 550 l 1
 700 523 826 372 826 182 c 0
 826 -78 576 -297 289 -297 c 0
 110 -297 42 -207 42 -150 c 0
 42 -71 106 -26 164 -16 c 1
EndSplineSet
Colour: ffffff
EndChar

StartChar: four.osf
Encoding: 213 -1 218
Width: 1029
VWidth: 0
Flags: HMW
LayerCount: 3
Back
SplineSet
-9 164 m 1
 618 986 l 1
 683 968 l 1
 677 849 673 613 673 432 c 2
 673 211 l 1
 927 211 l 1
 910 86 l 1
 675 86 l 1
 675 -267 l 1
 500 -304 l 1
 500 89 l 1
 14 89 l 1
 -9 164 l 1
169 211 m 1
 499 211 l 1
 499 676 l 1
 169 211 l 1
EndSplineSet
Fore
SplineSet
43 164 m 1
 800 986 l 1
 862 968 l 1
 837 849 796 613 767 432 c 2
 732 211 l 1
 986 211 l 1
 950 86 l 1
 715 86 l 1
 656 -277 l 5
 478 -304 l 1
 540 89 l 1
 54 89 l 1
 43 164 l 1
228 211 m 1
 558 211 l 1
 632 676 l 1
 228 211 l 1
EndSplineSet
Colour: ffffff
EndChar

StartChar: guilsinglleft
Encoding: 205 8249 219
Width: 415
VWidth: 0
Flags: HMW
LayerCount: 3
Back
SplineSet
23 469 m 1
 292 820 l 1
 335 761 l 1
 171 461 l 1
 338 141 l 1
 286 77 l 1
 24 449 l 5
 23 469 l 1
EndSplineSet
Fore
SplineSet
49 469 m 1
 318 820 l 1
 361 761 l 1
 197 461 l 1
 364 141 l 1
 312 77 l 1
 50 449 l 5
 49 469 l 1
EndSplineSet
Colour: ffffff
EndChar

StartChar: guilsinglright
Encoding: 206 8250 220
Width: 416
VWidth: 0
Flags: HMW
LayerCount: 3
Back
SplineSet
61 141 m 1
 228 461 l 1
 64 761 l 1
 108 820 l 1
 376 469 l 1
 374 449 l 1
 113 77 l 1
 61 141 l 1
EndSplineSet
Fore
SplineSet
51 141 m 1
 218 461 l 1
 54 761 l 1
 98 820 l 1
 366 469 l 1
 364 449 l 1
 103 77 l 1
 51 141 l 1
EndSplineSet
Colour: ffffff
EndChar

StartChar: nine.osf
Encoding: 214 -1 222
Width: 845
VWidth: 0
Flags: HMW
LayerCount: 3
Back
SplineSet
25 581 m 0
 25 800 199 972 390 972 c 0
 653 972 744 755 744 521 c 0
 744 186 479 -177 148 -282 c 1
 125 -208 l 1
 417 -84 504 140 544 338 c 1
 532 338 l 1
 483 271 401 230 314 230 c 0
 120 230 25 356 25 581 c 0
208 607 m 0
 208 424 262 338 387 338 c 0
 457 338 519 374 550 424 c 1
 558 470 557 525 557 565 c 0
 557 729 491 891 375 891 c 0
 275 891 208 813 208 607 c 0
EndSplineSet
Fore
SplineSet
499 972 m 0
 715 972 792 806 792 624 c 0
 792 203 433 -169 58 -282 c 1
 47 -208 l 1
 359 -84 476 132 548 319 c 1
 536 319 l 1
 476 252 392 230 305 230 c 0
 142 230 63 339 63 501 c 0
 63 779 276 972 499 972 c 0
250 527 m 0
 250 413 296 338 395 338 c 0
 465 338 533 374 572 424 c 1
 597 500 609 574 609 659 c 0
 609 786 565 891 471 891 c 0
 353 891 250 755 250 527 c 0
EndSplineSet
Colour: ffffff
EndChar

StartChar: one.osf
Encoding: 215 -1 223
Width: 652
VWidth: 0
Flags: HMW
LayerCount: 3
Back
SplineSet
35 0 m 1
 44 74 l 1
 228 121 l 1
 228 802 l 1
 55 805 l 1
 64 882 l 1
 368 956 l 1
 396 956 l 1
 396 114 l 1
 585 80 l 1
 575 0 l 1
 35 0 l 1
EndSplineSet
Fore
SplineSet
43 0 m 1
 64 74 l 1
 255 121 l 1
 363 802 l 1
 170 802 l 5
 192 882 l 5
 488 956 l 1
 556 956 l 1
 422 114 l 1
 606 80 l 1
 583 0 l 1
 43 0 l 1
EndSplineSet
Colour: ffffff
EndChar

StartChar: seven.osf
Encoding: 216 -1 224
Width: 831
VWidth: 0
Flags: HMW
LayerCount: 3
Back
SplineSet
15 617 m 1
 55 945 l 1
 693 945 l 1
 706 850 l 1
 484 448 305 139 252 -295 c 1
 241 -296 216 -304 206 -304 c 0
 121 -304 84 -253 84 -189 c 0
 84 -26 424 550 565 786 c 1
 147 786 l 1
 83 604 l 1
 15 617 l 1
EndSplineSet
Fore
SplineSet
56 617 m 1
 148 945 l 1
 786 945 l 1
 784 850 l 1
 462 420 264 30 198 -301 c 1
 122 -315 44 -247 44 -174 c 0
 44 -25 399 471 632 786 c 1
 214 786 l 1
 122 604 l 1
 56 617 l 1
EndSplineSet
Colour: ffffff
EndChar

StartChar: six.osf
Encoding: 217 -1 225
Width: 851
VWidth: 0
Flags: HMW
LayerCount: 3
Back
SplineSet
37 421 m 0
 37 756 314 1127 628 1229 c 1
 663 1171 l 1
 402 1052 282 816 242 618 c 1
 252 618 l 1
 310 686 393 722 475 722 c 0
 653 722 759 577 759 390 c 0
 759 170 586 -21 385 -21 c 0
 129 -21 37 187 37 421 c 0
232 406 m 0
 232 235 285 61 402 61 c 0
 507 61 572 174 572 328 c 0
 572 463 538 615 396 615 c 0
 322 615 263 570 239 534 c 1
 236 501 232 440 232 406 c 0
EndSplineSet
Fore
SplineSet
778 1229 m 1
 804 1171 l 1
 524 1052 366 816 295 618 c 1
 305 618 l 1
 374 686 463 722 545 722 c 0
 699 722 782 593 782 442 c 0
 782 178 554 -21 337 -21 c 0
 126 -21 49 161 49 341 c 0
 49 760 422 1119 778 1229 c 1
242 306 m 0
 242 182 278 61 367 61 c 0
 498 61 588 218 588 408 c 0
 588 509 556 615 449 615 c 0
 375 615 309 570 279 534 c 1
 261 460 242 393 242 306 c 0
EndSplineSet
Colour: ffffff
EndChar

StartChar: three.osf
Encoding: 218 -1 226
Width: 893
VWidth: 0
Flags: HMW
LayerCount: 3
Back
SplineSet
-44 -159 m 0xf4
 -44 -110 9 -46 92 -38 c 1
 98 -81 139 -210 235 -210 c 0
 420 -210 466 -86 466 30 c 0xf4
 466 156 366 298 179 303 c 1
 169 370 l 1
 298 411 436 506 436 687 c 0
 436 774 400 857 310 857 c 0
 202 857 149 788 112 698 c 1
 34 725 l 1
 53 830 190 991 368 991 c 0
 519 991 623 884 623 739 c 0xf8
 623 582 469 450 381 412 c 1
 381 401 l 1
 531 384 654 241 654 83 c 0
 654 -107 461 -297 215 -297 c 0
 41 -297 -44 -225 -44 -159 c 0xf4
EndSplineSet
Fore
SplineSet
189 -9 m 1
 198 -96 240 -204 333 -204 c 0
 527 -204 596 -71 596 73 c 0
 596 186 494 309 329 313 c 1
 320 380 l 1
 460 422 651 540 651 702 c 0
 651 771 622 857 548 857 c 0
 440 857 376 788 325 698 c 1
 251 725 l 1
 287 830 449 991 627 991 c 0
 762 991 846 876 846 754 c 0
 846 567 660 453 558 412 c 1
 557 401 l 1
 689 386 793 269 793 131 c 0
 793 -96 545 -297 290 -297 c 0
 127 -297 42 -213 42 -151 c 0
 42 -92 103 -17 189 -9 c 1
EndSplineSet
Colour: ffffff
EndChar

StartChar: two.osf
Encoding: 219 -1 227
Width: 865
VWidth: 0
Flags: HMW
LayerCount: 3
Back
SplineSet
40 102 m 1
 295 300 l 1
 463 432 497 561 497 658 c 0
 497 796 436 867 343 867 c 0
 257 867 166 782 133 675 c 1
 58 704 l 1
 74 800 209 987 417 991 c 0
 606 994 702 860 702 703 c 0
 702 509 522 348 328 206 c 1
 244 147 l 1
 615 147 l 1
 693 301 l 1
 764 292 l 1
 710 0 l 1
 47 0 l 1
 40 102 l 1
EndSplineSet
Fore
SplineSet
53 102 m 5
 363 288 603 444 603 698 c 4
 603 796 555 867 477 867 c 4
 391 867 287 782 237 675 c 5
 167 704 l 5
 198 800 362 987 571 991 c 4
 573 991 575 991 577 991 c 4
 739 991 814 869 815 740 c 4
 816 474 504 297 264 147 c 5
 635 147 l 5
 738 301 l 5
 807 292 l 5
 707 0 l 5
 44 0 l 5
 53 102 l 5
EndSplineSet
Colour: ffffff
EndChar

StartChar: f.i
Encoding: 208 61441 228
Width: 1075
VWidth: 0
Flags: HMW
LayerCount: 3
Back
SplineSet
175 99 m 6
 287 768 l 5
 138 768 l 5
 152 836 l 5
 309 872 l 5
 356 1155 540.324 1306 688 1306 c 3
 780.566 1306 822 1268.63 822 1203 c 16
 822 1163.5 795.158 1114.14 732 1090 c 1
 689 1152 665.83 1198 595 1198 c 3
 518 1198 491 1107 461 858 c 1
 641 858 l 1
 623 768 l 1
 448 768 l 1
 338 135 l 6
 316.333 26.6667 303.574 -37.7142 288 -60 c 5
 132 -60 l 5
 148.034 -30.7224 154.435 -3.78787 175 99 c 6
EndSplineSet
Fore
SplineSet
385 135 m 22
 374 25 350.574 -37.7142 335 -60 c 5
 179 -60 l 5
 195.034 -30.7224 212 -5 222 99 c 6
 288 768 l 5
 135 768 l 5
 149 836 l 5
 306 872 l 5
 352.297 1118 571.703 1306 774 1306 c 4
 900 1306 961 1259 961 1173 c 4
 961 1134 933 1084 869 1060 c 5
 835 1103 747 1178 673 1178 c 4
 575 1178 506 1128 476 956 c 6
 459 858 l 5
 522 866 759 886 862 886 c 4
 994 886 1007 817 989 693 c 6
 943 378 l 6
 929 281 920 216 920 172 c 4
 920 95 978 94 1047 96 c 5
 1039 15 l 5
 1010 0 954 -17 898 -17 c 4
 766 -17 738 47 760 194 c 6
 828 659 l 6
 840.842 732.979 781 754 690 758 c 6
 450 768 l 13
 385 135 l 22
EndSplineSet
Colour: ffffff
EndChar

StartChar: f.l
Encoding: 209 61442 229
Width: 1121
VWidth: 0
Flags: HMW
LayerCount: 3
Back
SplineSet
767 1223 m 17
 810 1244 860 1256 920 1256 c 0
 1052 1256 1065 1187 1047 1063 c 2
 938 378 l 6
 923 283 915 216 915 172 c 4
 915 95 973 94 1042 96 c 5
 1034 15 l 5
 1005 0 949 -17 893 -17 c 7
 761 -17 732 48 755 194 c 6
 889 1059 l 2
 904 1152 832 1145 758 1143 c 9
 767 1223 l 17
EndSplineSet
Fore
SplineSet
755 194 m 6
 904 1132 l 21
 876 1156 774 1178 713 1178 c 4
 605 1178 506 1130 476 956 c 6
 459 858 l 5
 750 858 l 5
 726 768 l 5
 450 768 l 13
 385 135 l 22
 374 25 350.574 -37.7142 335 -60 c 5
 179 -60 l 5
 195.034 -30.7224 212 -5 222 99 c 6
 288 768 l 5
 135 768 l 5
 149 836 l 5
 306 872 l 5
 353 1118 597 1306 754 1306 c 4
 956 1306 1066 1212 1078 1172 c 13
 938 378 l 6
 921 283 915 216 915 172 c 4
 915 95 973 94 1042 96 c 5
 1034 15 l 5
 1005 0 949 -17 893 -17 c 7
 761 -17 732 48 755 194 c 6
EndSplineSet
Colour: ffffff
EndChar

StartChar: zero.osf
Encoding: 220 -1 230
Width: 899
VWidth: 0
Flags: HMW
LayerCount: 3
Back
SplineSet
99 482 m 0
 99 746 265 987 488 985 c 0
 732 982 875 772 875 492 c 0
 875 160 680 -23 487 -23 c 0
 285 -23 99 147 99 482 c 0
297 492 m 0
 297 133 389 71 488 71 c 0
 587 71 677 130 677 487 c 0
 677 842 586 900 487 900 c 0
 388 900 297 849 297 492 c 0
EndSplineSet
Fore
SplineSet
526 985 m 1
 529 985 l 0
 737 982 846 838 846 619 c 4
 846 234 583 -23 368 -23 c 0
 193 -23 50 95 50 348 c 0
 50 674 272 985 526 985 c 1
241 321 m 0
 241 138 307 71 384 71 c 0
 513 71 657 293 657 645 c 0
 657 825 592 900 515 900 c 0
 384 900 241 673 241 321 c 0
EndSplineSet
Colour: ffffff
EndChar

StartChar: a.sc
Encoding: 221 -1 233
Width: 1077
VWidth: 1691
Flags: W
HStem: 0 80<413.711 435> 310 102<435 757>
LayerCount: 3
Fore
SplineSet
770 310 m 17
 381 310 l 9
 435 412 l 17
 757 412 l 9
 770 310 l 17
749 121 m 9
 638 730 l 25
 320 124 l 17
 459 80 l 1
 435 0 l 1
 37 0 l 1
 58 74 l 1
 185 129 l 1
 634 917 l 1
 790 948 l 1
 954 124 l 1
 1054 80 l 1
 1032 0 l 1
 587 0 l 1
 611 74 l 1
 749 121 l 9
EndSplineSet
Colour: ffffff
EndChar

StartChar: b.sc
Encoding: 222 -1 234
Width: 943
VWidth: 1691
Flags: W
HStem: 0 96<392 667.613> 0 74<60 103.923> 442 83<460 683.229> 834 77<198 240.99> 871 86<511.287 709.988>
LayerCount: 3
Fore
SplineSet
37 0 m 1x60
 60 74 l 1
 204 121 l 1
 312 804 l 1
 176 834 l 1
 198 911 l 1x70
 328 932 483 957 638 957 c 0
 871 957 949 847 930 727 c 0
 918 651 862 558 719 516 c 1
 718 509 l 1
 896 501 974 425 953 290 c 0
 930 147 799 0 465 0 c 2xa8
 37 0 l 1x60
392 96 m 1xa0
 522 96 l 2
 656 96 737 163 755 277 c 0
 769 363 715 442 580 442 c 2
 447 442 l 1
 392 96 l 1xa0
460 525 m 1
 626 525 l 1
 705 565 732 614 747 709 c 0
 759 786 729 871 565 871 c 0x28
 550 871 531 870 514 868 c 1
 460 525 l 1
EndSplineSet
Colour: ffffff
EndChar

StartChar: c.sc
Encoding: 223 -1 235
Width: 879
VWidth: 1691
Flags: W
HStem: -24 132<423.508 707.667> 852 95<482.779 764.123>
VStem: 783 96<615 663.314>
LayerCount: 3
Fore
SplineSet
109 439 m 4
 144 659 330 947 673 947 c 4
 776 947 877 929 944 880 c 5
 879 602 l 5
 783 615 l 5
 787 775 l 5
 769 814 734 852 621 852 c 4
 467 852 347 719 312 498 c 4
 271 242 410 108 556 108 c 4
 693 108 766 147 839 191 c 5
 862 115 l 5
 788 51 669 -24 468 -24 c 4
 243 -24 61 138 109 439 c 4
EndSplineSet
Colour: ffffff
EndChar

StartChar: d.sc
Encoding: 224 -1 236
Width: 1061
VWidth: 1691
Flags: W
HStem: 0 104<399 664.821> 820 76<191 240.246> 842 103<513.542 773.748>
LayerCount: 3
Fore
SplineSet
36 0 m 5xa0
 62 74 l 5
 212 129 l 5
 317 790 l 5
 170 820 l 5
 191 896 l 5xc0
 362 927 510 945 632 945 c 4
 1053 945 1137 727 1101 498 c 4
 1059 230 808 0 410 0 c 6
 36 0 l 5xa0
399 104 m 5
 454 104 l 6
 707 104 849 245 884 463 c 4
 923 708 824 842 578 842 c 4xa0
 558 842 537 842 516 838 c 5
 399 104 l 5
EndSplineSet
Colour: ffffff
EndChar

StartChar: e.sc
Encoding: 225 -1 237
Width: 925
VWidth: 1691
Flags: W
HStem: 0 96<398 743> 0 74<64 107.923> 410 93<463 609> 835 92<515 826> 851 76<195 221.493>
VStem: 600 93<298 350.274> 831 97<667 715.152>
LayerCount: 3
Fore
SplineSet
172 851 m 5x6e
 195 927 l 5
 992 927 l 5x6e
 928 654 l 5
 831 667 l 5
 826 835 l 5
 515 835 l 5
 463 503 l 1
 640 503 l 1
 674 583 l 1
 775 597 l 1
 693 298 l 1
 600 285 l 1
 609 410 l 1
 448 410 l 1
 398 96 l 1
 743 96 l 1xb6
 839 276 l 1
 931 263 l 1
 869 0 l 1
 44 0 l 1
 64 74 l 1
 208 121 l 1
 317 809 l 5
 172 851 l 5x6e
EndSplineSet
Colour: ffffff
EndChar

StartChar: f.sc
Encoding: 226 -1 238
Width: 899
VWidth: 1691
Flags: W
HStem: 0 74<64 107.923 533.656 565> 378 92<457 649> 838 92<516 841> 854 76<195 221.835>
VStem: 646 96<276 333.344> 835 101<672 712.158>
LayerCount: 3
Fore
SplineSet
172 854 m 1xdc
 195 930 l 1
 1008 930 l 1xdc
 936 658 l 1
 835 672 l 1
 841 838 l 1
 516 838 l 1xec
 457 470 l 1
 676 470 l 1
 715 554 l 1
 815 568 l 1
 742 276 l 1
 646 262 l 1
 649 378 l 1
 443 378 l 1
 399 122 l 1
 591 83 l 1
 565 0 l 1
 44 0 l 1
 64 74 l 1
 208 121 l 1
 318 812 l 1
 172 854 l 1xdc
EndSplineSet
Colour: ffffff
EndChar

StartChar: g.sc
Encoding: 227 -1 239
Width: 1044
VWidth: 1691
Flags: W
HStem: -31 108<404.254 722.686> 318 83<596 637.907 997.517 1044> 848 99<508.244 841.365>
VStem: 863 104<623 666.959>
LayerCount: 3
Fore
SplineSet
106 421 m 0
 156 734 433 947 723 947 c 0
 858 947 967 929 1038 900 c 1
 967 608 l 1
 863 623 l 1
 863 788 l 1
 837 812 761 848 657 848 c 0
 516 848 360 742 319 480 c 0
 280 234 360 77 546 77 c 0
 651 77 694 86 724 112 c 1
 750 280 l 1
 570 318 l 1
 596 401 l 1
 1072 401 l 1
 1044 317 l 1
 937 285 l 1
 897 29 l 1
 780 -14 653 -31 486 -31 c 0
 182 -31 66 168 106 421 c 0
EndSplineSet
Colour: ffffff
EndChar

StartChar: h.sc
Encoding: 228 -1 240
Width: 1195
VWidth: 1691
Flags: W
HStem: 0 80<64 93.2777 514.469 525 685 714.074 1132.96 1146> 405 103<464 873> 854 76<195 221.835 602.674 657 814 841.176 1222.05 1276>
LayerCount: 3
Fore
SplineSet
172 854 m 1
 195 930 l 1
 679 930 l 1
 657 854 l 1
 513 816 l 1
 464 508 l 1
 889 508 l 1
 938 812 l 1
 791 854 l 1
 814 930 l 1
 1300 930 l 1
 1276 854 l 1
 1133 816 l 1
 1022 114 l 1
 1169 80 l 1
 1146 0 l 1
 663 0 l 1
 685 74 l 1
 828 121 l 1
 873 405 l 1
 448 405 l 1
 402 114 l 1
 551 80 l 1
 525 0 l 1
 44 0 l 1
 64 74 l 1
 208 121 l 1
 318 812 l 1
 172 854 l 1
EndSplineSet
Colour: ffffff
EndChar

StartChar: i.sc
Encoding: 229 -1 241
Width: 574
VWidth: 1691
Flags: W
HStem: 0 80<64 93.2776 511.204 524> 854 76<195 221.835 602.297 657>
LayerCount: 3
Fore
SplineSet
172 854 m 5
 195 930 l 5
 276 930 526 930 679 930 c 5
 657 854 l 5
 512 816 l 5
 401 114 l 5
 547 80 l 5
 524 0 l 5
 44 0 l 5
 64 74 l 5
 208 121 l 5
 318 812 l 5
 172 854 l 5
EndSplineSet
Colour: ffffff
EndChar

StartChar: j.sc
Encoding: 230 -1 242
Width: 651
VWidth: 1691
Flags: W
HStem: 854 76<277 304.493 684.92 740>
LayerCount: 3
Fore
SplineSet
-3 -237 m 1
 174 -100 273 18 297 167 c 2
 400 812 l 1
 255 854 l 1
 277 930 l 1
 762 930 l 1
 740 854 l 1
 594 816 l 1
 513 305 l 2
 456 -58 350 -159 37 -326 c 1
 -3 -237 l 1
EndSplineSet
Colour: ffffff
EndChar

StartChar: k.sc
Encoding: 231 -1 243
Width: 1115
VWidth: 1691
Flags: W
HStem: 0 80<518.217 547> 854 76<1120.99 1170>
LayerCount: 3
Fore
SplineSet
172 854 m 5
 198 930 l 5
 678 930 l 5
 656 854 l 5
 517 807 l 5
 409 124 l 5
 571 80 l 5
 547 0 l 5
 44 0 l 5
 66 74 l 5
 216 129 l 5
 323 803 l 5
 172 854 l 5
487 466 m 5
 526 499 583 548 657 616 c 6
 873 815 l 5
 761 854 l 5
 781 930 l 5
 1194 930 l 5
 1170 851 l 5
 1023 811 l 5
 675 492 l 5
 749 375 l 6
 827 253 926 122 1045 83 c 6
 1089 70 l 5
 1068 1 l 5
 1019 -15 974 -21 934 -21 c 4
 767 -21 645 113 575 258 c 6
 484 445 l 5
 487 466 l 5
EndSplineSet
Colour: ffffff
EndChar

StartChar: l.sc
Encoding: 232 -1 244
Width: 929
VWidth: 1691
Flags: W
HStem: 0 96<404 710> 0 74<71 114.618> 854 76<626.807 675>
LayerCount: 3
Fore
SplineSet
50 0 m 1x60
 71 74 l 1x60
 214 121 l 1
 322 803 l 1
 172 854 l 1
 197 930 l 1
 697 930 l 1
 675 854 l 1
 517 807 l 1
 404 96 l 1
 710 96 l 1xa0
 837 295 l 1
 937 281 l 1
 864 0 l 1
 50 0 l 1x60
EndSplineSet
Colour: ffffff
EndChar

StartChar: m.sc
Encoding: 233 -1 245
Width: 1449
VWidth: 1691
Flags: W
HStem: 0 74<58 101.923 427.957 455 940 986.668 1373.32 1403> 854 76<250 278.176 1437.67 1492>
LayerCount: 3
Fore
SplineSet
35 0 m 1
 58 74 l 1
 202 121 l 1
 375 812 l 1
 228 854 l 1
 250 930 l 1
 607 930 l 1
 661 736 l 1
 776 322 l 1
 1041 769 l 1
 1140 930 l 1
 1514 930 l 1
 1492 854 l 1
 1348 816 l 1
 1279 114 l 1
 1426 80 l 1
 1403 0 l 1
 917 0 l 1
 940 74 l 1
 1093 121 l 1
 1155 719 l 1
 762 60 l 1
 630 41 l 1
 463 663 l 1
 333 114 l 1
 481 80 l 1
 455 0 l 1
 35 0 l 1
EndSplineSet
Colour: ffffff
EndChar

StartChar: n.sc
Encoding: 234 -1 246
Width: 1169
VWidth: 1691
Flags: W
HStem: 0 80<64 93.2776 447.469 460> 854 76<838 863.835 1189.73 1255>
LayerCount: 3
Fore
SplineSet
172 854 m 5
 195 930 l 5
 505 930 l 5
 875 275 l 5
 960 812 l 5
 814 854 l 5
 838 930 l 5
 1280 930 l 5
 1255 854 l 5
 1082 816 l 5
 955 11 l 5
 797 -20 l 5
 419 647 l 5
 335 114 l 5
 484 80 l 5
 460 0 l 5
 44 0 l 5
 64 74 l 5
 208 121 l 5
 316 803 l 5
 172 854 l 5
EndSplineSet
Colour: ffffff
EndChar

StartChar: o.sc
Encoding: 235 -1 247
Width: 1034
VWidth: 1691
Flags: W
HStem: -27 106<411.506 695.661> 851 96<482.513 757.553>
LayerCount: 3
Fore
SplineSet
111 458 m 4
 157 746 379 947 688 947 c 4
 974 947 1110 721 1068 458 c 4
 1027 199 809 -27 484 -27 c 4
 214 -27 68 186 111 458 c 4
327 515 m 4
 293 300 339 79 541 79 c 4
 746 79 820 248 846 412 c 4
 879 618 835 851 635 851 c 4
 431 851 355 690 327 515 c 4
EndSplineSet
Colour: ffffff
EndChar

StartChar: p.sc
Encoding: 236 -1 248
Width: 932
VWidth: 1691
Flags: W
HStem: 0 74<60 103.923 529.955 560> 319 83<502 678.967> 826 77<197 239.99> 864 83<510.175 729.897>
LayerCount: 3
Fore
SplineSet
37 0 m 1xd0
 60 74 l 1
 204 121 l 1
 311 796 l 1
 175 826 l 1
 197 903 l 1xe0
 316 922 477 947 630 947 c 0
 845 947 1036 890 999 654 c 0
 964 431 725 311 502 319 c 5
 497 402 l 5
 550 403 l 6
 680 406 773 494 794 628 c 0
 814 756 761 864 576 864 c 0
 552 864 513 860 513 860 c 1
 396 122 l 1
 587 83 l 1
 560 0 l 1
 37 0 l 1xd0
EndSplineSet
Colour: ffffff
EndChar

StartChar: q.sc
Encoding: 237 -1 249
Width: 1027
VWidth: 1691
Flags: W
HStem: -327 122<742.683 908.371> 853 94<475.336 741.949>
LayerCount: 3
Fore
SplineSet
110 455 m 0
 155 741 387 947 686 947 c 0
 976 947 1104 736 1064 483 c 0
 1028 257 865 51 632 -6 c 1
 661 -106 735 -210 933 -205 c 1
 929 -229 920 -263 911 -281 c 1
 855 -311 794 -327 735 -327 c 0
 571 -327 488 -198 527 -30 c 1
 206 -41 68 188 110 455 c 0
323 526 m 0
 286 294 357 70 575 67 c 1
 755 114 824 257 850 418 c 0
 883 629 803 853 624 853 c 0
 468 853 356 733 323 526 c 0
EndSplineSet
Colour: ffffff
EndChar

StartChar: r.sc
Encoding: 238 -1 250
Width: 1094
VWidth: 1691
Flags: W
HStem: 0 74<60 106.973 517.132 541> 368 91<447 606> 863 84<510.219 734.144>
LayerCount: 3
Fore
SplineSet
37 0 m 1
 60 74 l 1
 214 121 l 1
 321 794 l 1
 175 824 l 1
 197 901 l 1
 338 924 492 947 630 947 c 0
 890 947 1016 853 990 688 c 0
 971 568 859 472 754 431 c 1
 754 430 l 1
 827 299 l 2
 880 204 954 116 1039 90 c 2
 1071 80 l 1
 1045 10 l 1
 996 -5 951 -10 911 -10 c 0
 764 -10 663 103 626 274 c 2
 606 368 l 1
 432 368 l 1
 394 126 l 1
 564 83 l 1
 541 0 l 1
 37 0 l 1
447 459 m 1
 646 459 l 1
 713 478 778 546 795 652 c 0
 814 775 744 863 594 863 c 0
 546 863 510 858 510 858 c 1
 447 459 l 1
EndSplineSet
Colour: ffffff
EndChar

StartChar: s.sc
Encoding: 239 -1 251
Width: 714
VWidth: 1691
Flags: W
HStem: -24 99<236.424 497.411> 863 84<376.397 587.291>
VStem: 119 100<259.904 295> 595 98<645.245 796>
LayerCount: 3
Fore
SplineSet
46 59 m 5
 119 309 l 5
 219 295 l 5
 214 144 l 5
 248 101 277 75 379 75 c 4
 440 75 520 106 532 179 c 4
 562 371 118 365 166 665 c 4
 195 846 373 947 540 947 c 4
 626 947 698 930 756 897 c 5
 755 890 693 635 693 635 c 5
 595 647 l 5
 604 796 l 5
 590 830 551 863 494 863 c 4
 407 863 349 823 335 734 c 4
 302 524 760 518 718 254 c 4
 691 85 516 -24 349 -24 c 4
 183 -24 92 7 46 59 c 5
EndSplineSet
Colour: ffffff
EndChar

StartChar: t.sc
Encoding: 240 -1 252
Width: 936
VWidth: 1691
Flags: W
HStem: 0 80<244 273.684 701.772 714> 838 92<318 504 696 866>
VStem: 876 93<656 696.241>
LayerCount: 3
Fore
SplineSet
188 930 m 1
 1044 930 l 1
 969 641 l 1
 876 656 l 1
 866 838 l 1
 696 838 l 1
 581 114 l 1
 741 80 l 1
 714 0 l 1
 225 0 l 1
 244 74 l 1
 390 121 l 1
 504 838 l 1
 318 838 l 1
 240 645 l 1
 151 658 l 1
 188 930 l 1
EndSplineSet
Colour: ffffff
EndChar

StartChar: u.sc
Encoding: 241 -1 253
Width: 1142
VWidth: 1691
Flags: W
HStem: -27 132<483.523 783.275> 854 75<196 221.517 602.297 657 835 863.176 1176.43 1230>
LayerCount: 3
Fore
SplineSet
171 854 m 1
 196 929 l 1
 678 929 l 1
 657 854 l 1
 512 816 l 1
 440 360 l 2
 410 170 490 105 619 105 c 0
 759 105 852 154 881 332 c 2
 960 812 l 1
 813 854 l 1
 835 930 l 1
 1253 930 l 1
 1230 854 l 1
 1088 816 l 1
 1012 365 l 2
 964 78 798 -27 548 -27 c 0
 378 -27 195 30 241 319 c 2
 319 812 l 1
 171 854 l 1
EndSplineSet
Colour: ffffff
EndChar

StartChar: v.sc
Encoding: 242 -1 254
Width: 1082
VWidth: 1691
Flags: W
HStem: 854 76<594.069 645>
LayerCount: 3
Fore
SplineSet
172 854 m 1
 194 930 l 1
 667 930 l 1
 645 854 l 1
 510 816 l 1
 618 241 l 1
 920 812 l 1
 794 854 l 1
 813 930 l 1
 1190 930 l 1
 1171 854 l 1
 1061 816 l 1
 617 4 l 1
 460 -24 l 1
 289 812 l 1
 172 854 l 1
EndSplineSet
Colour: ffffff
EndChar

StartChar: w.sc
Encoding: 243 -1 255
Width: 1523
VWidth: 1691
Flags: W
HStem: 854 76<592.279 650 1214 1240.49 1561.33 1610>
LayerCount: 3
Fore
SplineSet
172 854 m 1
 193 930 l 1
 677 930 l 1
 650 854 l 1
 497 816 l 1
 565 271 l 1
 842 880 l 1
 1022 905 l 1
 1090 287 l 1
 1336 812 l 1
 1191 854 l 1
 1214 930 l 1
 1633 930 l 1
 1610 854 l 1
 1481 816 l 1
 1087 4 l 1
 928 -24 l 1
 853 637 l 1
 568 4 l 1
 400 -24 l 1
 296 812 l 1
 172 854 l 1
EndSplineSet
Colour: ffffff
EndChar

StartChar: x.sc
Encoding: 244 -1 256
Width: 1021
VWidth: 1691
Flags: W
HStem: 0 80<408.505 427 945.402 970> 852 78<593.705 636 1054.85 1097>
LayerCount: 3
Fore
SplineSet
37 0 m 1
 61 76 l 1
 185 121 l 1
 483 449 l 1
 301 809 l 1
 181 852 l 1
 205 930 l 1
 658 930 l 1
 636 852 l 1
 516 817 l 1
 633 584 l 1
 831 812 l 1
 717 852 l 1
 742 930 l 1
 1117 930 l 1
 1097 854 l 1
 974 816 l 1
 695 491 l 1
 876 114 l 1
 996 80 l 1
 970 0 l 1
 537 0 l 1
 562 74 l 1
 668 111 l 1
 545 363 l 1
 335 117 l 1
 455 83 l 1
 427 0 l 1
 37 0 l 1
EndSplineSet
Colour: ffffff
EndChar

StartChar: y.sc
Encoding: 245 -1 257
Width: 1001
VWidth: 1691
Flags: W
HStem: 0 80<290 319.888 739.204 752> 854 76<584.219 631>
LayerCount: 3
Fore
SplineSet
172 854 m 1
 197 930 l 1
 655 930 l 1
 631 854 l 1
 507 816 l 1
 632 493 l 1
 851 812 l 1
 734 854 l 1
 756 930 l 1
 1111 930 l 1
 1089 854 l 1
 988 816 l 1
 672 385 l 1
 629 114 l 1
 775 80 l 5
 752 0 l 5
 268 0 l 1
 290 74 l 1
 437 121 l 1
 475 360 l 1
 294 812 l 1
 172 854 l 1
EndSplineSet
Colour: ffffff
EndChar

StartChar: z.sc
Encoding: 246 -1 258
Width: 899
VWidth: 1691
Flags: W
HStem: 0 100<274 685> 835 95<376 733>
LayerCount: 3
Fore
SplineSet
53 104 m 1
 733 835 l 1
 376 835 l 1
 279 639 l 1
 182 657 l 1
 234 930 l 1
 988 930 l 1
 976 854 l 1
 274 100 l 1
 685 100 l 1
 816 301 l 1
 908 285 l 1
 826 0 l 1
 45 0 l 1
 53 104 l 1
EndSplineSet
Colour: ffffff
EndChar

StartChar: ae.sc
Encoding: 247 -1 259
Width: 1452
VWidth: 0
Flags: W
HStem: 0 96<936 1271> 0 74<608 651.923> 327 96<589 785> 410 93<1001 1147> 835 92<1053 1354> 851 76<607 657.783>
VStem: 1138 93<298 350.274> 1359 97<667 715.152>
LayerCount: 3
Fore
SplineSet
352 126 m 1x63
 493 83 l 1
 467 1 l 1
 52 1 l 1
 73 76 l 1
 218 131 l 1
 783 812 l 1
 585 851 l 1
 607 927 l 1
 1520 927 l 1x67
 1456 654 l 1
 1359 667 l 1
 1354 835 l 1
 1053 835 l 1
 1001 503 l 1
 1178 503 l 1
 1212 583 l 1
 1313 597 l 1
 1231 298 l 1
 1138 285 l 1
 1147 410 l 1
 986 410 l 1
 936 96 l 1
 1271 96 l 1x9b
 1367 276 l 1
 1459 263 l 1
 1397 0 l 1
 588 0 l 1
 608 74 l 1
 752 121 l 1
 785 327 l 1
 512 327 l 1
 352 126 l 1x63
589 423 m 1
 800 423 l 1
 852 754 l 1
 589 423 l 1
EndSplineSet
Colour: ffffff
EndChar

StartChar: eth.sc
Encoding: 248 -1 260
Width: 1034
VWidth: 0
Flags: W
HStem: 0 104<440 705.821> 820 76<232 281.246> 842 103<554.542 814.748>
LayerCount: 3
Fore
SplineSet
145 393 m 1x80
 171 485 l 1
 715 521 l 1
 688 430 l 1
 145 393 l 1x80
77 0 m 1
 103 74 l 1
 253 129 l 1
 358 790 l 1
 211 820 l 1
 232 896 l 1xc0
 403 927 551 945 673 945 c 0xa0
 1094 945 1178 727 1142 498 c 0
 1100 230 849 0 451 0 c 2
 77 0 l 1
440 104 m 1
 495 104 l 2
 748 104 890 245 925 463 c 0
 964 708 865 842 619 842 c 0xa0
 599 842 578 842 557 838 c 1
 440 104 l 1
EndSplineSet
Colour: ffffff
EndChar

StartChar: thorn.sc
Encoding: 249 -1 261
Width: 977
VWidth: 1691
Flags: W
HStem: 0 80<107 136.278 554.204 567> 181 82<503 679.755> 686 83<541.33 738.329> 854 76<238 264.835 649.656 707>
LayerCount: 3
Fore
SplineSet
215 854 m 1
 238 930 l 1
 321 930 573 930 729 930 c 1
 707 854 l 1
 555 816 l 1
 444 114 l 1
 590 80 l 1
 567 0 l 1
 87 0 l 1
 107 74 l 1
 251 121 l 1
 361 812 l 1
 215 854 l 1
461 759 m 1
 521 765 584 769 645 769 c 0
 850 769 1032 716 997 496 c 0
 964 286 726 173 503 181 c 1
 498 263 l 1
 551 265 l 2
 681 270 772 348 791 470 c 0
 810 587 761 686 591 686 c 0
 567 686 528 682 528 682 c 1
 461 759 l 1
EndSplineSet
Colour: ffffff
EndChar

StartChar: germandbls.sc
Encoding: 250 -1 262
Width: 1102
VWidth: 1691
Flags: W
HStem: -24 99<642.424 903.398> 0 73<30 83.8569> 843 106<655.086 970.251> 872 77<578.022 865.195>
VStem: 525 100<259.904 295> 1025 143<724.921 788.673>
LayerCount: 3
Fore
SplineSet
880 843 m 4xac
 987 843 1015 732 1025 634 c 5
 1107 660 1156 693 1168 769 c 4
 1191 914 955 949 803 949 c 4xac
 501 949 284 830 239 548 c 6
 169 110 l 5
 30 73 l 5
 10 0 l 5
 341 0 l 5
 431 571 l 6
 464 780 557 872 732 872 c 4x5c
 746 872 760 871 775 870 c 5
 772 867 l 4
 683 842 589 767 569 641 c 4
 526 371 965 347 938 179 c 4
 926 106 846 75 785 75 c 4
 683 75 654 101 620 144 c 5
 625 295 l 5
 525 309 l 5
 452 59 l 5
 498 7 589 -24 755 -24 c 4
 922 -24 1097 81 1123 244 c 4
 1163 495 707 514 740 724 c 4
 753 809 819 843 880 843 c 4xac
EndSplineSet
AlternateSubs2: "Neuton-Regular-Alternate Substitution in Latin lookup 0-1" germandbls.sc.alt
Colour: ffffff
EndChar

